SplineFontDB: 3.0
FontName: Latte-Bold
FullName: Latte Bold
FamilyName: Latte
Weight: Bold
Copyright: Copyright (c) 2016 by Guillaume Litaudon (www.guillaumelitaudon.fr) with Reserved Font Name "Latte".\nThis Font Software is licensed under the SIL Open Font License, Version 1.1.\n\nLatte is a variation of Carlito.\nCarlito is Copyright (c) 2010-2013 by tyPoland Lukasz Dziedzic with Reserved Font Name "Carlito". Licensed under the SIL Open Font License, Version 1.1.

StartChar: .notdef
Encoding: 1114112 -1 0
Width: 1038
GlyphClass: 2
Flags: MW
LayerCount: 2
Fore
SplineSet
241 1101 m 1,0,1
 265 1122 265 1122 293 1140.5 c 128,-1,2
 321 1159 321 1159 354 1173.5 c 128,-1,3
 387 1188 387 1188 425 1196 c 128,-1,4
 463 1204 463 1204 507 1204 c 0,5,6
 568 1204 568 1204 618 1187 c 128,-1,7
 668 1170 668 1170 704 1139 c 128,-1,8
 740 1108 740 1108 759.5 1063.5 c 128,-1,9
 779 1019 779 1019 779 965 c 0,10,11
 779 912 779 912 764.5 874 c 128,-1,12
 750 836 750 836 728.5 807.5 c 128,-1,13
 707 779 707 779 681 758 c 128,-1,14
 655 737 655 737 631.5 718.5 c 128,-1,15
 608 700 608 700 591.5 682 c 128,-1,16
 575 664 575 664 571 642 c 2,17,-1
 554 542 l 1,18,-1
 435 542 l 1,19,-1
 422 655 l 2,20,21
 418 688 418 688 431 712.5 c 128,-1,22
 444 737 444 737 465.5 757.5 c 128,-1,23
 487 778 487 778 513.5 797 c 128,-1,24
 540 816 540 816 562.5 838.5 c 128,-1,25
 585 861 585 861 600.5 888.5 c 128,-1,26
 616 916 616 916 616 955 c 0,27,28
 616 1003 616 1003 581.5 1031.5 c 128,-1,29
 547 1060 547 1060 493 1060 c 0,30,31
 454 1060 454 1060 427 1051.5 c 128,-1,32
 400 1043 400 1043 380.5 1032.5 c 128,-1,33
 361 1022 361 1022 348 1013.5 c 128,-1,34
 335 1005 335 1005 324 1005 c 0,35,36
 299 1005 299 1005 287 1026 c 2,37,-1
 241 1101 l 1,0,1
382 283 m 0,38,39
 382 305 382 305 390 325 c 128,-1,40
 398 345 398 345 412.5 359.5 c 128,-1,41
 427 374 427 374 446.5 382.5 c 128,-1,42
 466 391 466 391 489 391 c 0,43,44
 511 391 511 391 530.5 382.5 c 128,-1,45
 550 374 550 374 564 359.5 c 128,-1,46
 578 345 578 345 586.5 325 c 128,-1,47
 595 305 595 305 595 283 c 0,48,49
 595 260 595 260 586.5 240.5 c 128,-1,50
 578 221 578 221 564 207 c 128,-1,51
 550 193 550 193 530.5 184.5 c 128,-1,52
 511 176 511 176 489 176 c 0,53,54
 466 176 466 176 446.5 184.5 c 128,-1,55
 427 193 427 193 412.5 207 c 128,-1,56
 398 221 398 221 390 240.5 c 128,-1,57
 382 260 382 260 382 283 c 0,38,39
43 1383 m 1,58,-1
 985 1383 l 1,59,-1
 985 0 l 1,60,-1
 43 0 l 1,61,-1
 43 1383 l 1,58,-1
93 53 m 1,62,-1
 930 53 l 1,63,-1
 930 1330 l 1,64,-1
 93 1330 l 1,65,-1
 93 53 l 1,62,-1
EndSplineSet
Validated: 1
EndChar

StartChar: glyph1
Encoding: 0 -1 1
AltUni2: 000000.ffffffff.0
Width: 0
Flags: MW
LayerCount: 2
Fore
SplineSet
-17 -330 m 0,0,1
 -17 -323 -17 -323 -12 -318 c 128,-1,2
 -7 -313 -7 -313 0 -313 c 0,3,4
 8 -313 8 -313 13 -318 c 128,-1,5
 18 -323 18 -323 18 -330 c 0,6,7
 18 -338 18 -338 13 -343 c 128,-1,8
 8 -348 8 -348 0 -348 c 0,9,10
 -7 -348 -7 -348 -12 -343 c 128,-1,11
 -17 -338 -17 -338 -17 -330 c 0,0,1
EndSplineSet
Validated: 1
EndChar

StartChar: A
Encoding: 65 65 3
Width: 1285
GlyphClass: 2
Flags: W
AnchorPoint: "Ancre-5" 1185 1414 basechar 0
AnchorPoint: "Ancre-3" 1185 -510 basechar 0
AnchorPoint: "Ancre-2" 1185 1515 basechar 0
AnchorPoint: "Ancre-1" 593 -3 basechar 0
AnchorPoint: "Ancre-0" 593 1414 basechar 0
LayerCount: 2
Fore
SplineSet
1300 -0 m 1,0,-1
 1264 0 l 1,1,-1
 1123 0 l 2,2,3
 1090 0 1090 0 1069 18 c 0,4,5
 1050 34 1050 34 1038 57 c 2,6,-1
 1038 58 l 1,7,-1
 1037 59 l 1,8,-1
 924 358 l 1,9,-1
 384 358 l 1,10,-1
 272 60 l 2,11,12
 263 36 263 36 240 18 c 0,13,14
 217 0 217 0 185 0 c 2,15,-1
 44 0 l 1,16,-1
 8 0 l 1,17,-1
 21 33 l 1,18,-1
 531 1298 l 1,19,-1
 537 1314 l 1,20,-1
 556 1314 l 1,21,-1
 753 1314 l 1,22,-1
 772 1314 l 1,23,-1
 778 1298 l 1,24,-1
 1287 33 l 1,25,-1
 1300 -0 l 1,0,-1
638 1007 m 2,26,-1
 452 513 l 1,27,-1
 856 513 l 1,28,-1
 671 1008 l 2,29,30
 663 1027 663 1027 654 1051 c 1,31,32
 646 1027 646 1027 638 1007 c 2,26,-1
EndSplineSet
Validated: 1
Position2: "sous-table 'cpsp' Chasses pour composition en capitales lookups0" dx=40 dy=0 dh=80 dv=0
Substitution2: "sous-table 'sups' Exposant lookups25" A.superior
Substitution2: "sous-table 'c2sc' Capitales vers petites capitales lookups24" a.smcp
EndChar

StartChar: Aogonek
Encoding: 260 260 4
Width: 1285
GlyphClass: 2
Flags: W
AnchorPoint: "Ancre-5" 1185 1414 basechar 0
AnchorPoint: "Ancre-2" 1185 1515 basechar 0
AnchorPoint: "Ancre-1" 593 -3 basechar 0
AnchorPoint: "Ancre-0" 593 1810 basechar 0
AnchorPoint: "Ancre-3" 1185 -510 basechar 0
LayerCount: 2
Fore
SplineSet
1340 -157 m 0,0,1
 1352 -150 1352 -150 1364 -150 c 0,2,3
 1377 -150 1377 -150 1388.5 -157.5 c 128,-1,4
 1400 -165 1400 -165 1405 -177 c 2,5,-1
 1432 -242 l 1,6,-1
 1440 -260 l 1,7,-1
 1424 -272 l 2,8,9
 1392 -297 1392 -297 1343 -312 c 0,10,11
 1295 -327 1295 -327 1241 -327 c 0,12,13
 1145 -327 1145 -327 1086 -284 c 0,14,15
 1025 -238 1025 -238 1025 -162 c 0,16,17
 1025 -100 1025 -100 1068 -45 c 0,18,19
 1086 -21 1086 -21 1111 0 c 1,20,21
 1082 2 1082 2 1062 18 c 0,22,23
 1042 34 1042 34 1031 57 c 2,24,-1
 1030 58 l 1,25,-1
 1030 59 l 1,26,-1
 918 358 l 1,27,-1
 383 358 l 1,28,-1
 272 60 l 2,29,30
 263 36 263 36 240 18 c 0,31,32
 217 0 217 0 185 0 c 2,33,-1
 44 0 l 1,34,-1
 8 0 l 1,35,-1
 21 33 l 1,36,-1
 528 1298 l 1,37,-1
 535 1314 l 1,38,-1
 553 1314 l 1,39,-1
 748 1314 l 1,40,-1
 767 1314 l 1,41,-1
 773 1298 l 1,42,-1
 1279 54 l 1,43,-1
 1306 51 l 1,44,-1
 1381 43 l 1,45,-1
 1316 6 l 2,46,47
 1298 -4 1298 -4 1279 -18 c 0,48,49
 1262 -31 1262 -31 1247 -47 c 0,50,51
 1233 -63 1233 -63 1224 -83 c 0,52,53
 1216 -100 1216 -100 1216 -119 c 0,54,55
 1216 -144 1216 -144 1232 -157 c 0,56,57
 1249 -172 1249 -172 1277 -172 c 0,58,59
 1296 -172 1296 -172 1307 -169 c 0,60,61
 1319 -166 1319 -166 1327.5 -163 c 128,-1,62
 1336 -160 1336 -160 1340 -157 c 0,0,1
634 1007 m 2,63,-1
 450 513 l 1,64,-1
 851 513 l 1,65,-1
 667 1008 l 2,66,67
 659 1027 659 1027 650 1051 c 1,68,69
 642 1027 642 1027 634 1007 c 2,63,-1
EndSplineSet
Validated: 1
Substitution2: "sous-table 'c2sc' Capitales vers petites capitales lookups24" aogonek.smcp
Position2: "sous-table 'cpsp' Chasses pour composition en capitales lookups0" dx=40 dy=0 dh=80 dv=0
Ligature2: "sous-table 'ccmp' Composition et d+AOkA-composition de glyphe (CJK) lookups10" A uni0328
EndChar

StartChar: AE
Encoding: 198 198 5
Width: 1663
GlyphClass: 2
Flags: W
AnchorPoint: "Ancre-0" 892 1414 basechar 0
AnchorPoint: "Ancre-1" 892 89 basechar 0
AnchorPoint: "Ancre-2" 1563 1515 basechar 0
AnchorPoint: "Ancre-3" 1563 -510 basechar 0
AnchorPoint: "Ancre-5" 1563 1414 basechar 0
LayerCount: 2
Fore
SplineSet
652 1314 m 1,0,-1
 668 1314 l 1,1,-1
 1570 1314 l 1,2,-1
 1595 1314 l 1,3,-1
 1595 1289 l 1,4,-1
 1595 1141 l 1,5,-1
 1595 1116 l 1,6,-1
 1570 1116 l 1,7,-1
 966 1116 l 1,8,-1
 1011 760 l 1,9,-1
 1459 760 l 1,10,-1
 1484 760 l 1,11,-1
 1484 735 l 1,12,-1
 1484 592 l 1,13,-1
 1484 567 l 1,14,-1
 1459 567 l 1,15,-1
 1034 567 l 1,16,-1
 1080 198 l 1,17,-1
 1570 198 l 1,18,-1
 1595 198 l 1,19,-1
 1595 173 l 1,20,-1
 1595 25 l 1,21,-1
 1595 0 l 1,22,-1
 1570 0 l 1,23,-1
 896 0 l 1,24,-1
 872 0 l 1,25,-1
 870 22 l 1,26,-1
 829 333 l 1,27,-1
 393 333 l 1,28,-1
 251 53 l 2,29,30
 238 29 238 29 213 15 c 0,31,32
 189 0 189 0 157 0 c 2,33,-1
 19 0 l 1,34,-1
 -21 0 l 1,35,-1
 -4 34 l 1,36,-1
 645 1300 l 1,37,-1
 652 1314 l 1,0,-1
726 1034 m 2,38,-1
 479 513 l 1,39,-1
 808 513 l 1,40,-1
 742 1067 l 1,41,42
 734 1050 734 1050 726 1034 c 2,38,-1
EndSplineSet
Validated: 1
Substitution2: "sous-table 'c2sc' Capitales vers petites capitales lookups24" ae.smcp
Position2: "sous-table 'cpsp' Chasses pour composition en capitales lookups0" dx=40 dy=0 dh=80 dv=0
EndChar

StartChar: B
Encoding: 66 66 6
Width: 1214
GlyphClass: 2
Flags: W
AnchorPoint: "Ancre-5" 1114 1414 basechar 0
AnchorPoint: "Ancre-3" 1114 -510 basechar 0
AnchorPoint: "Ancre-2" 1114 1515 basechar 0
AnchorPoint: "Ancre-1" 513 10 basechar 0
AnchorPoint: "Ancre-0" 513 1414 basechar 0
LayerCount: 2
Fore
SplineSet
144 0 m 1,0,-1
 144 25 l 1,1,-1
 144 1289 l 1,2,-1
 144 1314 l 1,3,-1
 169 1314 l 1,4,-1
 590 1314 l 2,5,6
 723 1314 723 1314 820 1290 c 0,7,8
 915 1266 915 1266 972 1219 c 0,9,10
 1030 1172 1030 1172 1058 1106 c 0,11,12
 1085 1041 1085 1041 1085 959 c 0,13,14
 1085 909 1085 909 1069 862 c 0,15,16
 1053 815 1053 815 1022 775 c 0,17,18
 991 735 991 735 943 703 c 0,19,20
 925 691 925 691 903 680 c 1,21,22
 995 650 995 650 1050 592 c 0,23,24
 1126 512 1126 512 1126 385 c 0,25,26
 1126 299 1126 299 1095 228 c 0,27,28
 1064 157 1064 157 1004 106 c 0,29,30
 974 80 974 80 937 60.5 c 128,-1,31
 900 41 900 41 855 27 c 0,32,33
 760 0 760 0 638 0 c 2,34,-1
 169 0 l 1,35,-1
 144 0 l 1,0,-1
635 573 m 2,36,-1
 376 573 l 1,37,-1
 376 194 l 1,38,-1
 635 194 l 2,39,40
 707 194 707 194 758 209 c 0,41,42
 807 224 807 224 838 249 c 0,43,44
 868 274 868 274 882 310 c 0,45,46
 895 347 895 347 895 391 c 0,47,48
 895 476 895 476 835 524 c 0,49,50
 772 573 772 573 635 573 c 2,36,-1
376 1121 m 1,51,-1
 376 751 l 1,52,-1
 583 751 l 2,53,54
 653 751 653 751 704 765 c 0,55,56
 754 779 754 779 787 803 c 0,57,58
 819 826 819 826 835 860 c 0,59,60
 851 894 851 894 851 936 c 0,61,62
 851 1033 851 1033 791 1077 c 0,63,64
 729 1121 729 1121 590 1121 c 2,65,-1
 376 1121 l 1,51,-1
EndSplineSet
Validated: 1
Position2: "sous-table 'cpsp' Chasses pour composition en capitales lookups0" dx=40 dy=0 dh=80 dv=0
Substitution2: "sous-table 'sups' Exposant lookups25" B.superior
Substitution2: "sous-table 'c2sc' Capitales vers petites capitales lookups24" b.smcp
EndChar

StartChar: C
Encoding: 67 67 7
Width: 1192
GlyphClass: 2
Flags: W
AnchorPoint: "Ancre-5" 1092 1414 basechar 0
AnchorPoint: "Ancre-3" 1092 -510 basechar 0
AnchorPoint: "Ancre-2" 1092 1515 basechar 0
AnchorPoint: "Ancre-1" 648 -3 basechar 0
AnchorPoint: "Ancre-0" 648 1414 basechar 0
LayerCount: 2
Fore
SplineSet
982 304 m 2,0,1
 1005 324 1005 324 1029 324 c 128,-1,2
 1053 324 1053 324 1073 304 c 2,3,-1
 1145 226 l 1,4,-1
 1160 211 l 1,5,-1
 1147 194 l 2,6,7
 1072 95 1072 95 963 41 c 0,8,9
 848 -14 848 -14 684 -14 c 0,10,11
 538 -14 538 -14 420 36 c 0,12,13
 303 86 303 86 225 175 c 0,14,15
 148 264 148 264 108 387 c 0,16,17
 67 510 67 510 67 657 c 0,18,19
 67 805 67 805 110 927 c 0,20,21
 154 1050 154 1050 233 1140 c 0,22,23
 313 1230 313 1230 434 1279.5 c 128,-1,24
 555 1329 555 1329 700 1329 c 0,25,26
 845 1329 845 1329 952 1282 c 0,27,28
 1053 1235 1053 1235 1128 1154 c 2,29,-1
 1142 1139 l 1,30,-1
 1130 1122 l 1,31,-1
 1071 1039 l 2,32,33
 1062 1025 1062 1025 1049 1017 c 0,34,35
 1034 1007 1034 1007 1012 1007 c 0,36,37
 986 1007 986 1007 958 1031 c 0,38,39
 939 1048 939 1048 907 1069 c 0,40,41
 874 1089 874 1089 823 1106 c 0,42,43
 774 1122 774 1122 699 1122 c 0,44,45
 612 1122 612 1122 539.5 1091 c 128,-1,46
 467 1060 467 1060 415 1002 c 0,47,48
 362 942 362 942 332 856 c 0,49,50
 303 769 303 769 303 657 c 0,51,52
 303 545 303 545 334 457 c 0,53,54
 365 370 365 370 418 311 c 0,55,56
 471 253 471 253 543 222 c 0,57,58
 614 191 614 191 696 191 c 0,59,60
 748 191 748 191 789 198 c 0,61,62
 829 204 829 204 862.5 217.5 c 128,-1,63
 896 231 896 231 924 251 c 0,64,65
 952 272 952 272 980 302 c 2,66,-1
 981 303 l 1,67,-1
 982 304 l 2,0,1
EndSplineSet
Validated: 1
Position2: "sous-table 'cpsp' Chasses pour composition en capitales lookups0" dx=40 dy=0 dh=80 dv=0
Substitution2: "sous-table 'sups' Exposant lookups25" C.superior
Substitution2: "sous-table 'c2sc' Capitales vers petites capitales lookups24" c.smcp
EndChar

StartChar: Ccedilla
Encoding: 199 199 8
Width: 1192
GlyphClass: 2
Flags: W
AnchorPoint: "Ancre-0" 648 1414 basechar 0
AnchorPoint: "Ancre-1" 648 -300 basechar 0
AnchorPoint: "Ancre-2" 1092 1515 basechar 0
AnchorPoint: "Ancre-3" 1092 -510 basechar 0
AnchorPoint: "Ancre-5" 1092 1414 basechar 0
LayerCount: 2
Fore
SplineSet
520.5 -202.5 m 128,-1,1
 534 -193 534 -193 551 -193 c 0,2,3
 564 -193 564 -193 577 -199 c 0,4,5
 584 -202 584 -202 595 -206 c 0,6,7
 606 -210 606 -210 620 -212 c 0,8,9
 633 -215 633 -215 652 -215 c 0,10,11
 686 -215 686 -215 701 -204 c 0,12,13
 713 -196 713 -196 713 -183 c 0,14,15
 713 -172 713 -172 708 -166 c 128,-1,16
 703 -160 703 -160 687 -155 c 0,17,18
 646 -141 646 -141 568 -132 c 2,19,-1
 535 -128 l 1,20,-1
 546 -99 l 1,21,-1
 579 -6 l 1,22,23
 468 9 468 9 376 56 c 0,24,25
 274 110 274 110 206 198 c 0,26,27
 139 286 139 286 103 403 c 0,28,29
 67 519 67 519 67 657 c 0,30,31
 67 805 67 805 110 928 c 0,32,33
 154 1051 154 1051 233 1140 c 0,34,35
 313 1230 313 1230 434 1279.5 c 128,-1,36
 555 1329 555 1329 700 1329 c 0,37,38
 845 1329 845 1329 952 1282 c 0,39,40
 1053 1235 1053 1235 1128 1154 c 2,41,-1
 1142 1139 l 1,42,-1
 1130 1122 l 1,43,-1
 1071 1039 l 2,44,45
 1062 1025 1062 1025 1049 1017 c 0,46,47
 1034 1007 1034 1007 1012 1007 c 0,48,49
 986 1007 986 1007 958 1031 c 0,50,51
 939 1048 939 1048 907 1069 c 0,52,53
 874 1089 874 1089 823 1106 c 0,54,55
 774 1122 774 1122 699 1122 c 0,56,57
 612 1122 612 1122 539.5 1091 c 128,-1,58
 467 1060 467 1060 415 1001 c 0,59,60
 362 941 362 941 332 853 c 0,61,62
 303 765 303 765 303 653 c 0,63,64
 303 540 303 540 334 451 c 0,65,66
 365 363 365 363 418 304 c 0,67,68
 471 245 471 245 543 213 c 0,69,70
 614 182 614 182 696 182 c 0,71,72
 748 182 748 182 789 189 c 0,73,74
 829 195 829 195 862.5 207.5 c 128,-1,75
 896 220 896 220 924 240 c 0,76,77
 952 260 952 260 980 289 c 2,78,-1
 981 290 l 1,79,-1
 982 290 l 2,80,81
 1005 309 1005 309 1029 309.5 c 128,-1,82
 1053 310 1053 310 1073 291 c 2,83,-1
 1145 216 l 1,84,-1
 1160 201 l 1,85,-1
 1147 185 l 2,86,87
 1077 97 1077 97 978 45 c 0,88,89
 883 -3 883 -3 746 -12 c 1,90,-1
 741 -28 l 1,91,92
 824 -47 824 -47 866 -80 c 0,93,94
 918 -121 918 -121 918 -185 c 0,95,96
 918 -223 918 -223 897 -254 c 0,97,98
 877 -284 877 -284 842 -304 c 0,99,100
 808 -323 808 -323 761 -334 c 0,101,102
 715 -344 715 -344 662 -344 c 0,103,104
 616 -344 616 -344 574 -335.5 c 128,-1,105
 532 -327 532 -327 497 -312 c 2,106,-1
 475 -302 l 1,107,-1
 482 -281 l 1,108,-1
 501 -227 l 2,109,0
 507 -212 507 -212 520.5 -202.5 c 128,-1,1
EndSplineSet
Validated: 1
Substitution2: "sous-table 'c2sc' Capitales vers petites capitales lookups24" ccedilla.smcp
LCarets2: 1 0
Position2: "sous-table 'cpsp' Chasses pour composition en capitales lookups0" dx=40 dy=0 dh=80 dv=0
Ligature2: "sous-table 'ccmp' Composition et d+AOkA-composition de glyphe (CJK) lookups10" C uni0327
EndChar

StartChar: D
Encoding: 68 68 9
Width: 1360
GlyphClass: 2
Flags: W
AnchorPoint: "Ancre-5" 1260 1414 basechar 0
AnchorPoint: "Ancre-3" 1260 -510 basechar 0
AnchorPoint: "Ancre-2" 1260 1515 basechar 0
AnchorPoint: "Ancre-1" 578 10 basechar 0
AnchorPoint: "Ancre-0" 578 1414 basechar 0
LayerCount: 2
Fore
SplineSet
1247 924 m 0,0,1
 1292 803 1292 803 1292 657 c 0,2,3
 1292 510 1292 510 1247 390 c 0,4,5
 1202 269 1202 269 1120 182 c 0,6,7
 1037 95 1037 95 912 48 c 0,8,9
 850 24 850 24 781 12 c 0,10,11
 712 0 712 0 637 0 c 2,12,-1
 164 0 l 1,13,-1
 139 0 l 1,14,-1
 139 25 l 1,15,-1
 139 1289 l 1,16,-1
 139 1314 l 1,17,-1
 164 1314 l 1,18,-1
 637 1314 l 2,19,20
 788 1314 788 1314 912 1266 c 0,21,22
 1037 1218 1037 1218 1120 1132 c 0,23,24
 1202 1046 1202 1046 1247 924 c 0,0,1
1026 460 m 0,25,26
 1055 547 1055 547 1055 657 c 128,-1,27
 1055 767 1055 767 1026 853 c 0,28,29
 996 938 996 938 941 998 c 0,30,31
 887 1056 887 1056 810 1086 c 0,32,33
 733 1117 733 1117 637 1117 c 2,34,-1
 372 1117 l 1,35,-1
 372 197 l 1,36,-1
 637 197 l 2,37,38
 733 197 733 197 810 228 c 0,39,40
 887 258 887 258 941 316 c 0,41,42
 996 374 996 374 1026 460 c 0,25,26
EndSplineSet
Validated: 1
Position2: "sous-table 'cpsp' Chasses pour composition en capitales lookups0" dx=40 dy=0 dh=80 dv=0
Substitution2: "sous-table 'c2sc' Capitales vers petites capitales lookups24" d.smcp
Substitution2: "sous-table 'sups' Exposant lookups25" D.superior
EndChar

StartChar: E
Encoding: 69 69 11
Width: 1100
GlyphClass: 2
Flags: W
AnchorPoint: "Ancre-5" 1000 1414 basechar 0
AnchorPoint: "Ancre-3" 1000 -510 basechar 0
AnchorPoint: "Ancre-2" 1000 1515 basechar 0
AnchorPoint: "Ancre-1" 546 10 basechar 0
AnchorPoint: "Ancre-0" 546 1414 basechar 0
LayerCount: 2
Fore
SplineSet
1013 1314 m 1,0,-1
 1013 1289 l 1,1,-1
 1013 1141 l 1,2,-1
 1013 1116 l 1,3,-1
 988 1116 l 1,4,-1
 378 1116 l 1,5,-1
 378 760 l 1,6,-1
 874 760 l 1,7,-1
 899 760 l 1,8,-1
 899 735 l 1,9,-1
 899 592 l 1,10,-1
 899 567 l 1,11,-1
 874 567 l 1,12,-1
 378 567 l 1,13,-1
 378 198 l 1,14,-1
 989 198 l 1,15,-1
 1014 198 l 1,16,-1
 1014 173 l 1,17,-1
 1013 25 l 1,18,-1
 1013 -0 l 1,19,-1
 988 0 l 1,20,-1
 170 0 l 1,21,-1
 145 0 l 1,22,-1
 145 25 l 1,23,-1
 145 1289 l 1,24,-1
 145 1314 l 1,25,-1
 170 1314 l 1,26,-1
 988 1314 l 1,27,-1
 1013 1314 l 1,0,-1
EndSplineSet
Validated: 1
Position2: "sous-table 'cpsp' Chasses pour composition en capitales lookups0" dx=40 dy=0 dh=80 dv=0
Substitution2: "sous-table 'sups' Exposant lookups25" E.superior
Substitution2: "sous-table 'c2sc' Capitales vers petites capitales lookups24" e.smcp
EndChar

StartChar: Eogonek
Encoding: 280 280 12
Width: 1100
GlyphClass: 2
Flags: W
AnchorPoint: "Ancre-5" 1000 1414 basechar 0
AnchorPoint: "Ancre-3" 1000 -510 basechar 0
AnchorPoint: "Ancre-2" 1000 1515 basechar 0
AnchorPoint: "Ancre-1" 546 10 basechar 0
AnchorPoint: "Ancre-0" 546 1810 basechar 0
LayerCount: 2
Fore
SplineSet
937 -157 m 0,0,1
 949 -150 949 -150 961 -150 c 0,2,3
 974 -150 974 -150 985.5 -157.5 c 128,-1,4
 997 -165 997 -165 1002 -177 c 2,5,-1
 1029 -242 l 1,6,-1
 1036 -260 l 1,7,-1
 1021 -272 l 2,8,9
 989 -297 989 -297 940 -312 c 0,10,11
 892 -327 892 -327 838 -327 c 0,12,13
 738 -327 738 -327 675 -284 c 0,14,15
 609 -238 609 -238 608 -162 c 0,16,17
 608 -100 608 -100 655 -45 c 0,18,19
 675 -21 675 -21 700 0 c 1,20,-1
 170 0 l 1,21,-1
 145 0 l 1,22,-1
 145 25 l 1,23,-1
 145 1289 l 1,24,-1
 145 1314 l 1,25,-1
 170 1314 l 1,26,-1
 988 1314 l 1,27,-1
 1013 1314 l 1,28,-1
 1013 1289 l 1,29,-1
 1013 1141 l 1,30,-1
 1013 1116 l 1,31,-1
 988 1116 l 1,32,-1
 378 1116 l 1,33,-1
 378 760 l 1,34,-1
 874 760 l 1,35,-1
 899 760 l 1,36,-1
 899 735 l 1,37,-1
 899 592 l 1,38,-1
 899 567 l 1,39,-1
 874 567 l 1,40,-1
 378 567 l 1,41,-1
 378 198 l 1,42,-1
 989 198 l 1,43,-1
 1014 198 l 1,44,-1
 1014 173 l 1,45,-1
 1013 25 l 1,46,-1
 1013 -0 l 1,47,-1
 988 0 l 1,48,-1
 901 0 l 1,49,50
 887 -9 887 -9 872 -20 c 0,51,52
 855 -33 855 -33 841 -49 c 0,53,54
 828 -64 828 -64 820 -83 c 0,55,56
 813 -100 813 -100 813 -119 c 0,57,58
 813 -144 813 -144 828 -157 c 0,59,60
 845 -172 845 -172 874 -172 c 0,61,62
 893 -172 893 -172 904 -169 c 0,63,64
 916 -166 916 -166 924.5 -163 c 128,-1,65
 933 -160 933 -160 937 -157 c 0,0,1
EndSplineSet
Validated: 1
Substitution2: "sous-table 'c2sc' Capitales vers petites capitales lookups24" eogonek.smcp
Position2: "sous-table 'cpsp' Chasses pour composition en capitales lookups0" dx=40 dy=0 dh=80 dv=0
Ligature2: "sous-table 'ccmp' Composition et d+AOkA-composition de glyphe (CJK) lookups10" E uni0328
EndChar

StartChar: F
Encoding: 70 70 13
Width: 1041
GlyphClass: 2
Flags: W
AnchorPoint: "Ancre-5" 941 1414 basechar 0
AnchorPoint: "Ancre-3" 941 -510 basechar 0
AnchorPoint: "Ancre-2" 941 1515 basechar 0
AnchorPoint: "Ancre-1" 548 10 basechar 0
AnchorPoint: "Ancre-0" 548 1414 basechar 0
LayerCount: 2
Fore
SplineSet
982 1314 m 1,0,-1
 982 1289 l 1,1,-1
 982 1141 l 1,2,-1
 982 1116 l 1,3,-1
 957 1116 l 1,4,-1
 371 1116 l 1,5,-1
 371 736 l 1,6,-1
 873 736 l 1,7,-1
 898 736 l 1,8,-1
 898 711 l 1,9,-1
 898 563 l 1,10,-1
 898 538 l 1,11,-1
 873 538 l 1,12,-1
 371 538 l 1,13,-1
 371 25 l 1,14,-1
 371 0 l 1,15,-1
 346 0 l 1,16,-1
 163 0 l 1,17,-1
 138 0 l 1,18,-1
 138 25 l 1,19,-1
 138 1289 l 1,20,-1
 138 1314 l 1,21,-1
 163 1314 l 1,22,-1
 957 1314 l 1,23,-1
 982 1314 l 1,0,-1
EndSplineSet
Validated: 1
Position2: "sous-table 'cpsp' Chasses pour composition en capitales lookups0" dx=40 dy=0 dh=80 dv=0
Substitution2: "sous-table 'c2sc' Capitales vers petites capitales lookups24" f.smcp
Substitution2: "sous-table 'sups' Exposant lookups25" F.superior
EndChar

StartChar: G
Encoding: 71 71 14
Width: 1392
GlyphClass: 2
Flags: W
AnchorPoint: "Ancre-5" 1292 1414 basechar 0
AnchorPoint: "Ancre-3" 1292 -510 basechar 0
AnchorPoint: "Ancre-2" 1292 1515 basechar 0
AnchorPoint: "Ancre-1" 736 -3 basechar 0
AnchorPoint: "Ancre-0" 736 1414 basechar 0
LayerCount: 2
Fore
SplineSet
1285 658 m 1,0,-1
 1285 634 l 1,1,-1
 1285 147 l 1,2,-1
 1285 135 l 1,3,-1
 1275 128 l 2,4,5
 1225 93 1225 93 1172 66.5 c 128,-1,6
 1119 40 1119 40 1063 22 c 0,7,8
 944 -14 944 -14 804 -14 c 0,9,10
 634 -14 634 -14 496 35 c 0,11,12
 358 84 358 84 265 173 c 0,13,14
 174 262 174 262 126 386 c 0,15,16
 77 509 77 509 77 657 c 0,17,18
 77 806 77 806 124 929 c 0,19,20
 171 1053 171 1053 259 1142 c 0,21,22
 349 1231 349 1231 484 1280 c 0,23,24
 618 1329 618 1329 783 1329 c 0,25,26
 867 1329 867 1329 939 1317 c 0,27,28
 1011 1305 1011 1305 1070 1283 c 0,29,30
 1128 1261 1128 1261 1176 1228 c 0,31,32
 1224 1196 1224 1196 1266 1156 c 2,33,-1
 1281 1142 l 1,34,-1
 1270 1125 l 1,35,-1
 1219 1043 l 2,36,37
 1201 1015 1201 1015 1172 1007 c 0,38,39
 1142 1000 1142 1000 1110 1019 c 0,40,41
 1086 1033 1086 1033 1059 1051 c 0,42,43
 1033 1068 1033 1068 994 1083.5 c 128,-1,44
 955 1099 955 1099 902 1111 c 0,45,46
 849 1122 849 1122 776 1122 c 0,47,48
 670 1122 670 1122 583 1090 c 0,49,50
 498 1058 498 1058 438 998 c 0,51,52
 378 938 378 938 345 852 c 0,53,54
 313 765 313 765 313 657 c 0,55,56
 313 544 313 544 347 455 c 0,57,58
 381 367 381 367 444 307 c 0,59,60
 507 247 507 247 596 215 c 0,61,62
 686 183 686 183 798 183 c 0,63,64
 884 183 884 183 952 200 c 0,65,66
 1013 215 1013 215 1070 242 c 1,67,-1
 1070 470 l 1,68,-1
 896 470 l 2,69,70
 866 470 866 470 847 487 c 0,71,72
 826 504 826 504 826 530 c 2,73,-1
 826 633 l 1,74,-1
 826 658 l 1,75,-1
 853 658 l 1,76,-1
 1260 658 l 1,77,-1
 1285 658 l 1,0,-1
EndSplineSet
Validated: 1
Position2: "sous-table 'cpsp' Chasses pour composition en capitales lookups0" dx=40 dy=0 dh=80 dv=0
Substitution2: "sous-table 'sups' Exposant lookups25" G.superior
Substitution2: "sous-table 'c2sc' Capitales vers petites capitales lookups24" g.smcp
EndChar

StartChar: H
Encoding: 72 72 15
Width: 1376
GlyphClass: 2
Flags: W
AnchorPoint: "Ancre-5" 1276 1414 basechar 0
AnchorPoint: "Ancre-3" 1276 -510 basechar 0
AnchorPoint: "Ancre-2" 1276 1515 basechar 0
AnchorPoint: "Ancre-1" 638 10 basechar 0
AnchorPoint: "Ancre-0" 638 1414 basechar 0
LayerCount: 2
Fore
SplineSet
1236 0 m 1,0,-1
 1211 0 l 1,1,-1
 1028 0 l 1,2,-1
 1003 0 l 1,3,-1
 1003 25 l 1,4,-1
 1003 571 l 1,5,-1
 373 571 l 1,6,-1
 373 25 l 1,7,-1
 373 0 l 1,8,-1
 348 0 l 1,9,-1
 165 0 l 1,10,-1
 140 0 l 1,11,-1
 140 25 l 1,12,-1
 140 1289 l 1,13,-1
 140 1314 l 1,14,-1
 165 1314 l 1,15,-1
 348 1314 l 1,16,-1
 373 1314 l 1,17,-1
 373 1289 l 1,18,-1
 373 754 l 1,19,-1
 1003 754 l 1,20,-1
 1003 1289 l 1,21,-1
 1003 1314 l 1,22,-1
 1028 1314 l 1,23,-1
 1211 1314 l 1,24,-1
 1236 1314 l 1,25,-1
 1236 1289 l 1,26,-1
 1236 25 l 1,27,-1
 1236 0 l 1,0,-1
EndSplineSet
Validated: 1
Position2: "sous-table 'cpsp' Chasses pour composition en capitales lookups0" dx=40 dy=0 dh=80 dv=0
Substitution2: "sous-table 'sups' Exposant lookups25" H.superior
Substitution2: "sous-table 'c2sc' Capitales vers petites capitales lookups24" h.smcp
EndChar

StartChar: Hbar
Encoding: 294 294 16
Width: 1444
GlyphClass: 2
Flags: W
AnchorPoint: "Ancre-0" 672 1414 basechar 0
AnchorPoint: "Ancre-1" 672 10 basechar 0
AnchorPoint: "Ancre-2" 1345 1515 basechar 0
AnchorPoint: "Ancre-3" 1345 -510 basechar 0
AnchorPoint: "Ancre-5" 1345 1414 basechar 0
LayerCount: 2
Fore
SplineSet
1270 1289 m 1,0,-1
 1270 1069 l 1,1,-1
 1385 1069 l 1,2,-1
 1410 1069 l 1,3,-1
 1410 1045 l 1,4,-1
 1410 940 l 1,5,-1
 1410 916 l 1,6,-1
 1385 916 l 1,7,-1
 1270 916 l 1,8,-1
 1270 25 l 1,9,-1
 1270 0 l 1,10,-1
 1245 0 l 1,11,-1
 1056 0 l 1,12,-1
 1029 0 l 1,13,-1
 1029 25 l 1,14,-1
 1029 571 l 1,15,-1
 415 571 l 1,16,-1
 415 25 l 1,17,-1
 415 0 l 1,18,-1
 388 0 l 1,19,-1
 199 0 l 1,20,-1
 174 0 l 1,21,-1
 174 25 l 1,22,-1
 174 916 l 1,23,-1
 59 916 l 1,24,-1
 34 916 l 1,25,-1
 34 940 l 1,26,-1
 34 1045 l 1,27,-1
 34 1069 l 1,28,-1
 59 1069 l 1,29,-1
 174 1069 l 1,30,-1
 174 1289 l 1,31,-1
 174 1314 l 1,32,-1
 199 1314 l 1,33,-1
 388 1314 l 1,34,-1
 415 1314 l 1,35,-1
 415 1289 l 1,36,-1
 415 1060 l 1,37,-1
 1029 1060 l 1,38,-1
 1029 1289 l 1,39,-1
 1029 1314 l 1,40,-1
 1056 1314 l 1,41,-1
 1245 1314 l 1,42,-1
 1270 1314 l 1,43,-1
 1270 1289 l 1,0,-1
415 926 m 1,44,-1
 415 754 l 1,45,-1
 1029 754 l 1,46,-1
 1029 926 l 1,47,-1
 415 926 l 1,44,-1
EndSplineSet
Validated: 1
Substitution2: "sous-table 'c2sc' Capitales vers petites capitales lookups24" hbar.smcp
Position2: "sous-table 'cpsp' Chasses pour composition en capitales lookups0" dx=40 dy=0 dh=80 dv=0
EndChar

StartChar: I
Encoding: 73 73 17
Width: 566
GlyphClass: 2
Flags: W
AnchorPoint: "Ancre-5" 516 1414 basechar 0
AnchorPoint: "Ancre-3" 516 -510 basechar 0
AnchorPoint: "Ancre-2" 516 1515 basechar 0
AnchorPoint: "Ancre-1" 258 10 basechar 0
AnchorPoint: "Ancre-0" 258 1414 basechar 0
LayerCount: 2
Fore
SplineSet
399 0 m 1,0,-1
 374 0 l 1,1,-1
 192 0 l 1,2,-1
 167 0 l 1,3,-1
 167 25 l 1,4,-1
 167 1289 l 1,5,-1
 167 1314 l 1,6,-1
 192 1314 l 1,7,-1
 374 1314 l 1,8,-1
 399 1314 l 1,9,-1
 399 1289 l 1,10,-1
 399 25 l 1,11,-1
 399 0 l 1,0,-1
EndSplineSet
Validated: 1
Position2: "sous-table 'cpsp' Chasses pour composition en capitales lookups0" dx=40 dy=0 dh=80 dv=0
Substitution2: "sous-table 'sups' Exposant lookups25" I.superior
Substitution2: "sous-table 'c2sc' Capitales vers petites capitales lookups24" i.smcp
EndChar

StartChar: J
Encoding: 74 74 19
Width: 703
GlyphClass: 2
Flags: W
AnchorPoint: "Ancre-5" 653 1414 basechar 0
AnchorPoint: "Ancre-3" 653 -510 basechar 0
AnchorPoint: "Ancre-2" 653 1515 basechar 0
AnchorPoint: "Ancre-1" 191 -3 basechar 0
AnchorPoint: "Ancre-0" 444 1414 basechar 0
LayerCount: 2
Fore
SplineSet
589 1289 m 1,0,-1
 589 463 l 2,1,2
 589 354 589 354 567 267 c 0,3,4
 544 179 544 179 497 117 c 0,5,6
 449 54 449 54 378 21 c 0,7,8
 308 -14 308 -14 217 -14 c 0,9,10
 176 -14 176 -14 136.5 -8 c 128,-1,11
 97 -2 97 -2 53 11 c 2,12,-1
 34 17 l 1,13,-1
 35 37 l 2,14,15
 37 65 37 65 39.5 92.5 c 128,-1,16
 42 120 42 120 46 146 c 0,17,18
 49 169 49 169 64 185 c 0,19,20
 81 203 81 203 110 203 c 0,21,22
 127 203 127 203 152 194 c 0,23,24
 168 188 168 188 198 188 c 0,25,26
 274 188 274 188 314 248 c 0,27,28
 357 313 357 313 357 463 c 2,29,-1
 357 1289 l 1,30,-1
 357 1314 l 1,31,-1
 382 1314 l 1,32,-1
 564 1314 l 1,33,-1
 589 1314 l 1,34,-1
 589 1289 l 1,0,-1
EndSplineSet
Validated: 1
Position2: "sous-table 'cpsp' Chasses pour composition en capitales lookups0" dx=40 dy=0 dh=80 dv=0
Substitution2: "sous-table 'sups' Exposant lookups25" J.superior
Substitution2: "sous-table 'c2sc' Capitales vers petites capitales lookups24" j.smcp
EndChar

StartChar: K
Encoding: 75 75 20
Width: 1164
GlyphClass: 2
Flags: W
AnchorPoint: "Ancre-5" 1064 1414 basechar 0
AnchorPoint: "Ancre-3" 1064 -510 basechar 0
AnchorPoint: "Ancre-2" 1064 1515 basechar 0
AnchorPoint: "Ancre-1" 530 89 basechar 0
AnchorPoint: "Ancre-0" 530 1414 basechar 0
LayerCount: 2
Fore
SplineSet
356 1289 m 1,0,-1
 356 765 l 1,1,-1
 384 765 l 2,2,3
 410 765 410 765 425 771 c 0,4,5
 439 777 439 777 451 791 c 2,6,-1
 823 1263 l 1,7,-1
 824 1264 l 2,8,9
 848 1291 848 1291 875 1302 c 0,10,11
 902 1314 902 1314 939 1314 c 2,12,-1
 1095 1314 l 1,13,-1
 1143 1314 l 1,14,-1
 1115 1276 l 1,15,-1
 694 732 l 2,16,17
 673 708 673 708 652 691 c 1,18,19
 685 671 685 671 712 640 c 2,20,-1
 712 639 l 1,21,-1
 713 639 l 1,22,-1
 1145 37 l 1,23,-1
 1171 -0 l 1,24,-1
 1124 0 l 1,25,-1
 964 0 l 2,26,27
 923 0 923 0 899 15 c 0,28,29
 879 27 879 27 861 46 c 2,30,-1
 860 47 l 1,31,-1
 859 48 l 1,32,-1
 477 545 l 2,33,34
 463 562 463 562 449 568.5 c 128,-1,35
 435 575 435 575 401 575 c 2,36,-1
 356 575 l 1,37,-1
 356 25 l 1,38,-1
 356 0 l 1,39,-1
 331 0 l 1,40,-1
 149 0 l 1,41,-1
 124 0 l 1,42,-1
 124 25 l 1,43,-1
 124 1289 l 1,44,-1
 124 1314 l 1,45,-1
 149 1314 l 1,46,-1
 331 1314 l 1,47,-1
 356 1314 l 1,48,-1
 356 1289 l 1,0,-1
EndSplineSet
Validated: 1
Position2: "sous-table 'cpsp' Chasses pour composition en capitales lookups0" dx=40 dy=0 dh=80 dv=0
Substitution2: "sous-table 'sups' Exposant lookups25" K.superior
Substitution2: "sous-table 'c2sc' Capitales vers petites capitales lookups24" k.smcp
EndChar

StartChar: L
Encoding: 76 76 21
Width: 961
GlyphClass: 2
Flags: W
AnchorPoint: "Ancre-5" 861 1414 basechar 0
AnchorPoint: "Ancre-3" 861 -510 basechar 0
AnchorPoint: "Ancre-2" 861 1515 basechar 0
AnchorPoint: "Ancre-1" 470 10 basechar 0
AnchorPoint: "Ancre-0" 230 1414 basechar 0
LayerCount: 2
Fore
SplineSet
370 1289 m 1,0,-1
 370 203 l 1,1,-1
 902 203 l 1,2,-1
 927 203 l 1,3,-1
 927 178 l 1,4,-1
 927 25 l 1,5,-1
 927 0 l 1,6,-1
 902 0 l 1,7,-1
 163 0 l 1,8,-1
 138 0 l 1,9,-1
 138 25 l 1,10,-1
 138 1289 l 1,11,-1
 138 1314 l 1,12,-1
 163 1314 l 1,13,-1
 345 1314 l 1,14,-1
 370 1314 l 1,15,-1
 370 1289 l 1,0,-1
EndSplineSet
Validated: 1
Position2: "sous-table 'cpsp' Chasses pour composition en capitales lookups0" dx=40 dy=0 dh=80 dv=0
Substitution2: "sous-table 'sups' Exposant lookups25" L.superior
Substitution2: "sous-table 'c2sc' Capitales vers petites capitales lookups24" l.smcp
EndChar

StartChar: Lslash
Encoding: 321 321 22
Width: 980
GlyphClass: 2
Flags: W
AnchorPoint: "Ancre-0" 248 1414 basechar 0
AnchorPoint: "Ancre-1" 488 10 basechar 0
AnchorPoint: "Ancre-2" 879 1515 basechar 0
AnchorPoint: "Ancre-3" 879 -510 basechar 0
AnchorPoint: "Ancre-5" 879 1414 basechar 0
LayerCount: 2
Fore
SplineSet
443 1289 m 1,0,-1
 443 794 l 1,1,-1
 724 933 l 1,2,-1
 763 954 l 1,3,-1
 763 912 l 1,4,-1
 763 796 l 2,5,6
 763 755 763 755 725 735 c 2,7,-1
 443 593 l 1,8,-1
 443 203 l 1,9,-1
 957 203 l 1,10,-1
 982 203 l 1,11,-1
 982 178 l 1,12,-1
 982 25 l 1,13,-1
 982 0 l 1,14,-1
 957 0 l 1,15,-1
 218 0 l 1,16,-1
 193 0 l 1,17,-1
 193 25 l 1,18,-1
 193 472 l 1,19,-1
 70 407 l 1,20,-1
 33 387 l 1,21,-1
 33 428 l 1,22,-1
 33 549 l 2,23,24
 33 586 33 586 68 605 c 2,25,-1
 193 674 l 1,26,-1
 193 1289 l 1,27,-1
 193 1314 l 1,28,-1
 218 1314 l 1,29,-1
 415 1314 l 1,30,-1
 443 1314 l 1,31,-1
 443 1289 l 1,0,-1
EndSplineSet
Validated: 1
Substitution2: "sous-table 'c2sc' Capitales vers petites capitales lookups24" lslash.smcp
Position2: "sous-table 'cpsp' Chasses pour composition en capitales lookups0" dx=40 dy=0 dh=80 dv=0
EndChar

StartChar: M
Encoding: 77 77 24
Width: 1851
GlyphClass: 2
Flags: W
AnchorPoint: "Ancre-5" 1751 1414 basechar 0
AnchorPoint: "Ancre-3" 1751 -510 basechar 0
AnchorPoint: "Ancre-2" 1751 1515 basechar 0
AnchorPoint: "Ancre-1" 875 10 basechar 0
AnchorPoint: "Ancre-0" 875 1414 basechar 0
LayerCount: 2
Fore
SplineSet
412 1271 m 2,0,-1
 906 467 l 2,1,2
 919 446 919 446 929 422 c 1,3,4
 939 446 939 446 952 466 c 2,5,-1
 1439 1271 l 2,6,7
 1456 1300 1456 1300 1479 1308 c 0,8,9
 1497 1314 1497 1314 1525 1314 c 2,10,-1
 1659 1314 l 1,11,-1
 1684 1314 l 1,12,-1
 1684 1289 l 1,13,-1
 1684 25 l 1,14,-1
 1684 0 l 1,15,-1
 1659 0 l 1,16,-1
 1498 0 l 1,17,-1
 1473 0 l 1,18,-1
 1473 25 l 1,19,-1
 1473 975 l 1,20,-1
 1036 242 l 2,21,22
 1004 188 1004 188 944 188 c 2,23,-1
 917 188 l 2,24,25
 858 188 858 188 824 241 c 2,26,-1
 377 974 l 1,27,-1
 377 25 l 1,28,-1
 377 0 l 1,29,-1
 352 0 l 1,30,-1
 192 0 l 1,31,-1
 167 0 l 1,32,-1
 167 25 l 1,33,-1
 167 1289 l 1,34,-1
 167 1314 l 1,35,-1
 192 1314 l 1,36,-1
 326 1314 l 2,37,38
 354 1314 354 1314 371 1309 c 0,39,40
 394 1301 394 1301 412 1271 c 2,0,-1
EndSplineSet
Validated: 1
Position2: "sous-table 'cpsp' Chasses pour composition en capitales lookups0" dx=40 dy=0 dh=80 dv=0
Substitution2: "sous-table 'sups' Exposant lookups25" M.superior
Substitution2: "sous-table 'c2sc' Capitales vers petites capitales lookups24" m.smcp
EndChar

StartChar: N
Encoding: 78 78 25
Width: 1422
GlyphClass: 2
Flags: W
AnchorPoint: "Ancre-5" 1322 1414 basechar 0
AnchorPoint: "Ancre-3" 1322 -510 basechar 0
AnchorPoint: "Ancre-2" 1322 1515 basechar 0
AnchorPoint: "Ancre-1" 661 10 basechar 0
AnchorPoint: "Ancre-0" 661 1414 basechar 0
LayerCount: 2
Fore
SplineSet
173 1314 m 1,0,-1
 268 1314 l 2,1,2
 298 1314 298 1314 314 1307 c 0,3,4
 333 1298 333 1298 350 1273 c 2,5,-1
 1064 359 l 2,6,7
 1064 363 1064 363 1064 366 c 2,8,-1
 1064 1289 l 1,9,-1
 1064 1314 l 1,10,-1
 1089 1314 l 1,11,-1
 1249 1314 l 1,12,-1
 1274 1314 l 1,13,-1
 1274 1289 l 1,14,-1
 1274 25 l 1,15,-1
 1274 0 l 1,16,-1
 1249 0 l 1,17,-1
 1157 0 l 2,18,19
 1130 0 1130 0 1110 9 c 2,20,-1
 1110 10 l 1,21,-1
 1109 10 l 2,22,23
 1087 22 1087 22 1072 43 c 2,24,-1
 358 955 l 2,25,26
 358 954 358 954 358 953 c 2,27,-1
 358 25 l 1,28,-1
 358 0 l 1,29,-1
 333 0 l 1,30,-1
 173 0 l 1,31,-1
 148 0 l 1,32,-1
 148 25 l 1,33,-1
 148 1289 l 1,34,-1
 148 1314 l 1,35,-1
 173 1314 l 1,0,-1
EndSplineSet
Validated: 1
Position2: "sous-table 'cpsp' Chasses pour composition en capitales lookups0" dx=40 dy=0 dh=80 dv=0
Substitution2: "sous-table 'sups' Exposant lookups25" N.superior
Substitution2: "sous-table 'c2sc' Capitales vers petites capitales lookups24" n.smcp
EndChar

StartChar: Eng
Encoding: 330 330 26
Width: 1387
GlyphClass: 2
Flags: W
AnchorPoint: "Ancre-0" 626 1414 basechar 0
AnchorPoint: "Ancre-1" 626 10 basechar 0
AnchorPoint: "Ancre-2" 1287 1515 basechar 0
AnchorPoint: "Ancre-3" 1287 -510 basechar 0
AnchorPoint: "Ancre-5" 1287 1414 basechar 0
LayerCount: 2
Fore
SplineSet
1245 1289 m 1,0,-1
 1245 28 l 2,1,2
 1245 -47 1245 -47 1228 -110 c 0,3,4
 1211 -177 1211 -177 1173 -226 c 0,5,6
 1134 -275 1134 -275 1074 -302 c 0,7,8
 1015 -328 1015 -328 927 -328 c 0,9,10
 878 -328 878 -328 838 -319 c 0,11,12
 798 -310 798 -310 755 -293 c 2,13,-1
 734 -284 l 1,14,-1
 739 -264 l 1,15,-1
 759 -191 l 2,16,17
 767 -160 767 -160 788 -148 c 0,18,19
 806 -138 806 -138 827 -138 c 0,20,21
 844 -138 844 -138 868 -147 c 0,22,23
 882 -152 882 -152 912 -152 c 0,24,25
 974 -152 974 -152 1004 -114 c 0,26,27
 1035 -73 1035 -73 1035 15 c 2,28,-1
 1035 54 l 1,29,-1
 352 952 l 1,30,-1
 352 25 l 1,31,-1
 352 0 l 1,32,-1
 327 0 l 1,33,-1
 167 0 l 1,34,-1
 142 0 l 1,35,-1
 142 25 l 1,36,-1
 142 1289 l 1,37,-1
 142 1314 l 1,38,-1
 167 1314 l 1,39,-1
 262 1314 l 2,40,41
 290 1314 290 1314 307 1306 c 0,42,43
 325 1298 325 1298 344 1273 c 2,44,-1
 1035 363 l 2,45,46
 1035 365 1035 365 1035 366 c 2,47,-1
 1035 1289 l 1,48,-1
 1035 1314 l 1,49,-1
 1060 1314 l 1,50,-1
 1220 1314 l 1,51,-1
 1245 1314 l 1,52,-1
 1245 1289 l 1,0,-1
EndSplineSet
Validated: 1
Substitution2: "sous-table 'c2sc' Capitales vers petites capitales lookups24" eng.smcp
Substitution2: "sous-table 'ss03' Style 3 lookups33" Eng.ss03
Substitution2: "sous-table 'ss02' Style 2 lookups31" Eng.ss02
Substitution2: "sous-table 'ss01' Style 1 lookups29" Eng.ss01
Position2: "sous-table 'cpsp' Chasses pour composition en capitales lookups0" dx=40 dy=0 dh=80 dv=0
EndChar

StartChar: O
Encoding: 79 79 27
Width: 1456
GlyphClass: 2
Flags: W
AnchorPoint: "Ancre-5" 1356 1414 basechar 0
AnchorPoint: "Ancre-3" 1356 -510 basechar 0
AnchorPoint: "Ancre-2" 1356 1515 basechar 0
AnchorPoint: "Ancre-1" 678 0 basechar 0
AnchorPoint: "Ancre-0" 678 1414 basechar 0
LayerCount: 2
Fore
SplineSet
1339 926 m 0,0,1
 1384 803 1384 803 1384 657 c 0,2,3
 1384 510 1384 510 1339 388 c 0,4,5
 1294 265 1294 265 1211 175 c 0,6,7
 1127 85 1127 85 1003.5 35.5 c 128,-1,8
 880 -14 880 -14 729 -14 c 0,9,10
 580 -14 580 -14 455.5 36 c 128,-1,11
 331 86 331 86 246 175 c 0,12,13
 163 264 163 264 117 388 c 0,14,15
 72 511 72 511 72 657 c 0,16,17
 72 803 72 803 117 926 c 0,18,19
 163 1050 163 1050 246 1139 c 0,20,21
 330 1229 330 1229 455 1279 c 128,-1,22
 580 1329 580 1329 729 1329 c 0,23,24
 879 1329 879 1329 1003 1279 c 128,-1,25
 1127 1229 1127 1229 1211 1139 c 0,26,27
 1294 1050 1294 1050 1339 926 c 0,0,1
1118 460 m 0,28,29
 1148 547 1148 547 1148 657 c 128,-1,30
 1148 767 1148 767 1118 855 c 0,31,32
 1088 941 1088 941 1034 1000 c 0,33,34
 980 1059 980 1059 903 1090 c 0,35,36
 826 1122 826 1122 729.5 1122 c 128,-1,37
 633 1122 633 1122 555 1090 c 0,38,39
 478 1059 478 1059 424 1000 c 0,40,41
 369 941 369 941 339 855 c 0,42,43
 309 768 309 768 309 657.5 c 128,-1,44
 309 547 309 547 339 460 c 0,45,46
 369 374 369 374 424 314 c 0,47,48
 479 255 479 255 555 224 c 0,49,50
 632 193 632 193 729 193 c 128,-1,51
 826 193 826 193 903 224 c 0,52,53
 980 255 980 255 1034 314 c 0,54,55
 1088 374 1088 374 1118 460 c 0,28,29
EndSplineSet
Validated: 1
Position2: "sous-table 'cpsp' Chasses pour composition en capitales lookups0" dx=40 dy=0 dh=80 dv=0
Substitution2: "sous-table 'sups' Exposant lookups25" O.superior
Substitution2: "sous-table 'c2sc' Capitales vers petites capitales lookups24" o.smcp
EndChar

StartChar: Oslash
Encoding: 216 216 28
Width: 1459
GlyphClass: 2
Flags: W
AnchorPoint: "Ancre-5" 1359 1414 basechar 0
AnchorPoint: "Ancre-3" 1359 -510 basechar 0
AnchorPoint: "Ancre-2" 1359 1515 basechar 0
AnchorPoint: "Ancre-1" 681 0 basechar 0
AnchorPoint: "Ancre-0" 681 1414 basechar 0
LayerCount: 2
Fore
SplineSet
1338 937 m 0,0,1
 1387 811 1387 811 1387 657 c 0,2,3
 1387 510 1387 510 1342 388 c 0,4,5
 1296 265 1296 265 1213 175 c 0,6,7
 1129 85 1129 85 1004.5 35.5 c 128,-1,8
 880 -14 880 -14 730 -14 c 0,9,10
 631 -14 631 -14 544 8 c 0,11,12
 470 27 470 27 405 62 c 1,13,-1
 332 -38 l 2,14,15
 307 -72 307 -72 272 -87 c 0,16,17
 239 -100 239 -100 208 -100 c 2,18,-1
 136 -100 l 1,19,-1
 89 -100 l 1,20,-1
 115 -61 l 1,21,-1
 267 154 l 1,22,23
 178 241 178 241 127 362 c 0,24,25
 73 493 73 493 73 656 c 0,26,27
 73 802 73 802 118 925 c 0,28,29
 164 1049 164 1049 247 1139 c 0,30,31
 331 1229 331 1229 456 1279 c 128,-1,32
 581 1329 581 1329 730 1329 c 0,33,34
 837 1329 837 1329 931 1302 c 0,35,36
 1011 1297 1011 1297 1080 1289 c 1,37,-1
 1136 1316 l 2,38,39
 1146 1330 1146 1330 1154 1340 c 0,40,41
 1164 1352 1164 1352 1175 1359 c 0,42,43
 1187 1367 1187 1367 1202 1371 c 0,44,45
 1216 1374 1216 1374 1234 1374 c 2,46,-1
 1328 1374 l 1,47,-1
 1375 1374 l 1,48,-1
 1349 1335 l 1,49,-1
 1212 1141 l 1,50,51
 1293 1053 1293 1053 1338 937 c 0,0,1
339 840 m 0,52,53
 309 748 309 748 309 632 c 128,-1,54
 309 516 309 516 338 425 c 0,55,56
 361 355 361 355 400 300 c 1,57,-1
 953 1064 l 1,58,59
 912 1089 912 1089 864 1104 c 0,60,61
 803 1122 803 1122 730 1122 c 0,62,63
 634 1122 634 1122 556 1089 c 0,64,65
 479 1056 479 1056 424 994 c 0,66,67
 369 931 369 931 339 840 c 0,52,53
1120 474 m 0,68,69
 1150 566 1150 566 1150 682 c 0,70,71
 1150 788 1150 788 1125 873 c 0,72,73
 1106 937 1106 937 1075 988 c 1,74,-1
 532 237 l 1,75,76
 619 193 619 193 730 193 c 0,77,78
 827 193 827 193 904 226 c 0,79,80
 981 259 981 259 1036 320 c 0,81,82
 1090 383 1090 383 1120 474 c 0,68,69
EndSplineSet
Validated: 1
Substitution2: "sous-table 'c2sc' Capitales vers petites capitales lookups24" oslash.smcp
Position2: "sous-table 'cpsp' Chasses pour composition en capitales lookups0" dx=40 dy=0 dh=80 dv=0
EndChar

StartChar: OE
Encoding: 338 338 29
Width: 1875
GlyphClass: 2
Flags: W
AnchorPoint: "Ancre-0" 1069 1414 basechar 0
AnchorPoint: "Ancre-1" 1069 89 basechar 0
AnchorPoint: "Ancre-2" 1775 1515 basechar 0
AnchorPoint: "Ancre-3" 1775 -510 basechar 0
AnchorPoint: "Ancre-5" 1775 1414 basechar 0
LayerCount: 2
Fore
SplineSet
1795 1314 m 5,0,-1
 1795 1289 l 5,1,-1
 1795 1141 l 5,2,-1
 1795 1116 l 5,3,-1
 1770 1116 l 5,4,-1
 1237 1116 l 5,5,-1
 1237 760 l 5,6,-1
 1663 760 l 5,7,-1
 1688 760 l 5,8,-1
 1688 735 l 5,9,-1
 1688 592 l 5,10,-1
 1688 567 l 5,11,-1
 1663 567 l 5,12,-1
 1237 567 l 5,13,-1
 1237 190 l 5,14,-1
 1771 190 l 5,15,-1
 1796 190 l 5,16,-1
 1796 166 l 5,17,-1
 1795 25 l 5,18,-1
 1795 -0 l 5,19,-1
 1770 0 l 5,20,-1
 1044 0 l 5,21,-1
 1017 0 l 5,22,-1
 1017 25 l 5,23,-1
 1017 150 l 5,24,25
 986 117 986 117 952 91.5 c 132,-1,26
 918 66 918 66 879 45 c 4,27,28
 768 -13 768 -13 631 -13 c 4,29,30
 502 -13 502 -13 395 37 c 4,31,32
 290 87 290 87 217 177 c 4,33,34
 145 266 145 266 106 389 c 4,35,36
 67 511 67 511 67 657 c 4,37,38
 67 802 67 802 106 925 c 132,-1,39
 145 1048 145 1048 217 1138 c 4,40,41
 289 1229 289 1229 395 1279 c 4,42,43
 502 1329 502 1329 631 1329 c 4,44,45
 769 1329 769 1329 880 1270 c 4,46,47
 957 1229 957 1229 1017 1164 c 5,48,-1
 1017 1289 l 5,49,-1
 1017 1314 l 5,50,-1
 1044 1314 l 5,51,-1
 1770 1314 l 5,52,-1
 1795 1314 l 5,0,-1
969 458 m 4,53,54
 994 546 994 546 994 657 c 4,55,56
 994 659 994 659 995 661 c 4,57,58
 995 769 995 769 969 856 c 4,59,60
 944 943 944 943 899 1004 c 4,61,62
 855 1063 855 1063 791 1095 c 4,63,64
 728 1126 728 1126 649.5 1126 c 132,-1,65
 571 1126 571 1126 507 1095 c 132,-1,66
 443 1064 443 1064 399 1004 c 4,67,68
 353 943 353 943 328 856 c 4,69,70
 303 768 303 768 303 657 c 132,-1,71
 303 546 303 546 328 458 c 4,72,73
 353 371 353 371 399 311 c 4,74,75
 444 252 444 252 507 220 c 4,76,77
 570 189 570 189 649 189 c 132,-1,78
 728 189 728 189 791 220 c 132,-1,79
 854 251 854 251 899 311 c 132,-1,80
 944 371 944 371 969 458 c 4,53,54
EndSplineSet
Validated: 1
Substitution2: "sous-table 'c2sc' Capitales vers petites capitales lookups24" oe.smcp
Position2: "sous-table 'cpsp' Chasses pour composition en capitales lookups0" dx=40 dy=0 dh=80 dv=0
EndChar

StartChar: P
Encoding: 80 80 30
Width: 1158
GlyphClass: 2
Flags: W
AnchorPoint: "Ancre-5" 1058 1414 basechar 0
AnchorPoint: "Ancre-3" 1058 -510 basechar 0
AnchorPoint: "Ancre-2" 1058 1515 basechar 0
AnchorPoint: "Ancre-1" 516 10 basechar 0
AnchorPoint: "Ancre-0" 516 1414 basechar 0
LayerCount: 2
Fore
SplineSet
568 465 m 2,0,-1
 379 465 l 1,1,-1
 379 25 l 1,2,-1
 379 0 l 1,3,-1
 354 0 l 1,4,-1
 172 0 l 1,5,-1
 147 0 l 1,6,-1
 147 25 l 1,7,-1
 147 1289 l 1,8,-1
 147 1314 l 1,9,-1
 172 1314 l 1,10,-1
 568 1314 l 2,11,12
 707 1314 707 1314 811 1285 c 0,13,14
 909 1255 909 1255 971 1200 c 0,15,16
 1033 1145 1033 1145 1064 1066 c 0,17,18
 1094 989 1094 989 1094 893 c 0,19,20
 1094 799 1094 799 1062 721 c 0,21,22
 1029 642 1029 642 966 585 c 0,23,24
 903 528 903 528 805 496 c 0,25,26
 702 465 702 465 568 465 c 2,0,-1
379 1121 m 1,27,-1
 379 659 l 1,28,-1
 568 659 l 2,29,30
 642 659 642 659 698 676 c 0,31,32
 753 693 753 693 789.5 724 c 128,-1,33
 826 755 826 755 845 797 c 0,34,35
 862 840 862 840 862 893 c 0,36,37
 862 1003 862 1003 792 1062 c 0,38,39
 720 1121 720 1121 568 1121 c 2,40,-1
 379 1121 l 1,27,-1
EndSplineSet
Validated: 1
Position2: "sous-table 'cpsp' Chasses pour composition en capitales lookups0" dx=40 dy=0 dh=80 dv=0
Substitution2: "sous-table 'sups' Exposant lookups25" P.superior
Substitution2: "sous-table 'c2sc' Capitales vers petites capitales lookups24" p.smcp
EndChar

StartChar: Thorn
Encoding: 222 222 31
Width: 1158
GlyphClass: 2
Flags: W
LayerCount: 2
Fore
SplineSet
570 240 m 2,0,-1
 380 240 l 1,1,-1
 380 25 l 1,2,-1
 380 0 l 1,3,-1
 355 0 l 1,4,-1
 173 0 l 1,5,-1
 148 0 l 1,6,-1
 148 25 l 1,7,-1
 148 1289 l 1,8,-1
 148 1314 l 1,9,-1
 173 1314 l 1,10,-1
 355 1314 l 1,11,-1
 380 1314 l 1,12,-1
 380 1289 l 1,13,-1
 380 1081 l 1,14,-1
 570 1081 l 2,15,16
 709 1081 709 1081 814 1052 c 0,17,18
 912 1022 912 1022 974 968 c 0,19,20
 1036 913 1036 913 1067 835 c 0,21,22
 1097 758 1097 758 1097 665 c 0,23,24
 1097 572 1097 572 1065 494 c 0,25,26
 1032 416 1032 416 969 359 c 0,27,28
 906 302 906 302 807 271 c 0,29,30
 704 240 704 240 570 240 c 2,0,-1
380 905 m 1,31,-1
 380 418 l 1,32,-1
 570 418 l 2,33,34
 645 418 645 418 701 436 c 0,35,36
 756 454 756 454 792.5 486.5 c 128,-1,37
 829 519 829 519 848 564 c 0,38,39
 865 610 865 610 865 665 c 0,40,41
 865 779 865 779 795 842 c 0,42,43
 723 905 723 905 570 905 c 2,44,-1
 380 905 l 1,31,-1
EndSplineSet
Validated: 1
Substitution2: "sous-table 'c2sc' Capitales vers petites capitales lookups24" thorn.smcp
Position2: "sous-table 'cpsp' Chasses pour composition en capitales lookups0" dx=40 dy=0 dh=80 dv=0
EndChar

StartChar: Q
Encoding: 81 81 32
Width: 1478
GlyphClass: 2
Flags: W
AnchorPoint: "Ancre-5" 1378 1414 basechar 0
AnchorPoint: "Ancre-3" 1378 -510 basechar 0
AnchorPoint: "Ancre-2" 1378 1515 basechar 0
AnchorPoint: "Ancre-1" 690 -3 basechar 0
AnchorPoint: "Ancre-0" 690 1414 basechar 0
LayerCount: 2
Fore
SplineSet
1122 460 m 0,0,1
 1152 547 1152 547 1152 657 c 128,-1,2
 1152 767 1152 767 1122 855 c 0,3,4
 1092 941 1092 941 1038 1000 c 128,-1,5
 984 1059 984 1059 908 1090 c 0,6,7
 832 1122 832 1122 736.5 1122 c 128,-1,8
 641 1122 641 1122 564 1090 c 0,9,10
 488 1059 488 1059 434 1000 c 0,11,12
 379 941 379 941 349 855 c 0,13,14
 320 768 320 768 320 657.5 c 128,-1,15
 320 547 320 547 349 460 c 0,16,17
 379 374 379 374 434 314 c 0,18,19
 488 255 488 255 564 224 c 0,20,21
 641 193 641 193 736.5 193 c 128,-1,22
 832 193 832 193 908 224 c 128,-1,23
 984 255 984 255 1038 314 c 0,24,25
 1092 374 1092 374 1122 460 c 0,0,1
1350 924 m 128,-1,27
 1395 800 1395 800 1395 654 c 0,28,29
 1395 480 1395 480 1334 342 c 0,30,31
 1277 216 1277 216 1175 129 c 1,32,-1
 1505 -230 l 1,33,-1
 1541 -271 l 1,34,-1
 1486 -271 l 1,35,-1
 1335 -271 l 2,36,37
 1297 -271 1297 -271 1265 -259 c 0,38,39
 1232 -247 1232 -247 1205 -220 c 2,40,-1
 1204 -219 l 1,41,-1
 980 27 l 1,42,43
 867 -14 867 -14 736 -14 c 0,44,45
 588 -14 588 -14 465 36 c 128,-1,46
 342 86 342 86 257 175 c 0,47,48
 174 264 174 264 128 388 c 0,49,50
 83 511 83 511 83 657 c 128,-1,51
 83 803 83 803 128 926 c 0,52,53
 174 1050 174 1050 257 1139 c 0,54,55
 341 1229 341 1229 464.5 1279 c 128,-1,56
 588 1329 588 1329 736 1329 c 0,57,58
 885 1329 885 1329 1008 1279 c 128,-1,59
 1131 1229 1131 1229 1218 1138 c 0,60,26
 1305 1048 1305 1048 1350 924 c 128,-1,27
EndSplineSet
Validated: 1
Position2: "sous-table 'cpsp' Chasses pour composition en capitales lookups0" dx=40 dy=0 dh=80 dv=0
Substitution2: "sous-table 'sups' Exposant lookups25" Q.superior
Substitution2: "sous-table 'c2sc' Capitales vers petites capitales lookups24" q.smcp
EndChar

StartChar: R
Encoding: 82 82 33
Width: 1212
GlyphClass: 2
Flags: W
AnchorPoint: "Ancre-5" 1112 1414 basechar 0
AnchorPoint: "Ancre-3" 1112 -510 basechar 0
AnchorPoint: "Ancre-2" 1112 1515 basechar 0
AnchorPoint: "Ancre-1" 516 10 basechar 0
AnchorPoint: "Ancre-0" 516 1414 basechar 0
LayerCount: 2
Fore
SplineSet
484 521 m 2,0,-1
 379 521 l 1,1,-1
 379 25 l 1,2,-1
 379 0 l 1,3,-1
 354 0 l 1,4,-1
 172 0 l 1,5,-1
 147 0 l 1,6,-1
 147 25 l 1,7,-1
 147 1289 l 1,8,-1
 147 1314 l 1,9,-1
 172 1314 l 1,10,-1
 546 1314 l 2,11,12
 682 1314 682 1314 781 1288 c 0,13,14
 883 1262 883 1262 949 1213 c 0,15,16
 1011 1163 1011 1163 1040 1093 c 0,17,18
 1069 1024 1069 1024 1069 938 c 0,19,20
 1069 868 1069 868 1047 806 c 0,21,22
 1025 744 1025 744 984 695 c 0,23,24
 941 646 941 646 876 610 c 0,25,26
 833 587 833 587 780 570 c 1,27,28
 796 556 796 556 811 539 c 2,29,-1
 1178 38 l 1,30,-1
 1204 -0 l 1,31,-1
 1157 0 l 1,32,-1
 995 0 l 2,33,34
 933 0 933 0 896 46 c 2,35,-1
 555 492 l 2,36,37
 542 508 542 508 529 515 c 0,38,39
 515 521 515 521 484 521 c 2,0,-1
379 1121 m 1,40,-1
 379 704 l 1,41,-1
 538 704 l 2,42,43
 612 704 612 704 668 720 c 0,44,45
 722 736 722 736 758 765 c 0,46,47
 794 793 794 793 812 833 c 0,48,49
 830 874 830 874 831 923 c 0,50,51
 831 1024 831 1024 762.5 1072.5 c 128,-1,52
 694 1121 694 1121 546 1121 c 2,53,-1
 379 1121 l 1,40,-1
EndSplineSet
Validated: 1
Position2: "sous-table 'cpsp' Chasses pour composition en capitales lookups0" dx=40 dy=0 dh=80 dv=0
Substitution2: "sous-table 'sups' Exposant lookups25" R.superior
Substitution2: "sous-table 'c2sc' Capitales vers petites capitales lookups24" r.smcp
EndChar

StartChar: S
Encoding: 83 83 34
Width: 1041
GlyphClass: 2
Flags: W
AnchorPoint: "Ancre-5" 941 1414 basechar 0
AnchorPoint: "Ancre-3" 941 -510 basechar 0
AnchorPoint: "Ancre-2" 941 1515 basechar 0
AnchorPoint: "Ancre-1" 450 0 basechar 0
AnchorPoint: "Ancre-0" 498 1414 basechar 0
LayerCount: 2
Fore
SplineSet
945 1155 m 1,0,-1
 900 1070 l 2,1,2
 878 1029 878 1029 837 1029 c 0,3,4
 814 1029 814 1029 787 1050 c 0,5,6
 767 1065 767 1065 738 1082 c 0,7,8
 708 1099 708 1099 664 1114 c 0,9,10
 622 1128 622 1128 562 1128 c 0,11,12
 505 1128 505 1128 462 1115 c 0,13,14
 421 1102 421 1102 394 1079 c 128,-1,15
 367 1056 367 1056 354 1026 c 0,16,17
 340 995 340 995 340 960 c 0,18,19
 340 915 340 915 363 886 c 0,20,21
 389 856 389 856 431 834 c 0,22,23
 475 811 475 811 533 794 c 0,24,25
 593 776 593 776 655 756 c 0,26,27
 719 736 719 736 774 712 c 0,28,29
 830 686 830 686 875 647 c 0,30,31
 920 607 920 607 947 549 c 0,32,33
 975 491 975 491 975 408 c 0,34,35
 975 320 975 320 946 244 c 0,36,37
 916 167 916 167 858.5 109.5 c 128,-1,38
 801 52 801 52 717 20 c 0,39,40
 624 -14 624 -14 505 -14 c 0,41,42
 362 -14 362 -14 248 35 c 0,43,44
 142 84 142 84 68 166 c 2,45,-1
 55 180 l 1,46,-1
 65 196 l 1,47,-1
 118 282 l 2,48,49
 128 298 128 298 143 308 c 0,50,51
 160 318 160 318 181 318 c 0,52,53
 209 318 209 318 240 291 c 0,54,55
 262 271 262 271 296 248 c 0,56,57
 333 225 333 225 386 206 c 0,58,59
 437 187 437 187 509 187 c 0,60,61
 569 187 569 187 616 202 c 0,62,63
 661 216 661 216 692.5 242 c 128,-1,64
 724 268 724 268 739 305 c 0,65,66
 754 343 754 343 754 389 c 0,67,68
 754 438 754 438 733 468 c 0,69,70
 708 500 708 500 666 522 c 0,71,72
 622 545 622 545 565 561 c 0,73,74
 505 578 505 578 442 596 c 0,75,76
 378 615 378 615 318 638 c 0,77,78
 259 663 259 663 214 705 c 0,79,80
 169 747 169 747 141.5 807.5 c 128,-1,81
 114 868 114 868 114 957 c 0,82,83
 114 1028 114 1028 142 1095 c 0,84,85
 170 1162 170 1162 223 1213.5 c 128,-1,86
 276 1265 276 1265 360 1297 c 0,87,88
 447 1329 447 1329 559 1329 c 0,89,90
 683 1329 683 1329 781 1292 c 0,91,92
 874 1255 874 1255 941 1184 c 2,93,-1
 954 1171 l 1,94,-1
 945 1155 l 1,0,-1
EndSplineSet
Validated: 1
Position2: "sous-table 'cpsp' Chasses pour composition en capitales lookups0" dx=40 dy=0 dh=80 dv=0
Substitution2: "sous-table 'sups' Exposant lookups25" S.superior
Substitution2: "sous-table 'c2sc' Capitales vers petites capitales lookups24" s.smcp
EndChar

StartChar: Scedilla
Encoding: 350 350 35
Width: 1041
GlyphClass: 2
Flags: W
AnchorPoint: "Ancre-5" 941 1414 basechar 0
AnchorPoint: "Ancre-3" 941 -510 basechar 0
AnchorPoint: "Ancre-2" 941 1515 basechar 0
AnchorPoint: "Ancre-1" 450 -300 basechar 0
AnchorPoint: "Ancre-0" 498 1414 basechar 0
LayerCount: 2
Fore
SplineSet
382.5 -202.5 m 128,-1,1
 396 -193 396 -193 414 -193 c 0,2,3
 427 -193 427 -193 442 -199 c 0,4,5
 449 -202 449 -202 460 -206 c 0,6,7
 471 -210 471 -210 486 -212 c 0,8,9
 499 -215 499 -215 520 -215 c 0,10,11
 556 -215 556 -215 571 -204 c 0,12,13
 583 -196 583 -196 583 -183 c 0,14,15
 583 -172 583 -172 577.5 -166 c 128,-1,16
 572 -160 572 -160 556 -155 c 0,17,18
 513 -141 513 -141 432 -132 c 2,19,-1
 398 -128 l 1,20,-1
 409 -99 l 1,21,-1
 442 -11 l 1,22,23
 327 -1 327 -1 238 40 c 0,24,25
 138 88 138 88 67 166 c 2,26,-1
 55 180 l 1,27,-1
 65 196 l 1,28,-1
 118 282 l 2,29,30
 128 298 128 298 143 308 c 0,31,32
 160 318 160 318 181 318 c 0,33,34
 209 318 209 318 240 291 c 0,35,36
 262 271 262 271 296 248 c 0,37,38
 333 225 333 225 386 206 c 0,39,40
 437 187 437 187 509 187 c 0,41,42
 569 187 569 187 616 202 c 0,43,44
 661 216 661 216 692.5 242 c 128,-1,45
 724 268 724 268 739 305 c 0,46,47
 754 343 754 343 754 389 c 0,48,49
 754 438 754 438 733 468 c 0,50,51
 708 500 708 500 666 522 c 0,52,53
 622 545 622 545 565 561 c 0,54,55
 505 578 505 578 442 596 c 0,56,57
 378 615 378 615 318 638 c 0,58,59
 259 663 259 663 214 705 c 0,60,61
 169 747 169 747 141.5 807.5 c 128,-1,62
 114 868 114 868 114 957 c 0,63,64
 114 1028 114 1028 142 1095 c 0,65,66
 170 1162 170 1162 223 1213.5 c 128,-1,67
 276 1265 276 1265 360 1297 c 0,68,69
 447 1329 447 1329 559 1329 c 0,70,71
 683 1329 683 1329 781 1292 c 0,72,73
 874 1255 874 1255 941 1184 c 2,74,-1
 954 1171 l 1,75,-1
 945 1155 l 1,76,-1
 900 1070 l 2,77,78
 878 1029 878 1029 837 1029 c 0,79,80
 814 1029 814 1029 786 1050 c 0,81,82
 766 1065 766 1065 738 1082 c 0,83,84
 708 1099 708 1099 664 1114 c 0,85,86
 622 1128 622 1128 561 1128 c 0,87,88
 504 1128 504 1128 462 1115 c 0,89,90
 421 1102 421 1102 394 1079 c 128,-1,91
 367 1056 367 1056 354 1026 c 0,92,93
 340 995 340 995 340 959 c 0,94,95
 340 914 340 914 363 886 c 0,96,97
 389 856 389 856 431 834 c 0,98,99
 475 811 475 811 533 793 c 0,100,101
 593 775 593 775 655 756 c 0,102,103
 719 736 719 736 774 711 c 0,104,105
 830 685 830 685 875 646 c 0,106,107
 920 606 920 606 947 548 c 0,108,109
 975 490 975 490 975 407 c 0,110,111
 975 329 975 329 951 260 c 0,112,113
 927 190 927 190 881.5 135 c 128,-1,114
 836 80 836 80 769 43 c 0,115,116
 706 9 706 9 620 -4 c 1,117,-1
 612 -28 l 1,118,119
 698 -47 698 -47 740 -80 c 0,120,121
 788 -121 788 -121 788 -185 c 0,122,123
 788 -223 788 -223 769 -254 c 0,124,125
 750 -284 750 -284 716 -304 c 0,126,127
 681 -323 681 -323 633 -334 c 0,128,129
 586 -344 586 -344 530 -344 c 0,130,131
 483 -344 483 -344 439 -335.5 c 128,-1,132
 395 -327 395 -327 358 -312 c 2,133,-1
 336 -302 l 1,134,-1
 343 -281 l 1,135,-1
 363 -227 l 2,136,0
 369 -212 369 -212 382.5 -202.5 c 128,-1,1
EndSplineSet
Validated: 1
Substitution2: "sous-table 'c2sc' Capitales vers petites capitales lookups24" scedilla.smcp
LCarets2: 1 0
Position2: "sous-table 'cpsp' Chasses pour composition en capitales lookups0" dx=40 dy=0 dh=80 dv=0
Ligature2: "sous-table 'ccmp' Composition et d+AOkA-composition de glyphe (CJK) lookups10" S uni0327
Substitution2: "sous-table 'salt' Alternatives stylistiques dans Latin lookup 8" uni0218
EndChar

StartChar: T
Encoding: 84 84 36
Width: 1098
GlyphClass: 2
Flags: W
AnchorPoint: "Ancre-5" 998 1414 basechar 0
AnchorPoint: "Ancre-3" 998 -510 basechar 0
AnchorPoint: "Ancre-2" 998 1515 basechar 0
AnchorPoint: "Ancre-1" 499 0 basechar 0
AnchorPoint: "Ancre-0" 499 1414 basechar 0
LayerCount: 2
Fore
SplineSet
1074 1314 m 1,0,-1
 1074 1289 l 1,1,-1
 1074 1137 l 1,2,-1
 1074 1112 l 1,3,-1
 1049 1112 l 1,4,-1
 678 1112 l 1,5,-1
 678 25 l 1,6,-1
 678 0 l 1,7,-1
 650 0 l 1,8,-1
 449 0 l 1,9,-1
 422 0 l 1,10,-1
 422 25 l 1,11,-1
 422 1112 l 1,12,-1
 49 1112 l 1,13,-1
 24 1112 l 1,14,-1
 24 1137 l 1,15,-1
 24 1289 l 1,16,-1
 24 1314 l 1,17,-1
 49 1314 l 1,18,-1
 1049 1314 l 1,19,-1
 1074 1314 l 1,0,-1
EndSplineSet
Validated: 1
Position2: "sous-table 'cpsp' Chasses pour composition en capitales lookups0" dx=40 dy=0 dh=80 dv=0
Substitution2: "sous-table 'sups' Exposant lookups25" T.superior
Substitution2: "sous-table 'c2sc' Capitales vers petites capitales lookups24" t.smcp
EndChar

StartChar: Tbar
Encoding: 358 358 37
Width: 1098
GlyphClass: 2
Flags: W
AnchorPoint: "Ancre-0" 499 1414 basechar 0
AnchorPoint: "Ancre-1" 499 0 basechar 0
AnchorPoint: "Ancre-2" 998 1515 basechar 0
AnchorPoint: "Ancre-3" 998 -510 basechar 0
AnchorPoint: "Ancre-5" 998 1414 basechar 0
LayerCount: 2
Fore
SplineSet
1074 1314 m 1,0,-1
 1074 1289 l 1,1,-1
 1074 1137 l 1,2,-1
 1074 1112 l 1,3,-1
 1049 1112 l 1,4,-1
 678 1112 l 1,5,-1
 678 806 l 1,6,-1
 976 806 l 1,7,-1
 1001 806 l 1,8,-1
 1001 781 l 1,9,-1
 1001 674 l 1,10,-1
 1001 649 l 1,11,-1
 976 649 l 1,12,-1
 678 649 l 1,13,-1
 678 25 l 1,14,-1
 678 0 l 1,15,-1
 650 0 l 1,16,-1
 449 0 l 1,17,-1
 422 0 l 1,18,-1
 422 25 l 1,19,-1
 422 649 l 1,20,-1
 200 649 l 1,21,-1
 175 649 l 1,22,-1
 175 674 l 1,23,-1
 175 781 l 1,24,-1
 175 806 l 1,25,-1
 200 806 l 1,26,-1
 422 806 l 1,27,-1
 422 1112 l 1,28,-1
 49 1112 l 1,29,-1
 24 1112 l 1,30,-1
 24 1137 l 1,31,-1
 24 1289 l 1,32,-1
 24 1314 l 1,33,-1
 49 1314 l 1,34,-1
 1049 1314 l 1,35,-1
 1074 1314 l 1,0,-1
EndSplineSet
Validated: 1
Substitution2: "sous-table 'c2sc' Capitales vers petites capitales lookups24" tbar.smcp
Position2: "sous-table 'cpsp' Chasses pour composition en capitales lookups0" dx=40 dy=0 dh=80 dv=0
EndChar

StartChar: U
Encoding: 85 85 38
Width: 1414
GlyphClass: 2
Flags: W
AnchorPoint: "Ancre-5" 1314 1414 basechar 0
AnchorPoint: "Ancre-3" 1314 -510 basechar 0
AnchorPoint: "Ancre-2" 1314 1515 basechar 0
AnchorPoint: "Ancre-1" 657 0 basechar 0
AnchorPoint: "Ancre-0" 657 1414 basechar 0
LayerCount: 2
Fore
SplineSet
564 218 m 0,0,1
 627 194 627 194 707 194 c 128,-1,2
 787 194 787 194 850 218 c 0,3,4
 912 242 912 242 954 286 c 0,5,6
 997 330 997 330 1020 390 c 0,7,8
 1042 451 1042 451 1042 526 c 2,9,-1
 1042 1289 l 1,10,-1
 1042 1314 l 1,11,-1
 1067 1314 l 1,12,-1
 1249 1314 l 1,13,-1
 1274 1314 l 1,14,-1
 1274 1289 l 1,15,-1
 1274 520 l 2,16,17
 1274 406 1274 406 1236 309 c 0,18,19
 1198 211 1198 211 1128.5 139 c 128,-1,20
 1059 67 1059 67 952 26 c 0,21,22
 843 -15 843 -15 707 -15 c 128,-1,23
 571 -15 571 -15 463 26 c 0,24,25
 357 67 357 67 286 139 c 128,-1,26
 215 211 215 211 178 309 c 0,27,28
 140 406 140 406 140 520 c 2,29,-1
 140 1289 l 1,30,-1
 140 1314 l 1,31,-1
 165 1314 l 1,32,-1
 347 1314 l 1,33,-1
 372 1314 l 1,34,-1
 372 1289 l 1,35,-1
 372 527 l 2,36,37
 372 452 372 452 394 390 c 0,38,39
 417 329 417 329 460 286 c 0,40,41
 502 242 502 242 564 218 c 0,0,1
EndSplineSet
Validated: 1
Position2: "sous-table 'cpsp' Chasses pour composition en capitales lookups0" dx=40 dy=0 dh=80 dv=0
Substitution2: "sous-table 'sups' Exposant lookups25" U.superior
Substitution2: "sous-table 'c2sc' Capitales vers petites capitales lookups24" u.smcp
EndChar

StartChar: Uogonek
Encoding: 370 370 39
Width: 1414
GlyphClass: 2
Flags: W
AnchorPoint: "Ancre-5" 1314 1414 basechar 0
AnchorPoint: "Ancre-3" 1314 -510 basechar 0
AnchorPoint: "Ancre-2" 1314 1515 basechar 0
AnchorPoint: "Ancre-1" 657 -300 basechar 0
AnchorPoint: "Ancre-0" 657 1810 basechar 0
LayerCount: 2
Fore
SplineSet
857 -157 m 0,0,1
 870 -150 870 -150 883 -150 c 0,2,3
 897 -150 897 -150 909.5 -157.5 c 128,-1,4
 922 -165 922 -165 927 -177 c 2,5,-1
 957 -242 l 1,6,-1
 965 -260 l 1,7,-1
 948 -272 l 2,8,9
 913 -297 913 -297 860 -312 c 0,10,11
 808 -327 808 -327 749 -327 c 0,12,13
 647 -327 647 -327 588 -284 c 0,14,15
 525 -238 525 -238 525 -162 c 0,16,17
 525 -104 525 -104 562 -54 c 0,18,19
 580 -30 580 -30 603 -8 c 1,20,21
 514 4 514 4 439 35 c 0,22,23
 341 78 341 78 275 150 c 0,24,25
 210 221 210 221 175 316 c 0,26,27
 140 410 140 410 140 521 c 2,28,-1
 140 1289 l 1,29,-1
 140 1314 l 1,30,-1
 165 1314 l 1,31,-1
 347 1314 l 1,32,-1
 372 1314 l 1,33,-1
 372 1289 l 1,34,-1
 372 492 l 2,35,36
 372 414 372 414 394 349 c 0,37,38
 417 285 417 285 460 240 c 0,39,40
 503 195 503 195 564 169 c 0,41,42
 627 144 627 144 707 144 c 128,-1,43
 787 144 787 144 850 169 c 0,44,45
 912 194 912 194 954 240 c 0,46,47
 997 286 997 286 1020 349 c 0,48,49
 1042 413 1042 413 1042 491 c 2,50,-1
 1042 1289 l 1,51,-1
 1042 1314 l 1,52,-1
 1067 1314 l 1,53,-1
 1249 1314 l 1,54,-1
 1274 1314 l 1,55,-1
 1274 1289 l 1,56,-1
 1274 521 l 2,57,58
 1274 417 1274 417 1243 326 c 0,59,60
 1212 235 1212 235 1152 164 c 0,61,62
 1092 93 1092 93 1005 48 c 0,63,64
 915 4 915 4 802 -9 c 1,65,66
 787 -18 787 -18 775 -29 c 0,67,68
 760 -41 760 -41 748 -56 c 0,69,70
 736 -71 736 -71 729 -87 c 0,71,72
 722 -102 722 -102 722 -119 c 0,73,74
 722 -144 722 -144 739 -157 c 0,75,76
 757 -172 757 -172 788 -172 c 0,77,78
 809 -172 809 -172 821 -169 c 0,79,80
 834 -166 834 -166 843 -163 c 128,-1,81
 852 -160 852 -160 857 -157 c 0,0,1
EndSplineSet
Validated: 1
Substitution2: "sous-table 'c2sc' Capitales vers petites capitales lookups24" uogonek.smcp
LCarets2: 1 0
Position2: "sous-table 'cpsp' Chasses pour composition en capitales lookups0" dx=40 dy=0 dh=80 dv=0
Ligature2: "sous-table 'ccmp' Composition et d+AOkA-composition de glyphe (CJK) lookups10" U uni0328
EndChar

StartChar: V
Encoding: 86 86 40
Width: 1262
GlyphClass: 2
Flags: W
AnchorPoint: "Ancre-5" 1162 1414 basechar 0
AnchorPoint: "Ancre-3" 1162 -510 basechar 0
AnchorPoint: "Ancre-2" 1162 1515 basechar 0
AnchorPoint: "Ancre-1" 581 10 basechar 0
AnchorPoint: "Ancre-0" 581 1414 basechar 0
LayerCount: 2
Fore
SplineSet
6 1314 m 1,0,-1
 42 1314 l 1,1,-1
 189 1314 l 2,2,3
 222 1314 222 1314 244 1297 c 0,4,5
 265 1281 265 1281 275 1256 c 2,6,-1
 622 335 l 2,7,8
 633 309 633 309 643 280 c 1,9,10
 653 309 653 309 663 335 c 2,11,-1
 1009 1254 l 2,12,13
 1018 1278 1018 1278 1040 1295 c 0,14,15
 1063 1314 1063 1314 1095 1314 c 2,16,-1
 1242 1314 l 1,17,-1
 1278 1314 l 1,18,-1
 1265 1281 l 1,19,-1
 755 16 l 1,20,-1
 748 0 l 1,21,-1
 730 0 l 1,22,-1
 554 0 l 1,23,-1
 536 0 l 1,24,-1
 529 16 l 1,25,-1
 19 1281 l 1,26,-1
 6 1314 l 1,0,-1
EndSplineSet
Validated: 1
Position2: "sous-table 'cpsp' Chasses pour composition en capitales lookups0" dx=40 dy=0 dh=80 dv=0
Substitution2: "sous-table 'sups' Exposant lookups25" V.superior
Substitution2: "sous-table 'c2sc' Capitales vers petites capitales lookups24" v.smcp
EndChar

StartChar: W
Encoding: 87 87 41
Width: 1972
GlyphClass: 2
Flags: W
AnchorPoint: "Ancre-5" 1822 1414 basechar 0
AnchorPoint: "Ancre-3" 1822 -510 basechar 0
AnchorPoint: "Ancre-2" 1822 1515 basechar 0
AnchorPoint: "Ancre-1" 911 10 basechar 0
AnchorPoint: "Ancre-0" 911 1414 basechar 0
LayerCount: 2
Fore
SplineSet
12 1314 m 1,0,-1
 46 1314 l 1,1,-1
 199 1314 l 2,2,3
 230 1314 230 1314 253 1298 c 0,4,5
 278 1281 278 1281 286 1254 c 2,6,-1
 559 347 l 2,7,8
 560 343 560 343 562 337 c 1,9,10
 564 343 564 343 566 349 c 2,11,-1
 881 1253 l 2,12,13
 889 1278 889 1278 914 1296 c 0,14,15
 940 1314 940 1314 974 1314 c 2,16,-1
 1027 1314 l 2,17,18
 1062 1314 1062 1314 1085.5 1297.5 c 128,-1,19
 1109 1281 1109 1281 1118 1255 c 2,20,-1
 1434 348 l 2,21,22
 1435 344 1435 344 1437 339 c 1,23,24
 1438 343 1438 343 1440 347 c 2,25,-1
 1712 1253 l 2,26,27
 1720 1278 1720 1278 1745 1296 c 0,28,29
 1769 1314 1769 1314 1801 1314 c 2,30,-1
 1944 1314 l 1,31,-1
 1977 1314 l 1,32,-1
 1968 1283 l 1,33,-1
 1557 18 l 1,34,-1
 1551 0 l 1,35,-1
 1531 0 l 1,36,-1
 1354 0 l 1,37,-1
 1334 0 l 1,38,-1
 1329 17 l 1,39,-1
 995 997 l 1,40,-1
 660 17 l 1,41,-1
 654 0 l 1,42,-1
 634 0 l 1,43,-1
 458 0 l 1,44,-1
 438 0 l 1,45,-1
 433 18 l 1,46,-1
 22 1283 l 1,47,-1
 12 1314 l 1,0,-1
EndSplineSet
Validated: 1
Position2: "sous-table 'cpsp' Chasses pour composition en capitales lookups0" dx=40 dy=0 dh=80 dv=0
Substitution2: "sous-table 'sups' Exposant lookups25" W.superior
Substitution2: "sous-table 'c2sc' Capitales vers petites capitales lookups24" w.smcp
EndChar

StartChar: X
Encoding: 88 88 42
Width: 1163
GlyphClass: 2
Flags: W
AnchorPoint: "Ancre-5" 1063 1414 basechar 0
AnchorPoint: "Ancre-3" 1063 -510 basechar 0
AnchorPoint: "Ancre-2" 1063 1515 basechar 0
AnchorPoint: "Ancre-1" 532 10 basechar 0
AnchorPoint: "Ancre-0" 532 1414 basechar 0
LayerCount: 2
Fore
SplineSet
33 36 m 1,0,-1
 435 673 l 1,1,-1
 49 1278 l 1,2,-1
 27 1314 l 1,3,-1
 71 1314 l 1,4,-1
 252 1314 l 2,5,6
 282 1314 282 1314 299 1302 c 0,7,8
 312 1293 312 1293 323 1279 c 2,9,-1
 324 1278 l 1,10,-1
 324 1276 l 1,11,-1
 612 804 l 1,12,-1
 893 1273 l 1,13,-1
 893 1274 l 1,14,-1
 894 1274 l 2,15,16
 905 1291 905 1291 919 1301 c 0,17,18
 937 1314 937 1314 960 1314 c 2,19,-1
 1134 1314 l 1,20,-1
 1178 1314 l 1,21,-1
 1155 1277 l 1,22,-1
 768 683 l 1,23,-1
 1167 36 l 1,24,-1
 1189 -0 l 1,25,-1
 1146 0 l 1,26,-1
 965 0 l 2,27,28
 934 0 934 0 914 18 c 0,29,30
 900 31 900 31 890 45 c 2,31,-1
 889 46 l 1,32,-1
 889 47 l 1,33,-1
 593 542 l 1,34,-1
 296 46 l 2,35,36
 285 30 285 30 271 17 c 0,37,38
 252 0 252 0 225 0 c 2,39,-1
 55 0 l 1,40,-1
 11 0 l 1,41,-1
 33 36 l 1,0,-1
EndSplineSet
Validated: 1
Position2: "sous-table 'cpsp' Chasses pour composition en capitales lookups0" dx=40 dy=0 dh=80 dv=0
Substitution2: "sous-table 'sups' Exposant lookups25" X.superior
Substitution2: "sous-table 'c2sc' Capitales vers petites capitales lookups24" x.smcp
EndChar

StartChar: Y
Encoding: 89 89 43
Width: 1098
GlyphClass: 2
Flags: W
AnchorPoint: "Ancre-5" 998 1414 basechar 0
AnchorPoint: "Ancre-3" 998 -510 basechar 0
AnchorPoint: "Ancre-2" 998 1515 basechar 0
AnchorPoint: "Ancre-1" 499 0 basechar 0
AnchorPoint: "Ancre-0" 499 1414 basechar 0
LayerCount: 2
Fore
SplineSet
1111 1279 m 1,0,-1
 691 525 l 1,1,-1
 691 25 l 1,2,-1
 691 0 l 1,3,-1
 664 0 l 1,4,-1
 466 0 l 1,5,-1
 439 0 l 1,6,-1
 439 25 l 1,7,-1
 439 523 l 1,8,-1
 19 1279 l 1,9,-1
 0 1314 l 1,10,-1
 41 1314 l 1,11,-1
 201 1314 l 2,12,13
 233 1314 233 1314 255 1297 c 0,14,15
 275 1282 275 1282 288 1259 c 2,16,-1
 289 1258 l 1,17,-1
 289 1257 l 1,18,-1
 533 751 l 2,19,20
 552 720 552 720 566 692 c 1,21,22
 594 743 594 743 598 750 c 2,23,-1
 840 1257 l 1,24,-1
 840 1258 l 1,25,-1
 841 1259 l 2,26,27
 852 1278 852 1278 871 1294 c 0,28,29
 894 1314 894 1314 927 1314 c 2,30,-1
 1089 1314 l 1,31,-1
 1130 1314 l 1,32,-1
 1111 1279 l 1,0,-1
EndSplineSet
Validated: 1
Position2: "sous-table 'cpsp' Chasses pour composition en capitales lookups0" dx=40 dy=0 dh=80 dv=0
Substitution2: "sous-table 'sups' Exposant lookups25" Y.superior
Substitution2: "sous-table 'c2sc' Capitales vers petites capitales lookups24" y.smcp
EndChar

StartChar: Z
Encoding: 90 90 44
Width: 1059
GlyphClass: 2
Flags: W
AnchorPoint: "Ancre-5" 959 1414 basechar 0
AnchorPoint: "Ancre-3" 959 -510 basechar 0
AnchorPoint: "Ancre-2" 959 1515 basechar 0
AnchorPoint: "Ancre-1" 495 10 basechar 0
AnchorPoint: "Ancre-0" 495 1414 basechar 0
LayerCount: 2
Fore
SplineSet
1010 1314 m 1,0,-1
 1010 1289 l 1,1,-1
 1010 1225 l 2,2,3
 1010 1188 1010 1188 987 1155 c 2,4,-1
 350 198 l 1,5,-1
 972 198 l 1,6,-1
 997 198 l 1,7,-1
 997 173 l 1,8,-1
 997 25 l 1,9,-1
 997 0 l 1,10,-1
 972 0 l 1,11,-1
 81 0 l 1,12,-1
 56 0 l 1,13,-1
 56 25 l 1,14,-1
 56 93 l 2,15,16
 56 112 56 112 63 128 c 0,17,18
 69 142 69 142 78 156 c 2,19,-1
 714 1116 l 1,20,-1
 115 1116 l 1,21,-1
 90 1116 l 1,22,-1
 90 1141 l 1,23,-1
 90 1289 l 1,24,-1
 90 1314 l 1,25,-1
 115 1314 l 1,26,-1
 985 1314 l 1,27,-1
 1010 1314 l 1,0,-1
EndSplineSet
Validated: 1
Position2: "sous-table 'cpsp' Chasses pour composition en capitales lookups0" dx=40 dy=0 dh=80 dv=0
Substitution2: "sous-table 'sups' Exposant lookups25" Z.superior
Substitution2: "sous-table 'c2sc' Capitales vers petites capitales lookups24" z.smcp
EndChar

StartChar: a
Encoding: 97 97 45
Width: 1081
GlyphClass: 2
Flags: W
AnchorPoint: "Ancre-5" 981 1122 basechar 0
AnchorPoint: "Ancre-4" 766 550 basechar 0
AnchorPoint: "Ancre-3" 981 -510 basechar 0
AnchorPoint: "Ancre-2" 981 1515 basechar 0
AnchorPoint: "Ancre-1" 378 0 basechar 0
AnchorPoint: "Ancre-0" 489 1122 basechar 0
LayerCount: 2
Fore
SplineSet
930 0 m 1,0,-1
 852 0 l 2,1,2
 819 0 819 0 800 11 c 0,3,4
 777 24 777 24 769 61 c 2,5,-1
 756 111 l 1,6,7
 733 91 733 91 712 75 c 0,8,9
 668 46 668 46 619 25 c 0,10,11
 570 5 570 5 513 -5 c 0,12,13
 457 -15 457 -15 391 -15 c 0,14,15
 322 -15 322 -15 269 2 c 0,16,17
 215 18 215 18 173 52 c 0,18,19
 131 86 131 86 108 136 c 0,20,21
 84 186 84 186 84 253 c 0,22,23
 84 314 84 314 119 370 c 0,24,25
 154 426 154 426 230 468 c 0,26,27
 304 509 304 509 436 536 c 0,28,29
 560 560 560 560 733 564 c 1,30,-1
 733 612 l 2,31,32
 733 711 733 711 688 758 c 0,33,34
 641 804 641 804 547 804 c 0,35,36
 481 804 481 804 436 790 c 0,37,38
 390 775 390 775 357 757 c 0,39,40
 323 738 323 738 301 723 c 0,41,42
 272 702 272 702 241 702 c 0,43,44
 215 702 215 702 196 715 c 0,45,46
 178 727 178 727 167 747 c 2,47,-1
 135 803 l 1,48,-1
 126 820 l 1,49,-1
 140 833 l 2,50,51
 224 914 224 914 322 955 c 0,52,53
 434 995 434 995 571 995 c 0,54,55
 671 995 671 995 745 967 c 0,56,57
 814 940 814 940 861 889 c 0,58,59
 907 839 907 839 931 769 c 0,60,61
 955 701 955 701 955 618 c 2,62,-1
 955 25 l 1,63,-1
 955 0 l 1,64,-1
 930 0 l 1,0,-1
389 165 m 0,65,66
 418 158 418 158 452 158 c 0,67,68
 499 158 499 158 538.5 166.5 c 128,-1,69
 578 175 578 175 613 190 c 128,-1,70
 648 205 648 205 680 228 c 0,71,72
 709 249 709 249 733 273 c 1,73,-1
 733 439 l 1,74,75
 623 434 623 434 541 421 c 0,76,77
 450 407 450 407 395 384 c 0,78,79
 343 363 343 363 321 336 c 0,80,81
 303 310 303 310 303 278 c 0,82,83
 303 245 303 245 313 223 c 0,84,85
 323 201 323 201 342 187 c 0,86,87
 361 172 361 172 389 165 c 0,65,66
EndSplineSet
Validated: 1
Substitution2: "sous-table 'sups' Exposant lookups25" a.superior
Substitution2: "sous-table 'ordn' Ordinaux dans Latin lookup 39" a.superior
Substitution2: "sous-table 'smcp' Bas-de-casse vers petites capitales dans Latin lookup 0" a.smcp
EndChar

StartChar: aogonek
Encoding: 261 261 46
Width: 1081
GlyphClass: 2
Flags: W
AnchorPoint: "Ancre-5" 981 1122 basechar 0
AnchorPoint: "Ancre-4" 766 550 basechar 0
AnchorPoint: "Ancre-3" 981 -510 basechar 0
AnchorPoint: "Ancre-2" 981 1515 basechar 0
AnchorPoint: "Ancre-1" 378 0 basechar 0
AnchorPoint: "Ancre-0" 489 1122 basechar 0
LayerCount: 2
Fore
SplineSet
968 -160 m 0,0,1
 980 -153 980 -153 992 -153 c 0,2,3
 1005 -153 1005 -153 1016.5 -160.5 c 128,-1,4
 1028 -168 1028 -168 1033 -180 c 2,5,-1
 1060 -245 l 1,6,-1
 1067 -263 l 1,7,-1
 1052 -275 l 2,8,9
 1020 -300 1020 -300 971 -315 c 0,10,11
 923 -330 923 -330 869 -330 c 0,12,13
 770 -330 770 -330 709 -287 c 0,14,15
 644 -241 644 -241 644 -165 c 0,16,17
 644 -99 644 -99 693 -43 c 0,18,19
 728 -20 728 -20 777 -2 c 1,20,21
 767 6 767 6 763 17 c 2,22,-1
 749 61 l 1,23,24
 724 41 724 41 699 25 c 0,25,26
 656 14 656 14 609 6 c 0,27,28
 561 -2 561 -2 507 -5 c 0,29,30
 453 -15 453 -15 389 -15 c 0,31,32
 322 -15 322 -15 269 2 c 0,33,34
 215 18 215 18 173 52 c 0,35,36
 131 86 131 86 108 136 c 0,37,38
 84 186 84 186 84 253 c 0,39,40
 84 314 84 314 119 370 c 0,41,42
 154 426 154 426 230 468 c 0,43,44
 304 509 304 509 433 536 c 0,45,46
 553 560 553 560 723 564 c 1,47,-1
 723 612 l 2,48,49
 723 711 723 711 676 758 c 0,50,51
 630 804 630 804 539 804 c 0,52,53
 475 804 475 804 433 790 c 0,54,55
 388 775 388 775 356 757 c 0,56,57
 323 738 323 738 301 723 c 0,58,59
 272 702 272 702 241 702 c 0,60,61
 215 702 215 702 196 715 c 0,62,63
 178 727 178 727 167 747 c 2,64,-1
 135 803 l 1,65,-1
 126 820 l 1,66,-1
 140 833 l 2,67,68
 224 914 224 914 322 955 c 0,69,70
 430 995 430 995 563 995 c 0,71,72
 660 995 660 995 736 967 c 0,73,74
 813 940 813 940 861 889 c 0,75,76
 907 839 907 839 931 769 c 0,77,78
 955 701 955 701 955 618 c 2,79,-1
 955 48 l 1,80,-1
 1024 48 l 1,81,-1
 944 3 l 2,82,83
 926 -7 926 -7 907 -21 c 0,84,85
 890 -34 890 -34 875 -50 c 0,86,87
 861 -66 861 -66 852 -86 c 0,88,89
 844 -103 844 -103 844 -122 c 0,90,91
 844 -147 844 -147 859 -160 c 0,92,93
 876 -175 876 -175 905 -175 c 0,94,95
 924 -175 924 -175 935 -172 c 0,96,97
 947 -169 947 -169 955.5 -166 c 128,-1,98
 964 -163 964 -163 968 -160 c 0,0,1
387 165 m 0,99,100
 415 158 415 158 448 158 c 0,101,102
 494 158 494 158 532 166.5 c 128,-1,103
 570 175 570 175 604 190 c 128,-1,104
 638 205 638 205 668 228 c 0,105,106
 696 249 696 249 723 273 c 1,107,-1
 723 439 l 1,108,109
 613 434 613 434 534 421 c 0,110,111
 446 407 446 407 392 384 c 0,112,113
 341 363 341 363 321 336 c 0,114,115
 303 310 303 310 303 278 c 0,116,117
 303 245 303 245 313 223 c 0,118,119
 323 201 323 201 341 187 c 0,120,121
 360 172 360 172 387 165 c 0,99,100
EndSplineSet
Validated: 1
Substitution2: "sous-table 'smcp' Bas-de-casse vers petites capitales dans Latin lookup 0" aogonek.smcp
LCarets2: 1 0
Ligature2: "sous-table 'ccmp' Composition et d+AOkA-composition de glyphe (CJK) lookups10" a uni0328
EndChar

StartChar: ae
Encoding: 230 230 47
Width: 1683
GlyphClass: 2
Flags: W
AnchorPoint: "Ancre-5" 1583 1122 basechar 0
AnchorPoint: "Ancre-3" 1583 -510 basechar 0
AnchorPoint: "Ancre-2" 1583 1515 basechar 0
AnchorPoint: "Ancre-0" 792 1122 basechar 0
LayerCount: 2
Fore
SplineSet
973 941 m 4,0,1
 1068 993 1068 993 1198 993 c 4,2,3
 1287 993 1287 993 1364 960 c 4,4,5
 1438 928 1438 928 1493 868 c 4,6,7
 1547 809 1547 809 1578 724 c 4,8,9
 1608 640 1608 640 1608 533 c 4,10,11
 1608 488 1608 488 1597 468 c 4,12,13
 1582 443 1582 443 1542 443 c 6,14,-1
 938 443 l 5,15,16
 950 310 950 310 1019 244 c 4,17,18
 1092 174 1092 174 1212 174 c 4,19,20
 1278 174 1278 174 1322 187 c 132,-1,21
 1366 200 1366 200 1393 216 c 4,22,23
 1421 232 1421 232 1438 245 c 4,24,25
 1463 264 1463 264 1487 264 c 4,26,27
 1507 264 1507 264 1521 257 c 4,28,29
 1534 250 1534 250 1544 237 c 6,30,-1
 1590 177 l 5,31,-1
 1602 161 l 5,32,-1
 1589 146 l 6,33,34
 1555 104 1555 104 1509 74 c 4,35,36
 1464 44 1464 44 1414 24 c 4,37,38
 1364 5 1364 5 1307 -5 c 4,39,40
 1250 -14 1250 -14 1195 -14 c 4,41,42
 1069 -14 1069 -14 965 44 c 4,43,44
 880 91 880 91 825 178 c 5,45,46
 802 141 802 141 771 111 c 4,47,48
 724 66 724 66 666 38 c 4,49,50
 609 10 609 10 544 -2 c 4,51,52
 480 -15 480 -15 418 -15 c 4,53,54
 343 -15 343 -15 283 3 c 132,-1,55
 223 21 223 21 179 56 c 4,56,57
 134 91 134 91 110 145 c 4,58,59
 86 198 86 198 86 269 c 4,60,61
 86 330 86 330 120.5 389 c 132,-1,62
 155 448 155 448 232 493 c 4,63,64
 307 537 307 537 431 565 c 4,65,66
 546 591 546 591 709 596 c 5,67,-1
 709 618 l 6,68,69
 709 718 709 718 664 769 c 4,70,71
 622 817 622 817 537 817 c 4,72,73
 535 817 535 817 533 817 c 4,74,75
 472 817 472 817 430 803 c 4,76,77
 387 788 387 788 357 770 c 4,78,79
 325 751 325 751 303 735 c 4,80,81
 274 715 274 715 245 715 c 4,82,83
 244 715 244 715 242 715 c 4,84,85
 216 715 216 715 197 727 c 4,86,87
 179 739 179 739 168 757 c 6,88,-1
 136 810 l 5,89,-1
 127 826 l 5,90,-1
 141 839 l 6,91,92
 226 916 226 916 318 954 c 4,93,94
 415 995 415 995 536 995 c 4,95,96
 666 995 666 995 748 942 c 4,97,98
 810 901 810 901 846 837 c 5,99,100
 899 901 899 901 973 941 c 4,0,1
709 414 m 6,101,-1
 709 467 l 5,102,103
 604 461 604 461 529 447 c 4,104,105
 445 431 445 431 393 405 c 4,106,107
 344 381 344 381 324 352 c 4,108,109
 305 324 305 324 305 292 c 4,110,111
 305 221 305 221 344 191 c 4,112,113
 387 158 387 158 460 158 c 4,114,115
 513 158 513 158 559 174 c 4,116,117
 604 190 604 190 637 221 c 132,-1,118
 670 252 670 252 690 300 c 4,119,120
 709 348 709 348 709 414 c 6,101,-1
1280 796 m 132,-1,122
 1241 815 1241 815 1191 815 c 4,123,124
 1134 815 1134 815 1090 797 c 132,-1,125
 1046 779 1046 779 1015 746 c 4,126,127
 983 712 983 712 964 663 c 4,128,129
 949 624 949 624 942 577 c 5,130,-1
 1401 577 l 5,131,132
 1398 621 1398 621 1388 660 c 4,133,134
 1374 709 1374 709 1346 743 c 4,135,121
 1319 777 1319 777 1280 796 c 132,-1,122
EndSplineSet
Validated: 1
Substitution2: "sous-table 'smcp' Bas-de-casse vers petites capitales dans Latin lookup 0" ae.smcp
EndChar

StartChar: b
Encoding: 98 98 48
Width: 1176
GlyphClass: 2
Flags: W
AnchorPoint: "Ancre-5" 1076 1492 basechar 0
AnchorPoint: "Ancre-3" 1076 -510 basechar 0
AnchorPoint: "Ancre-2" 1076 1515 basechar 0
AnchorPoint: "Ancre-1" 549 0 basechar 0
AnchorPoint: "Ancre-0" 540 1492 basechar 0
LayerCount: 2
Fore
SplineSet
144 0 m 1,0,-1
 144 25 l 1,1,-1
 144 1397 l 1,2,-1
 144 1422 l 1,3,-1
 169 1422 l 1,4,-1
 345 1422 l 1,5,-1
 370 1422 l 1,6,-1
 370 1397 l 1,7,-1
 370 876 l 1,8,9
 419 919 419 919 480 949 c 0,10,11
 572 993 572 993 691 993 c 0,12,13
 793 993 793 993 873 957 c 0,14,15
 946 923 946 923 998 860 c 0,16,17
 1049 797 1049 797 1076 709 c 0,18,19
 1102 622 1102 622 1102 512 c 0,20,21
 1102 395 1102 395 1072 300 c 0,22,23
 1042 203 1042 203 985 134 c 0,24,25
 927 64 927 64 844 25 c 0,26,27
 752 -14 752 -14 638 -14 c 0,28,29
 523 -14 523 -14 444 26 c 0,30,31
 394 51 394 51 354 90 c 1,32,-1
 351 59 l 2,33,34
 348 32 348 32 329.5 16 c 128,-1,35
 311 0 311 0 283 0 c 2,36,-1
 169 0 l 1,37,-1
 144 0 l 1,0,-1
807 735 m 0,38,39
 744 804 744 804 625 804 c 0,40,41
 542 804 542 804 480 772 c 0,42,43
 419 741 419 741 370 684 c 1,44,-1
 370 262 l 1,45,46
 413 213 413 213 465 193 c 0,47,48
 521 172 521 172 588 172 c 0,49,50
 725 172 725 172 798 253 c 0,51,52
 871 337 871 337 871 507 c 0,53,54
 871 663 871 663 807 735 c 0,38,39
EndSplineSet
Validated: 1
Substitution2: "sous-table 'sups' Exposant lookups25" b.superior
Substitution2: "sous-table 'ordn' Ordinaux dans Latin lookup 39" b.superior
Substitution2: "sous-table 'smcp' Bas-de-casse vers petites capitales dans Latin lookup 0" b.smcp
EndChar

StartChar: c
Encoding: 99 99 49
Width: 966
GlyphClass: 2
Flags: W
AnchorPoint: "Ancre-5" 866 1122 basechar 0
AnchorPoint: "Ancre-3" 866 -510 basechar 0
AnchorPoint: "Ancre-2" 866 1515 basechar 0
AnchorPoint: "Ancre-1" 500 -3 basechar 0
AnchorPoint: "Ancre-0" 500 1122 basechar 0
LayerCount: 2
Fore
SplineSet
910 826 m 1,0,-1
 864 762 l 2,1,2
 854 748 854 748 843 740 c 0,3,4
 829 730 829 730 807 730 c 0,5,6
 784 730 784 730 761 747 c 0,7,8
 746 758 746 758 723 772 c 0,9,10
 701 785 701 785 666 796 c 0,11,12
 631 807 631 807 578 807 c 0,13,14
 509 807 509 807 457 786 c 0,15,16
 405 765 405 765 370 726 c 0,17,18
 334 685 334 685 316 626 c 0,19,20
 299 566 299 566 299 490 c 0,21,22
 299 411 299 411 317 351 c 0,23,24
 337 292 337 292 373 251 c 0,25,26
 408 212 408 212 457.5 192 c 128,-1,27
 507 172 507 172 569 172 c 0,28,29
 630 172 630 172 668 185 c 0,30,31
 705 199 705 199 727 215 c 0,32,33
 751 232 751 232 767 246 c 0,34,35
 791 268 791 268 818 268 c 0,36,37
 850 268 850 268 870 241 c 2,38,-1
 921 178 l 1,39,-1
 933 162 l 1,40,-1
 920 146 l 2,41,42
 886 105 886 105 844.5 74.5 c 128,-1,43
 803 44 803 44 756 24 c 0,44,45
 709 5 709 5 652 -5 c 0,46,47
 593 -14 593 -14 533 -14 c 0,48,49
 427 -14 427 -14 335 22 c 0,50,51
 252 56 252 56 194 122 c 0,52,53
 135 187 135 187 102 280 c 0,54,55
 69 372 69 372 69 490 c 0,56,57
 69 597 69 597 99 688 c 0,58,59
 129 780 129 780 188 848 c 0,60,61
 247 916 247 916 337 953 c 0,62,63
 437 993 437 993 566 993 c 0,64,65
 688 993 688 993 767 957 c 0,66,67
 846 922 846 922 908 858 c 2,68,-1
 922 843 l 1,69,-1
 910 826 l 1,0,-1
EndSplineSet
Validated: 1
Substitution2: "sous-table 'smcp' Bas-de-casse vers petites capitales dans Latin lookup 0" c.smcp
Substitution2: "sous-table 'ordn' Ordinaux dans Latin lookup 39" c.superior
Substitution2: "sous-table 'sups' Exposant lookups25" c.superior
EndChar

StartChar: ccedilla
Encoding: 231 231 50
Width: 966
GlyphClass: 2
Flags: W
AnchorPoint: "Ancre-0" 500 1122 basechar 0
AnchorPoint: "Ancre-1" 500 -300 basechar 0
AnchorPoint: "Ancre-2" 866 1515 basechar 0
AnchorPoint: "Ancre-3" 866 -510 basechar 0
AnchorPoint: "Ancre-5" 866 1122 basechar 0
LayerCount: 2
Fore
SplineSet
387 -202.5 m 128,-1,1
 402 -193 402 -193 420 -193 c 0,2,3
 434 -193 434 -193 448 -199 c 0,4,5
 454 -202 454 -202 464 -205.5 c 128,-1,6
 474 -209 474 -209 488 -212 c 0,7,8
 500 -215 500 -215 517 -215 c 0,9,10
 548 -215 548 -215 562 -205 c 0,11,12
 574 -196 574 -196 574 -183 c 0,13,14
 574 -172 574 -172 569 -166 c 128,-1,15
 564 -160 564 -160 549 -155 c 0,16,17
 509 -142 509 -142 432 -132 c 2,18,-1
 399 -128 l 1,19,-1
 409 -100 l 1,20,-1
 442 -7 l 1,21,22
 365 4 365 4 301 36 c 0,23,24
 230 74 230 74 178 138 c 0,25,26
 126 202 126 202 98 291 c 0,27,28
 69 379 69 379 69 489 c 0,29,30
 69 596 69 596 99 688 c 0,31,32
 129 780 129 780 188 847 c 0,33,34
 247 915 247 915 337 953 c 0,35,36
 437 993 437 993 566 993 c 0,37,38
 688 993 688 993 767 957 c 0,39,40
 846 922 846 922 908 858 c 2,41,-1
 922 843 l 1,42,-1
 910 826 l 1,43,-1
 864 762 l 2,44,45
 854 748 854 748 843 740 c 0,46,47
 829 730 829 730 807 730 c 0,48,49
 784 730 784 730 761 747 c 0,50,51
 746 758 746 758 723 772 c 0,52,53
 701 785 701 785 667 796 c 0,54,55
 632 807 632 807 578 807 c 0,56,57
 509 807 509 807 457 786 c 0,58,59
 405 765 405 765 370 724 c 0,60,61
 334 683 334 683 316 623 c 0,62,63
 299 562 299 562 299 485 c 0,64,65
 299 405 299 405 317 343 c 0,66,67
 337 283 337 283 373 242 c 0,68,69
 408 202 408 202 457.5 182 c 128,-1,70
 507 162 507 162 569 162 c 0,71,72
 630 162 630 162 668 174 c 0,73,74
 705 187 705 187 727 202 c 0,75,76
 751 218 751 218 767 232 c 0,77,78
 791 252 791 252 818 252 c 0,79,80
 850 252 850 252 870 227 c 2,81,-1
 921 167 l 1,82,-1
 933 152 l 1,83,-1
 921 137 l 2,84,85
 863 69 863 69 782 33 c 0,86,87
 710 1 710 1 621 -9 c 1,88,-1
 614 -29 l 1,89,90
 696 -48 696 -48 732 -81 c 0,91,92
 777 -122 777 -122 777 -185 c 0,93,94
 777 -223 777 -223 759 -254 c 0,95,96
 741 -284 741 -284 709 -304 c 0,97,98
 677 -323 677 -323 631 -334 c 0,99,100
 585 -344 585 -344 529 -344 c 0,101,102
 483 -344 483 -344 440.5 -335.5 c 128,-1,103
 398 -327 398 -327 361 -312 c 2,104,-1
 339 -302 l 1,105,-1
 346 -281 l 1,106,-1
 366 -227 l 2,107,0
 372 -212 372 -212 387 -202.5 c 128,-1,1
EndSplineSet
Validated: 1
Substitution2: "sous-table 'smcp' Bas-de-casse vers petites capitales dans Latin lookup 0" ccedilla.smcp
LCarets2: 1 0
Ligature2: "sous-table 'ccmp' Composition et d+AOkA-composition de glyphe (CJK) lookups10" c uni0327
EndChar

StartChar: c_h.dlig
Encoding: 1114114 -1 51
Width: 1903
GlyphClass: 3
Flags: MW
LayerCount: 2
Fore
SplineSet
769 802 m 2,0,1
 761 791 761 791 753.5 785.5 c 128,-1,2
 746 780 746 780 732 780 c 0,3,4
 717 780 717 780 701 792 c 128,-1,5
 685 804 685 804 661 818.5 c 128,-1,6
 637 833 637 833 602.5 845 c 128,-1,7
 568 857 568 857 518 857 c 0,8,9
 452 857 452 857 401.5 831.5 c 128,-1,10
 351 806 351 806 317.5 758.5 c 128,-1,11
 284 711 284 711 266.5 643 c 128,-1,12
 249 575 249 575 249 490 c 0,13,14
 249 402 249 402 267.5 333.5 c 128,-1,15
 286 265 286 265 320 218 c 128,-1,16
 354 171 354 171 402 146.5 c 128,-1,17
 450 122 450 122 510 122 c 0,18,19
 568 122 568 122 605 137 c 128,-1,20
 642 152 642 152 667 170 c 128,-1,21
 692 188 692 188 708.5 203 c 128,-1,22
 725 218 725 218 743 218 c 0,23,24
 763 218 763 218 775 201 c 2,25,-1
 826 137 l 1,26,27
 794 98 794 98 755 69.5 c 128,-1,28
 716 41 716 41 671 22.5 c 128,-1,29
 626 4 626 4 577.5 -5 c 128,-1,30
 529 -14 529 -14 479 -14 c 0,31,32
 393 -14 393 -14 318 20 c 128,-1,33
 243 54 243 54 187.5 118.5 c 128,-1,34
 132 183 132 183 100.5 276.5 c 128,-1,35
 69 370 69 370 69 490 c 0,36,37
 69 599 69 599 98 691.5 c 128,-1,38
 127 784 127 784 182.5 851 c 128,-1,39
 238 918 238 918 319.5 955.5 c 128,-1,40
 401 993 401 993 507 993 c 0,41,42
 551 993 551 993 594 985 c 1,43,44
 555 1038 555 1038 530.5 1095.5 c 128,-1,45
 506 1153 506 1153 506 1217 c 0,46,47
 506 1273 506 1273 527 1325.5 c 128,-1,48
 548 1378 548 1378 589.5 1418.5 c 128,-1,49
 631 1459 631 1459 692 1483.5 c 128,-1,50
 753 1508 753 1508 833 1508 c 0,51,52
 897 1508 897 1508 945.5 1494.5 c 128,-1,53
 994 1481 994 1481 1030.5 1465 c 128,-1,54
 1067 1449 1067 1449 1095 1435.5 c 128,-1,55
 1123 1422 1123 1422 1147 1422 c 1,56,-1
 1147 849 l 1,57,58
 1208 915 1208 915 1282.5 954 c 128,-1,59
 1357 993 1357 993 1455 993 c 0,60,61
 1535 993 1535 993 1595.5 966.5 c 128,-1,62
 1656 940 1656 940 1697 891.5 c 128,-1,63
 1738 843 1738 843 1758.5 774.5 c 128,-1,64
 1779 706 1779 706 1779 623 c 2,65,-1
 1779 0 l 1,66,-1
 1603 0 l 1,67,-1
 1603 623 l 2,68,69
 1603 732 1603 732 1554 793 c 128,-1,70
 1505 854 1505 854 1404 854 c 0,71,72
 1329 854 1329 854 1265 818 c 128,-1,73
 1201 782 1201 782 1147 719 c 1,74,-1
 1147 0 l 1,75,-1
 971 0 l 1,76,-1
 971 1334 l 1,77,78
 951 1374 951 1374 902.5 1395.5 c 128,-1,79
 854 1417 854 1417 794 1417 c 0,80,81
 741 1417 741 1417 702.5 1399 c 128,-1,82
 664 1381 664 1381 639.5 1352 c 128,-1,83
 615 1323 615 1323 603 1286.5 c 128,-1,84
 591 1250 591 1250 591 1214 c 0,85,86
 591 1167 591 1167 609 1123.5 c 128,-1,87
 627 1080 627 1080 656 1039.5 c 128,-1,88
 685 999 685 999 722 960 c 128,-1,89
 759 921 759 921 797 883 c 2,90,-1
 815 866 l 1,91,-1
 769 802 l 2,0,1
EndSplineSet
Validated: 1
Ligature2: "sous-table 'dlig' Ligatures facultatives  dans Latin lookup 36" c h
EndChar

StartChar: c_k.dlig
Encoding: 1114115 -1 52
Width: 1757
GlyphClass: 3
Flags: MW
LayerCount: 2
Fore
SplineSet
769 802 m 2,0,1
 761 791 761 791 753.5 785.5 c 128,-1,2
 746 780 746 780 732 780 c 0,3,4
 717 780 717 780 701 792 c 128,-1,5
 685 804 685 804 661 818.5 c 128,-1,6
 637 833 637 833 602.5 845 c 128,-1,7
 568 857 568 857 518 857 c 0,8,9
 452 857 452 857 401.5 831.5 c 128,-1,10
 351 806 351 806 317.5 758.5 c 128,-1,11
 284 711 284 711 266.5 643 c 128,-1,12
 249 575 249 575 249 490 c 0,13,14
 249 402 249 402 267.5 333.5 c 128,-1,15
 286 265 286 265 320 218 c 128,-1,16
 354 171 354 171 402 146.5 c 128,-1,17
 450 122 450 122 510 122 c 0,18,19
 568 122 568 122 605 137 c 128,-1,20
 642 152 642 152 667 170 c 128,-1,21
 692 188 692 188 708.5 203 c 128,-1,22
 725 218 725 218 743 218 c 0,23,24
 763 218 763 218 775 201 c 2,25,-1
 826 137 l 1,26,27
 794 98 794 98 755 69.5 c 128,-1,28
 716 41 716 41 671 22.5 c 128,-1,29
 626 4 626 4 577.5 -5 c 128,-1,30
 529 -14 529 -14 479 -14 c 0,31,32
 393 -14 393 -14 318 20 c 128,-1,33
 243 54 243 54 187.5 118.5 c 128,-1,34
 132 183 132 183 100.5 276.5 c 128,-1,35
 69 370 69 370 69 490 c 0,36,37
 69 599 69 599 98 691.5 c 128,-1,38
 127 784 127 784 182.5 851 c 128,-1,39
 238 918 238 918 319.5 955.5 c 128,-1,40
 401 993 401 993 507 993 c 0,41,42
 547 993 547 993 585 987 c 1,43,44
 543 1039 543 1039 516 1096.5 c 128,-1,45
 489 1154 489 1154 489 1217 c 0,46,47
 489 1273 489 1273 510 1325.5 c 128,-1,48
 531 1378 531 1378 572.5 1418.5 c 128,-1,49
 614 1459 614 1459 675 1483.5 c 128,-1,50
 736 1508 736 1508 816 1508 c 0,51,52
 880 1508 880 1508 928.5 1494.5 c 128,-1,53
 977 1481 977 1481 1013.5 1465 c 128,-1,54
 1050 1449 1050 1449 1078 1435.5 c 128,-1,55
 1106 1422 1106 1422 1130 1422 c 1,56,-1
 1130 586 l 1,57,-1
 1170 586 l 2,58,59
 1189 586 1189 586 1200.5 591 c 128,-1,60
 1212 596 1212 596 1225 613 c 2,61,-1
 1485 944 l 2,62,63
 1499 960 1499 960 1514 969 c 128,-1,64
 1529 978 1529 978 1552 978 c 2,65,-1
 1712 978 l 1,66,-1
 1405 593 l 2,67,68
 1391 578 1391 578 1377 565.5 c 128,-1,69
 1363 553 1363 553 1347 543 c 1,70,71
 1364 532 1364 532 1377.5 516.5 c 128,-1,72
 1391 501 1391 501 1405 484 c 2,73,-1
 1732 0 l 1,74,-1
 1574 0 l 2,75,76
 1553 0 1553 0 1537 7.5 c 128,-1,77
 1521 15 1521 15 1508 33 c 2,78,-1
 1241 434 l 2,79,80
 1227 454 1227 454 1214.5 460.5 c 128,-1,81
 1202 467 1202 467 1175 467 c 2,82,-1
 1130 467 l 1,83,-1
 1130 0 l 1,84,-1
 954 0 l 1,85,-1
 954 1334 l 1,86,87
 934 1374 934 1374 885.5 1395.5 c 128,-1,88
 837 1417 837 1417 777 1417 c 0,89,90
 724 1417 724 1417 685.5 1399 c 128,-1,91
 647 1381 647 1381 622.5 1352 c 128,-1,92
 598 1323 598 1323 586 1286.5 c 128,-1,93
 574 1250 574 1250 574 1214 c 0,94,95
 574 1167 574 1167 594.5 1123.5 c 128,-1,96
 615 1080 615 1080 647 1039.5 c 128,-1,97
 679 999 679 999 718.5 960 c 128,-1,98
 758 921 758 921 797 883 c 2,99,-1
 815 866 l 1,100,-1
 769 802 l 2,0,1
EndSplineSet
Validated: 1
Ligature2: "sous-table 'dlig' Ligatures facultatives  dans Latin lookup 36" c k
EndChar

StartChar: c_t.dlig
Encoding: 1114116 -1 53
Width: 1537
GlyphClass: 3
Flags: MW
LayerCount: 2
Fore
SplineSet
1215 960 m 1,0,-1
 1479 960 l 1,1,-1
 1479 832 l 1,2,-1
 1215 832 l 1,3,-1
 1215 248 l 2,4,5
 1215 188 1215 188 1242 158 c 128,-1,6
 1269 128 1269 128 1312 128 c 0,7,8
 1337 128 1337 128 1355 135 c 128,-1,9
 1373 142 1373 142 1385.5 151 c 128,-1,10
 1398 160 1398 160 1407 167 c 128,-1,11
 1416 174 1416 174 1424 174 c 0,12,13
 1439 174 1439 174 1448 157 c 2,14,-1
 1501 73 l 1,15,16
 1457 31 1457 31 1397 8 c 128,-1,17
 1337 -15 1337 -15 1271 -15 c 0,18,19
 1160 -15 1160 -15 1099.5 50 c 128,-1,20
 1039 115 1039 115 1039 236 c 2,21,-1
 1039 832 l 1,22,-1
 931 832 l 2,23,24
 916 832 916 832 905.5 842 c 128,-1,25
 895 852 895 852 895 871 c 2,26,-1
 895 941 l 1,27,-1
 1052 962 l 1,28,29
 1059 991 1059 991 1067 1023.5 c 128,-1,30
 1075 1056 1075 1056 1081 1089 c 128,-1,31
 1087 1122 1087 1122 1091 1155 c 128,-1,32
 1095 1188 1095 1188 1095 1218 c 0,33,34
 1095 1264 1095 1264 1084 1303.5 c 128,-1,35
 1073 1343 1073 1343 1048 1372 c 128,-1,36
 1023 1401 1023 1401 984 1417 c 128,-1,37
 945 1433 945 1433 890 1433 c 0,38,39
 824 1433 824 1433 774 1411.5 c 128,-1,40
 724 1390 724 1390 690.5 1354.5 c 128,-1,41
 657 1319 657 1319 640 1272.5 c 128,-1,42
 623 1226 623 1226 623 1176 c 0,43,44
 623 1116 623 1116 648.5 1054.5 c 128,-1,45
 674 993 674 993 723 939 c 1,46,47
 749 924 749 924 771.5 905.5 c 128,-1,48
 794 887 794 887 815 866 c 1,49,-1
 769 802 l 2,50,51
 761 791 761 791 753.5 785.5 c 128,-1,52
 746 780 746 780 732 780 c 0,53,54
 717 780 717 780 701 792 c 128,-1,55
 685 804 685 804 661 818.5 c 128,-1,56
 637 833 637 833 602.5 845 c 128,-1,57
 568 857 568 857 518 857 c 0,58,59
 452 857 452 857 401.5 831.5 c 128,-1,60
 351 806 351 806 317.5 758.5 c 128,-1,61
 284 711 284 711 266.5 643 c 128,-1,62
 249 575 249 575 249 490 c 0,63,64
 249 402 249 402 267.5 333.5 c 128,-1,65
 286 265 286 265 320 218 c 128,-1,66
 354 171 354 171 402 146.5 c 128,-1,67
 450 122 450 122 510 122 c 0,68,69
 568 122 568 122 605 137 c 128,-1,70
 642 152 642 152 667 170 c 128,-1,71
 692 188 692 188 708.5 203 c 128,-1,72
 725 218 725 218 743 218 c 0,73,74
 763 218 763 218 775 201 c 2,75,-1
 826 137 l 1,76,77
 794 98 794 98 755 69.5 c 128,-1,78
 716 41 716 41 671 22.5 c 128,-1,79
 626 4 626 4 577.5 -5 c 128,-1,80
 529 -14 529 -14 479 -14 c 0,81,82
 393 -14 393 -14 318 20 c 128,-1,83
 243 54 243 54 187.5 118.5 c 128,-1,84
 132 183 132 183 100.5 276.5 c 128,-1,85
 69 370 69 370 69 490 c 0,86,87
 69 599 69 599 98 691.5 c 128,-1,88
 127 784 127 784 182.5 851 c 128,-1,89
 238 918 238 918 319.5 955.5 c 128,-1,90
 401 993 401 993 507 993 c 0,91,92
 548 993 548 993 584 987 c 1,93,94
 561 1032 561 1032 549 1079.5 c 128,-1,95
 537 1127 537 1127 537 1175 c 0,96,97
 537 1240 537 1240 559 1300 c 128,-1,98
 581 1360 581 1360 625.5 1406.5 c 128,-1,99
 670 1453 670 1453 736 1480.5 c 128,-1,100
 802 1508 802 1508 890 1508 c 0,101,102
 975 1508 975 1508 1036.5 1481.5 c 128,-1,103
 1098 1455 1098 1455 1137.5 1411 c 128,-1,104
 1177 1367 1177 1367 1196 1311 c 128,-1,105
 1215 1255 1215 1255 1215 1195 c 2,106,-1
 1215 960 l 1,0,-1
EndSplineSet
Validated: 1
Ligature2: "sous-table 'dlig' Ligatures facultatives  dans Latin lookup 36" c t
EndChar

StartChar: ccedilla_t.dlig
Encoding: 1114117 -1 54
Width: 1537
GlyphClass: 3
Flags: MW
LayerCount: 2
Fore
SplineSet
1215 960 m 1,0,-1
 1479 960 l 1,1,-1
 1479 832 l 1,2,-1
 1215 832 l 1,3,-1
 1215 248 l 2,4,5
 1215 188 1215 188 1242 158 c 128,-1,6
 1269 128 1269 128 1312 128 c 0,7,8
 1337 128 1337 128 1355 135 c 128,-1,9
 1373 142 1373 142 1385.5 151 c 128,-1,10
 1398 160 1398 160 1407 167 c 128,-1,11
 1416 174 1416 174 1424 174 c 0,12,13
 1439 174 1439 174 1448 157 c 2,14,-1
 1501 73 l 1,15,16
 1457 31 1457 31 1397 8 c 128,-1,17
 1337 -15 1337 -15 1271 -15 c 0,18,19
 1160 -15 1160 -15 1099.5 50 c 128,-1,20
 1039 115 1039 115 1039 236 c 2,21,-1
 1039 832 l 1,22,-1
 931 832 l 2,23,24
 916 832 916 832 905.5 842 c 128,-1,25
 895 852 895 852 895 871 c 2,26,-1
 895 941 l 1,27,-1
 1052 962 l 1,28,29
 1059 991 1059 991 1067 1023.5 c 128,-1,30
 1075 1056 1075 1056 1081 1089 c 128,-1,31
 1087 1122 1087 1122 1091 1155 c 128,-1,32
 1095 1188 1095 1188 1095 1218 c 0,33,34
 1095 1264 1095 1264 1084 1303.5 c 128,-1,35
 1073 1343 1073 1343 1048 1372 c 128,-1,36
 1023 1401 1023 1401 984 1417 c 128,-1,37
 945 1433 945 1433 890 1433 c 0,38,39
 824 1433 824 1433 774 1411.5 c 128,-1,40
 724 1390 724 1390 690.5 1354.5 c 128,-1,41
 657 1319 657 1319 640 1272.5 c 128,-1,42
 623 1226 623 1226 623 1176 c 0,43,44
 623 1116 623 1116 648.5 1054.5 c 128,-1,45
 674 993 674 993 723 939 c 1,46,47
 749 924 749 924 771.5 905.5 c 128,-1,48
 794 887 794 887 815 866 c 1,49,-1
 769 802 l 2,50,51
 761 791 761 791 753.5 785.5 c 128,-1,52
 746 780 746 780 732 780 c 0,53,54
 717 780 717 780 701 792 c 128,-1,55
 685 804 685 804 661 818.5 c 128,-1,56
 637 833 637 833 602.5 845 c 128,-1,57
 568 857 568 857 518 857 c 0,58,59
 452 857 452 857 401.5 831.5 c 128,-1,60
 351 806 351 806 317.5 758.5 c 128,-1,61
 284 711 284 711 266.5 643 c 128,-1,62
 249 575 249 575 249 490 c 0,63,64
 249 402 249 402 267.5 333.5 c 128,-1,65
 286 265 286 265 320 218 c 128,-1,66
 354 171 354 171 402 146.5 c 128,-1,67
 450 122 450 122 510 122 c 0,68,69
 568 122 568 122 605 137 c 128,-1,70
 642 152 642 152 667 170 c 128,-1,71
 692 188 692 188 708.5 203 c 128,-1,72
 725 218 725 218 743 218 c 0,73,74
 763 218 763 218 775 201 c 2,75,-1
 826 137 l 1,76,77
 776 74 776 74 708 39 c 128,-1,78
 640 4 640 4 563 -7 c 1,79,-1
 545 -72 l 1,80,81
 635 -90 635 -90 674.5 -124 c 128,-1,82
 714 -158 714 -158 714 -210 c 0,83,84
 714 -241 714 -241 698.5 -266 c 128,-1,85
 683 -291 683 -291 655.5 -308 c 128,-1,86
 628 -325 628 -325 589 -334.5 c 128,-1,87
 550 -344 550 -344 504 -344 c 0,88,89
 465 -344 465 -344 429 -336 c 128,-1,90
 393 -328 393 -328 363 -314 c 1,91,-1
 380 -260 l 2,92,93
 386 -243 386 -243 402 -243 c 0,94,95
 408 -243 408 -243 415.5 -246.5 c 128,-1,96
 423 -250 423 -250 434 -254 c 128,-1,97
 445 -258 445 -258 459.5 -261.5 c 128,-1,98
 474 -265 474 -265 495 -265 c 0,99,100
 535 -265 535 -265 555.5 -249 c 128,-1,101
 576 -233 576 -233 576 -208 c 0,102,103
 576 -171 576 -171 535.5 -156.5 c 128,-1,104
 495 -142 495 -142 421 -132 c 1,105,-1
 460 -13 l 1,106,107
 377 -9 377 -9 305.5 26 c 128,-1,108
 234 61 234 61 181.5 125.5 c 128,-1,109
 129 190 129 190 99 281.5 c 128,-1,110
 69 373 69 373 69 490 c 0,111,112
 69 599 69 599 98 691.5 c 128,-1,113
 127 784 127 784 182.5 851 c 128,-1,114
 238 918 238 918 319.5 955.5 c 128,-1,115
 401 993 401 993 507 993 c 0,116,117
 548 993 548 993 584 987 c 1,118,119
 561 1032 561 1032 549 1079.5 c 128,-1,120
 537 1127 537 1127 537 1175 c 0,121,122
 537 1240 537 1240 559 1300 c 128,-1,123
 581 1360 581 1360 625.5 1406.5 c 128,-1,124
 670 1453 670 1453 736 1480.5 c 128,-1,125
 802 1508 802 1508 890 1508 c 0,126,127
 975 1508 975 1508 1036.5 1481.5 c 128,-1,128
 1098 1455 1098 1455 1137.5 1411 c 128,-1,129
 1177 1367 1177 1367 1196 1311 c 128,-1,130
 1215 1255 1215 1255 1215 1195 c 2,131,-1
 1215 960 l 1,0,-1
EndSplineSet
Validated: 1
Ligature2: "sous-table 'dlig' Ligatures facultatives  dans Latin lookup 36" ccedilla t
EndChar

StartChar: d
Encoding: 100 100 55
Width: 1176
GlyphClass: 2
Flags: W
AnchorPoint: "Ancre-5" 1076 1492 basechar 0
AnchorPoint: "Ancre-3" 1076 -510 basechar 0
AnchorPoint: "Ancre-2" 1076 1515 basechar 0
AnchorPoint: "Ancre-1" 461 0 basechar 0
AnchorPoint: "Ancre-0" 527 1492 basechar 0
LayerCount: 2
Fore
SplineSet
1007 0 m 1,0,-1
 902 0 l 2,1,2
 875 0 875 0 857 13 c 0,3,4
 836 28 836 28 832 58 c 2,5,-1
 822 122 l 1,6,7
 769 70 769 70 701 35 c 0,8,9
 606 -14 606 -14 482 -14 c 0,10,11
 383 -14 383 -14 304 21 c 0,12,13
 231 54 231 54 179 119 c 0,14,15
 128 182 128 182 101 275 c 0,16,17
 74 367 74 367 74 486 c 0,18,19
 74 592 74 592 104 684 c 0,20,21
 134 777 134 777 190 845 c 0,22,23
 247 914 247 914 332 953 c 0,24,25
 425 995 425 995 541 995 c 0,26,27
 647 995 647 995 723 963 c 0,28,29
 768 944 768 944 806 915 c 1,30,-1
 806 1397 l 1,31,-1
 806 1422 l 1,32,-1
 831 1422 l 1,33,-1
 1007 1422 l 1,34,-1
 1032 1422 l 1,35,-1
 1032 1397 l 1,36,-1
 1032 25 l 1,37,-1
 1032 0 l 1,38,-1
 1007 0 l 1,0,-1
444 194 m 0,39,40
 489 177 489 177 546 177 c 0,41,42
 631 177 631 177 693 209 c 0,43,44
 754 241 754 241 806 297 c 1,45,-1
 806 720 l 1,46,47
 762 769 762 769 710 789 c 0,48,49
 654 810 654 810 585 810 c 0,50,51
 450 810 450 810 378 729 c 0,52,53
 305 645 305 645 305 487 c 0,54,55
 305 402 305 402 321 341 c 0,56,57
 338 282 338 282 370 246 c 0,58,59
 400 210 400 210 444 194 c 0,39,40
EndSplineSet
Validated: 1
Substitution2: "sous-table 'smcp' Bas-de-casse vers petites capitales dans Latin lookup 0" d.smcp
Substitution2: "sous-table 'ordn' Ordinaux dans Latin lookup 39" d.superior
Substitution2: "sous-table 'sups' Exposant lookups25" d.superior
EndChar

StartChar: dcroat
Encoding: 273 273 57
Width: 1230
GlyphClass: 2
Flags: W
AnchorPoint: "Ancre-0" 527 1492 basechar 0
AnchorPoint: "Ancre-1" 461 0 basechar 0
AnchorPoint: "Ancre-2" 1076 1515 basechar 0
AnchorPoint: "Ancre-3" 1076 -510 basechar 0
AnchorPoint: "Ancre-5" 1076 1492 basechar 0
LayerCount: 2
Fore
SplineSet
581 1214 m 1,0,-1
 608 1214 l 1,1,-1
 839 1214 l 1,2,-1
 839 1397 l 1,3,-1
 839 1422 l 1,4,-1
 866 1422 l 1,5,-1
 1051 1422 l 1,6,-1
 1076 1422 l 1,7,-1
 1076 1397 l 1,8,-1
 1076 1214 l 1,9,-1
 1201 1214 l 1,10,-1
 1226 1214 l 1,11,-1
 1226 1189 l 1,12,-1
 1226 1077 l 1,13,-1
 1226 1052 l 1,14,-1
 1201 1052 l 1,15,-1
 1076 1052 l 1,16,-1
 1076 25 l 1,17,-1
 1076 0 l 1,18,-1
 1051 0 l 1,19,-1
 943 0 l 2,20,21
 914 0 914 0 894 13 c 0,22,23
 872 28 872 28 868 58 c 2,24,-1
 857 125 l 1,25,26
 798 72 798 72 727 36 c 0,27,28
 630 -14 630 -14 505 -14 c 0,29,30
 403 -14 403 -14 321 19 c 0,31,32
 244 50 244 50 190 113 c 0,33,34
 137 175 137 175 108 266 c 0,35,36
 79 356 79 356 79 476 c 0,37,38
 79 582 79 582 110 673 c 0,39,40
 142 764 142 764 202 831 c 0,41,42
 263 898 263 898 351 936 c 0,43,44
 445 974 445 974 562 974 c 0,45,46
 670 974 670 974 748 941 c 0,47,48
 797 921 797 921 839 889 c 1,49,-1
 839 1052 l 1,50,-1
 608 1052 l 1,51,-1
 581 1052 l 1,52,-1
 581 1077 l 1,53,-1
 581 1189 l 1,54,-1
 581 1214 l 1,0,-1
455 193 m 0,55,56
 503 177 503 177 565 177 c 0,57,58
 653 177 653 177 719 209 c 0,59,60
 783 241 783 241 839 299 c 1,61,-1
 839 697 l 1,62,63
 791 746 791 746 737 766 c 0,64,65
 678 788 678 788 605 788 c 0,66,67
 462 788 462 788 386 712 c 0,68,69
 310 634 310 634 310 476 c 0,70,71
 310 391 310 391 327 332 c 0,72,73
 344 275 344 275 377 241 c 0,74,75
 409 208 409 208 455 193 c 0,55,56
EndSplineSet
Validated: 1
Substitution2: "sous-table 'smcp' Bas-de-casse vers petites capitales dans Latin lookup 0" dcroat.smcp
EndChar

StartChar: eth
Encoding: 240 240 58
Width: 1176
GlyphClass: 2
Flags: W
LayerCount: 2
Fore
SplineSet
452 935 m 5,0,-1
 415 990 l 6,1,2
 397 1017 397 1017 404 1043 c 4,3,4
 411 1068 411 1068 438 1086 c 6,5,-1
 505 1127 l 5,6,7
 480 1136 480 1136 454 1144 c 4,8,9
 402 1159 402 1159 343 1173 c 4,10,11
 308 1181 308 1181 289 1210 c 4,12,13
 278 1228 278 1228 278 1250 c 4,14,15
 278 1268 278 1268 285 1288 c 6,16,-1
 306 1349 l 5,17,-1
 313 1369 l 5,18,-1
 335 1366 l 6,19,20
 440 1351 440 1351 538 1321 c 4,21,22
 628 1294 628 1294 710 1251 c 5,23,-1
 871 1358 l 5,24,-1
 893 1374 l 5,25,-1
 907 1351 l 5,26,-1
 942 1295 l 6,27,28
 959 1269 959 1269 952 1242 c 4,29,30
 945 1217 945 1217 921 1201 c 6,31,-1
 855 1157 l 5,32,33
 900 1116 900 1116 939 1067 c 4,34,35
 988 1007 988 1007 1023.5 933 c 132,-1,36
 1059 859 1059 859 1078 771 c 132,-1,37
 1097 683 1097 683 1097 581 c 4,38,39
 1097 446 1097 446 1066 337 c 4,40,41
 1035 227 1035 227 972 149 c 132,-1,42
 909 71 909 71 811 29 c 4,43,44
 708 -13 708 -13 574 -13 c 4,45,46
 464 -13 464 -13 369 20 c 4,47,48
 278 52 278 52 213 112.5 c 132,-1,49
 148 173 148 173 111 260 c 4,50,51
 75 346 75 346 75 454 c 4,52,53
 75 544 75 544 107 625 c 4,54,55
 139 707 139 707 198 768 c 4,56,57
 258 830 258 830 344 866 c 4,58,59
 438 902 438 902 554 902 c 4,60,61
 667 902 667 902 766 861 c 4,62,63
 821 838 821 838 866 802 c 5,64,65
 846 868 846 868 810 919 c 4,66,67
 757 994 757 994 671 1047 c 5,68,-1
 492 928 l 5,69,-1
 468 912 l 5,70,-1
 452 935 l 5,0,-1
470 193 m 4,71,72
 521 173 521 173 578 173 c 4,73,74
 715 173 715 173 796 267 c 4,75,76
 876 363 876 363 882 563 c 5,77,78
 868 600 868 600 845 635 c 4,79,80
 820 671 820 671 783 698 c 4,81,82
 747 726 747 726 700 743 c 4,83,84
 653 759 653 759 592 759 c 4,85,86
 518 759 518 759 464 737 c 132,-1,87
 410 715 410 715 373 677 c 132,-1,88
 336 639 336 639 317 588 c 4,89,90
 300 535 300 535 300 474 c 4,91,92
 300 400 300 400 321 343 c 4,93,94
 343 287 343 287 381 249 c 4,95,96
 419 212 419 212 470 193 c 4,71,72
EndSplineSet
Validated: 1
Substitution2: "sous-table 'smcp' Bas-de-casse vers petites capitales dans Latin lookup 0" eth.smcp
EndChar

StartChar: e
Encoding: 101 101 59
Width: 1119
GlyphClass: 2
Flags: W
AnchorPoint: "Ancre-5" 1019 1122 basechar 0
AnchorPoint: "Ancre-4" 864 550 basechar 0
AnchorPoint: "Ancre-3" 1019 -510 basechar 0
AnchorPoint: "Ancre-2" 1019 1515 basechar 0
AnchorPoint: "Ancre-1" 520 0 basechar 0
AnchorPoint: "Ancre-0" 536 1122 basechar 0
LayerCount: 2
Fore
SplineSet
362 954 m 0,0,1
 463 993 463 993 588 993 c 0,2,3
 691 993 691 993 780 962 c 0,4,5
 862 933 862 933 920.5 876 c 128,-1,6
 979 819 979 819 1012 737 c 0,7,8
 1045 656 1045 656 1045 552 c 0,9,10
 1045 506 1045 506 1032 486 c 0,11,12
 1016 463 1016 463 978 463 c 2,13,-1
 300 463 l 1,14,15
 304 396 304 396 323 346 c 0,16,17
 347 287 347 287 388 249 c 0,18,19
 429 212 429 212 486 193 c 0,20,21
 544 174 544 174 615 174 c 0,22,23
 682 174 682 174 730 187 c 0,24,25
 780 201 780 201 814 218 c 0,26,27
 847 236 847 236 869 250 c 0,28,29
 898 268 898 268 922 268 c 0,30,31
 940 268 940 268 953 260 c 0,32,33
 966 253 966 253 975 241 c 2,34,-1
 1025 177 l 1,35,-1
 1037 161 l 1,36,-1
 1024 146 l 2,37,38
 989 104 989 104 941 73 c 0,39,40
 894 43 894 43 841 24 c 0,41,42
 786 5 786 5 723 -5 c 0,43,44
 660 -14 660 -14 598 -14 c 0,45,46
 479 -14 479 -14 378 22 c 0,47,48
 281 56 281 56 214 123 c 0,49,50
 148 190 148 190 111 287 c 0,51,52
 75 383 75 383 75 508 c 0,53,54
 75 609 75 609 108 697 c 0,55,56
 141 785 141 785 204 851 c 0,57,58
 267 917 267 917 362 954 c 0,0,1
697 797 m 0,59,60
 650 815 650 815 591 815 c 0,61,62
 465 815 465 815 394 750 c 0,63,64
 330 692 330 692 309 596 c 1,65,-1
 836 596 l 1,66,67
 833 637 833 637 821 671 c 0,68,69
 806 716 806 716 775 748 c 0,70,71
 743 779 743 779 697 797 c 0,59,60
EndSplineSet
Validated: 1
Substitution2: "sous-table 'smcp' Bas-de-casse vers petites capitales dans Latin lookup 0" e.smcp
Substitution2: "sous-table 'ordn' Ordinaux dans Latin lookup 39" e.superior
Substitution2: "sous-table 'sups' Exposant lookups25" e.superior
EndChar

StartChar: eogonek
Encoding: 281 281 60
Width: 1119
GlyphClass: 2
Flags: W
AnchorPoint: "Ancre-5" 1019 1122 basechar 0
AnchorPoint: "Ancre-4" 864 550 basechar 0
AnchorPoint: "Ancre-3" 1019 -510 basechar 0
AnchorPoint: "Ancre-2" 1019 1515 basechar 0
AnchorPoint: "Ancre-1" 520 -300 basechar 0
AnchorPoint: "Ancre-0" 536 1122 basechar 0
LayerCount: 2
Fore
SplineSet
803 -160 m 0,0,1
 815 -153 815 -153 827 -153 c 0,2,3
 840 -153 840 -153 851.5 -160.5 c 128,-1,4
 863 -168 863 -168 868 -180 c 2,5,-1
 895 -245 l 1,6,-1
 902 -263 l 1,7,-1
 887 -275 l 2,8,9
 855 -300 855 -300 806 -315 c 0,10,11
 753 -330 753 -330 693 -330 c 0,12,13
 588 -330 588 -330 527 -287 c 0,14,15
 462 -241 462 -241 462 -165 c 0,16,17
 462 -106 462 -106 501 -55 c 0,18,19
 518 -33 518 -33 541 -12 c 1,20,21
 454 -5 454 -5 378 22 c 0,22,23
 281 56 281 56 214 123 c 0,24,25
 148 190 148 190 111 287 c 0,26,27
 75 383 75 383 75 508 c 0,28,29
 75 609 75 609 108 697 c 0,30,31
 141 785 141 785 204 851 c 0,32,33
 267 917 267 917 362 954 c 0,34,35
 463 993 463 993 588 993 c 0,36,37
 691 993 691 993 780 962 c 0,38,39
 862 933 862 933 920.5 876 c 128,-1,40
 979 819 979 819 1012 737 c 0,41,42
 1045 656 1045 656 1045 552 c 0,43,44
 1045 506 1045 506 1032 486 c 0,45,46
 1016 463 1016 463 978 463 c 2,47,-1
 300 463 l 1,48,49
 304 396 304 396 323 346 c 0,50,51
 347 287 347 287 388 249 c 0,52,53
 429 212 429 212 486 193 c 0,54,55
 544 174 544 174 615 174 c 0,56,57
 682 174 682 174 730 187 c 0,58,59
 780 201 780 201 814 218 c 0,60,61
 847 236 847 236 869 250 c 0,62,63
 898 268 898 268 922 268 c 0,64,65
 940 268 940 268 953 260 c 0,66,67
 966 253 966 253 975 241 c 2,68,-1
 1025 177 l 1,69,-1
 1037 161 l 1,70,-1
 1024 146 l 2,71,72
 976 89 976 89 906 53 c 0,73,74
 848 23 848 23 782 7 c 1,75,-1
 776 3 l 2,76,77
 756 -7 756 -7 736 -21 c 0,78,79
 717 -34 717 -34 700 -50 c 0,80,81
 684 -66 684 -66 674 -86 c 0,82,83
 665 -103 665 -103 665 -122 c 0,84,85
 665 -147 665 -147 682 -160 c 0,86,87
 701 -175 701 -175 733 -175 c 0,88,89
 754 -175 754 -175 767 -172 c 0,90,91
 781 -169 781 -169 790 -166 c 128,-1,92
 799 -163 799 -163 803 -160 c 0,0,1
697 797 m 0,93,94
 650 815 650 815 591 815 c 0,95,96
 465 815 465 815 394 750 c 0,97,98
 330 692 330 692 309 596 c 1,99,-1
 836 596 l 1,100,101
 833 637 833 637 821 671 c 0,102,103
 806 716 806 716 775 748 c 0,104,105
 743 779 743 779 697 797 c 0,93,94
EndSplineSet
Validated: 1
Substitution2: "sous-table 'smcp' Bas-de-casse vers petites capitales dans Latin lookup 0" eogonek.smcp
LCarets2: 1 0
Ligature2: "sous-table 'ccmp' Composition et d+AOkA-composition de glyphe (CJK) lookups10" e uni0328
EndChar

StartChar: f
Encoding: 102 102 61
Width: 675
GlyphClass: 2
Flags: W
AnchorPoint: "Ancre-5" 625 1538 basechar 0
AnchorPoint: "Ancre-3" 625 -510 basechar 0
AnchorPoint: "Ancre-2" 625 1515 basechar 0
AnchorPoint: "Ancre-1" 258 10 basechar 0
AnchorPoint: "Ancre-0" 415 1538 basechar 0
LayerCount: 2
Fore
SplineSet
170 0 m 1,0,-1
 170 25 l 1,1,-1
 170 793 l 1,2,-1
 93 803 l 2,3,4
 64 806 64 806 46 820 c 0,5,6
 35 829 35 829 29.5 841.5 c 128,-1,7
 24 854 24 854 24 868 c 2,8,-1
 24 936 l 1,9,-1
 24 960 l 1,10,-1
 49 960 l 1,11,-1
 170 960 l 1,12,-1
 170 1028 l 2,13,14
 170 1116 170 1116 194 1186 c 0,15,16
 218 1257 218 1257 264 1305 c 128,-1,17
 310 1353 310 1353 375 1379 c 0,18,19
 439 1404 439 1404 519 1404 c 0,20,21
 552 1404 552 1404 584 1399 c 0,22,23
 615 1394 615 1394 643 1385 c 2,24,-1
 662 1379 l 1,25,-1
 661 1360 l 1,26,-1
 656 1270 l 2,27,28
 654 1249 654 1249 642 1236 c 0,29,30
 630 1224 630 1224 610 1222 c 0,31,32
 587 1219 587 1219 548 1219 c 0,33,34
 510 1219 510 1219 480 1209 c 0,35,36
 453 1200 453 1200 433 1179 c 0,37,38
 413 1157 413 1157 402 1120 c 0,39,40
 390 1081 390 1081 390 1023 c 2,41,-1
 390 960 l 1,42,-1
 628 960 l 1,43,-1
 653 960 l 1,44,-1
 653 935 l 1,45,-1
 653 807 l 1,46,-1
 653 782 l 1,47,-1
 628 782 l 1,48,-1
 396 782 l 1,49,-1
 396 25 l 1,50,-1
 396 0 l 1,51,-1
 371 0 l 1,52,-1
 195 0 l 1,53,-1
 170 0 l 1,0,-1
EndSplineSet
Validated: 1
Substitution2: "sous-table 'smcp' Bas-de-casse vers petites capitales dans Latin lookup 0" f.smcp
Substitution2: "sous-table 'ordn' Ordinaux dans Latin lookup 39" f.superior
Substitution2: "sous-table 'sups' Exposant lookups25" f.superior
EndChar

StartChar: f_b.liga
Encoding: 1114118 -1 62
Width: 1690
GlyphClass: 3
Flags: MW
LayerCount: 2
Fore
SplineSet
771 0 m 1,0,-1
 771 1301 l 1,1,2
 733 1312 733 1312 691 1319 c 128,-1,3
 649 1326 649 1326 612 1326 c 0,4,5
 543 1326 543 1326 492.5 1304.5 c 128,-1,6
 442 1283 442 1283 409 1244.5 c 128,-1,7
 376 1206 376 1206 360 1153.5 c 128,-1,8
 344 1101 344 1101 344 1038 c 2,9,-1
 344 960 l 1,10,-1
 614 960 l 1,11,-1
 614 832 l 1,12,-1
 350 832 l 1,13,-1
 350 0 l 1,14,-1
 174 0 l 1,15,-1
 174 831 l 1,16,-1
 72 844 l 2,17,18
 51 846 51 846 38 857 c 128,-1,19
 25 868 25 868 25 888 c 2,20,-1
 25 960 l 1,21,-1
 174 960 l 1,22,-1
 174 1038 l 2,23,24
 174 1126 174 1126 198.5 1200 c 128,-1,25
 223 1274 223 1274 277 1328 c 128,-1,26
 331 1382 331 1382 416 1412 c 128,-1,27
 501 1442 501 1442 622 1442 c 0,28,29
 661 1442 661 1442 697 1439 c 128,-1,30
 733 1436 733 1436 769.5 1432.5 c 128,-1,31
 806 1429 806 1429 845.5 1426 c 128,-1,32
 885 1423 885 1423 932 1422 c 2,33,-1
 947 1422 l 1,34,-1
 952 1422 l 1,35,-1
 947 1418 l 1,36,-1
 947 839 l 1,37,38
 1007 910 1007 910 1084 951.5 c 128,-1,39
 1161 993 1161 993 1261 993 c 0,40,41
 1346 993 1346 993 1414 960 c 128,-1,42
 1482 927 1482 927 1530 865 c 128,-1,43
 1578 803 1578 803 1603.5 714.5 c 128,-1,44
 1629 626 1629 626 1629 514 c 0,45,46
 1629 395 1629 395 1600 298 c 128,-1,47
 1571 201 1571 201 1517 131.5 c 128,-1,48
 1463 62 1463 62 1386 24 c 128,-1,49
 1309 -14 1309 -14 1213 -14 c 256,50,51
 1117 -14 1117 -14 1052.5 22.5 c 128,-1,52
 988 59 988 59 938 124 c 1,53,-1
 928 37 l 2,54,55
 924 0 924 0 885 0 c 2,56,-1
 771 0 l 1,0,-1
1202 854 m 0,57,58
 1121 854 1121 854 1059.5 816 c 128,-1,59
 998 778 998 778 947 708 c 1,60,-1
 947 236 l 1,61,62
 993 173 993 173 1048 147.5 c 128,-1,63
 1103 122 1103 122 1169 122 c 0,64,65
 1304 122 1304 122 1376 219 c 128,-1,66
 1448 316 1448 316 1448 508 c 0,67,68
 1448 686 1448 686 1384 770 c 128,-1,69
 1320 854 1320 854 1202 854 c 0,57,58
EndSplineSet
Validated: 1
Ligature2: "sous-table 'liga' Ligatures standard dans Latin lookup 37" f b
EndChar

StartChar: f_f_b.liga
Encoding: 1114119 -1 63
Width: 2261
GlyphClass: 3
Flags: MW
LayerCount: 2
Fore
SplineSet
172 0 m 1,0,-1
 172 831 l 1,1,-1
 71 844 l 2,2,3
 50 846 50 846 37.5 857 c 128,-1,4
 25 868 25 868 25 888 c 2,5,-1
 25 960 l 1,6,-1
 172 960 l 1,7,-1
 172 1038 l 2,8,9
 172 1122 172 1122 195 1187.5 c 128,-1,10
 218 1253 218 1253 260.5 1297.5 c 128,-1,11
 303 1342 303 1342 363.5 1365.5 c 128,-1,12
 424 1389 424 1389 499 1389 c 0,13,14
 531 1389 531 1389 560.5 1384 c 128,-1,15
 590 1379 590 1379 617 1370 c 1,16,-1
 612 1282 l 2,17,18
 610 1259 610 1259 588 1256.5 c 128,-1,19
 566 1254 566 1254 528 1254 c 0,20,21
 486 1254 486 1254 451.5 1243 c 128,-1,22
 417 1232 417 1232 392.5 1206 c 128,-1,23
 368 1180 368 1180 355 1137.5 c 128,-1,24
 342 1095 342 1095 342 1033 c 2,25,-1
 342 960 l 1,26,-1
 758 960 l 1,27,-1
 758 1038 l 2,28,29
 758 1126 758 1126 782.5 1200 c 128,-1,30
 807 1274 807 1274 860.5 1328 c 128,-1,31
 914 1382 914 1382 999 1412 c 128,-1,32
 1084 1442 1084 1442 1204 1442 c 0,33,34
 1245 1442 1245 1442 1282.5 1439 c 128,-1,35
 1320 1436 1320 1436 1358 1432 c 128,-1,36
 1396 1428 1396 1428 1438 1425 c 128,-1,37
 1480 1422 1480 1422 1530 1422 c 1,38,-1
 1522 1415 l 1,39,-1
 1522 839 l 1,40,41
 1582 910 1582 910 1659 951.5 c 128,-1,42
 1736 993 1736 993 1836 993 c 0,43,44
 1921 993 1921 993 1989 960 c 128,-1,45
 2057 927 2057 927 2105 865 c 128,-1,46
 2153 803 2153 803 2178.5 714.5 c 128,-1,47
 2204 626 2204 626 2204 514 c 0,48,49
 2204 395 2204 395 2175 298 c 128,-1,50
 2146 201 2146 201 2092 131.5 c 128,-1,51
 2038 62 2038 62 1961 24 c 128,-1,52
 1884 -14 1884 -14 1788 -14 c 256,53,54
 1692 -14 1692 -14 1627.5 22.5 c 128,-1,55
 1563 59 1563 59 1513 124 c 1,56,-1
 1503 37 l 2,57,58
 1499 0 1499 0 1460 0 c 2,59,-1
 1346 0 l 1,60,-1
 1346 1303 l 1,61,62
 1309 1313 1309 1313 1269 1319.5 c 128,-1,63
 1229 1326 1229 1326 1194 1326 c 0,64,65
 1125 1326 1125 1326 1075 1304.5 c 128,-1,66
 1025 1283 1025 1283 992.5 1244.5 c 128,-1,67
 960 1206 960 1206 944 1153.5 c 128,-1,68
 928 1101 928 1101 928 1038 c 2,69,-1
 928 960 l 1,70,-1
 1194 960 l 1,71,-1
 1194 832 l 1,72,-1
 934 832 l 1,73,-1
 934 0 l 1,74,-1
 758 0 l 1,75,-1
 758 832 l 1,76,-1
 348 832 l 1,77,-1
 348 0 l 1,78,-1
 172 0 l 1,0,-1
1777 854 m 0,79,80
 1696 854 1696 854 1634.5 816 c 128,-1,81
 1573 778 1573 778 1522 708 c 1,82,-1
 1522 236 l 1,83,84
 1568 173 1568 173 1623 147.5 c 128,-1,85
 1678 122 1678 122 1744 122 c 0,86,87
 1879 122 1879 122 1951 219 c 128,-1,88
 2023 316 2023 316 2023 508 c 0,89,90
 2023 686 2023 686 1959 770 c 128,-1,91
 1895 854 1895 854 1777 854 c 0,79,80
EndSplineSet
Validated: 1
Ligature2: "sous-table 'liga' Ligatures standard dans Latin lookup 37" f f b
EndChar

StartChar: uniFB00
Encoding: 64256 64256 64
Width: 1195
GlyphClass: 3
Flags: MW
LayerCount: 2
Fore
SplineSet
168 0 m 1,0,-1
 168 831 l 1,1,-1
 71 844 l 2,2,3
 50 846 50 846 37 857 c 128,-1,4
 24 868 24 868 24 888 c 2,5,-1
 24 960 l 1,6,-1
 168 960 l 1,7,-1
 168 1038 l 2,8,9
 168 1122 168 1122 190.5 1187.5 c 128,-1,10
 213 1253 213 1253 255 1297.5 c 128,-1,11
 297 1342 297 1342 356.5 1365.5 c 128,-1,12
 416 1389 416 1389 490 1389 c 0,13,14
 521 1389 521 1389 550 1384 c 128,-1,15
 579 1379 579 1379 606 1370 c 1,16,-1
 601 1282 l 2,17,18
 599 1259 599 1259 577.5 1256.5 c 128,-1,19
 556 1254 556 1254 520 1254 c 0,20,21
 479 1254 479 1254 445.5 1243 c 128,-1,22
 412 1232 412 1232 388 1206 c 128,-1,23
 364 1180 364 1180 351 1137.5 c 128,-1,24
 338 1095 338 1095 338 1033 c 2,25,-1
 338 960 l 1,26,-1
 744 960 l 1,27,-1
 744 1064 l 2,28,29
 744 1148 744 1148 766.5 1213 c 128,-1,30
 789 1278 789 1278 831 1323 c 128,-1,31
 873 1368 873 1368 932.5 1391.5 c 128,-1,32
 992 1415 992 1415 1066 1415 c 0,33,34
 1127 1415 1127 1415 1182 1395 c 1,35,-1
 1177 1308 l 2,36,37
 1175 1285 1175 1285 1153 1282.5 c 128,-1,38
 1131 1280 1131 1280 1095 1280 c 0,39,40
 1054 1280 1054 1280 1020.5 1269 c 128,-1,41
 987 1258 987 1258 963.5 1232 c 128,-1,42
 940 1206 940 1206 927 1163.5 c 128,-1,43
 914 1121 914 1121 914 1058 c 2,44,-1
 914 960 l 1,45,-1
 1173 960 l 1,46,-1
 1173 832 l 1,47,-1
 920 832 l 1,48,-1
 920 0 l 1,49,-1
 744 0 l 1,50,-1
 744 832 l 1,51,-1
 344 832 l 1,52,-1
 344 0 l 1,53,-1
 168 0 l 1,0,-1
EndSplineSet
Validated: 1
Ligature2: "sous-table 'liga' Ligatures standard dans Latin lookup 37" f f
EndChar

StartChar: f_h.liga
Encoding: 1114120 -1 65
Width: 1691
GlyphClass: 3
Flags: MW
LayerCount: 2
Fore
SplineSet
758 0 m 1,0,-1
 758 1305 l 1,1,2
 722 1314 722 1314 684.5 1320 c 128,-1,3
 647 1326 647 1326 612 1326 c 0,4,5
 543 1326 543 1326 492 1304.5 c 128,-1,6
 441 1283 441 1283 408 1244.5 c 128,-1,7
 375 1206 375 1206 359 1153.5 c 128,-1,8
 343 1101 343 1101 343 1038 c 2,9,-1
 343 960 l 1,10,-1
 613 960 l 1,11,-1
 613 832 l 1,12,-1
 349 832 l 1,13,-1
 349 0 l 1,14,-1
 173 0 l 1,15,-1
 173 831 l 1,16,-1
 72 844 l 2,17,18
 51 846 51 846 38 857 c 128,-1,19
 25 868 25 868 25 888 c 2,20,-1
 25 960 l 1,21,-1
 173 960 l 1,22,-1
 173 1038 l 2,23,24
 173 1126 173 1126 197.5 1200 c 128,-1,25
 222 1274 222 1274 276 1328 c 128,-1,26
 330 1382 330 1382 415.5 1412 c 128,-1,27
 501 1442 501 1442 622 1442 c 0,28,29
 661 1442 661 1442 697 1439 c 128,-1,30
 733 1436 733 1436 769 1432.5 c 128,-1,31
 805 1429 805 1429 844.5 1426 c 128,-1,32
 884 1423 884 1423 931 1422 c 2,33,-1
 934 1422 l 1,34,-1
 951 1422 l 1,35,-1
 934 1409 l 1,36,-1
 934 849 l 1,37,38
 995 915 995 915 1069.5 954 c 128,-1,39
 1144 993 1144 993 1242 993 c 0,40,41
 1322 993 1322 993 1382.5 966.5 c 128,-1,42
 1443 940 1443 940 1484 891.5 c 128,-1,43
 1525 843 1525 843 1545.5 774.5 c 128,-1,44
 1566 706 1566 706 1566 623 c 2,45,-1
 1566 0 l 1,46,-1
 1390 0 l 1,47,-1
 1390 623 l 2,48,49
 1390 732 1390 732 1341 793 c 128,-1,50
 1292 854 1292 854 1191 854 c 0,51,52
 1116 854 1116 854 1052 818 c 128,-1,53
 988 782 988 782 934 719 c 1,54,-1
 934 0 l 1,55,-1
 758 0 l 1,0,-1
EndSplineSet
Validated: 1
Ligature2: "sous-table 'liga' Ligatures standard dans Latin lookup 37" f h
EndChar

StartChar: f_f_h.liga
Encoding: 1114121 -1 66
Width: 2261
GlyphClass: 3
Flags: MW
LayerCount: 2
Fore
SplineSet
172 0 m 1,0,-1
 172 831 l 1,1,-1
 71 844 l 2,2,3
 50 846 50 846 37.5 857 c 128,-1,4
 25 868 25 868 25 888 c 2,5,-1
 25 960 l 1,6,-1
 172 960 l 1,7,-1
 172 1038 l 2,8,9
 172 1122 172 1122 195 1187.5 c 128,-1,10
 218 1253 218 1253 260.5 1297.5 c 128,-1,11
 303 1342 303 1342 363.5 1365.5 c 128,-1,12
 424 1389 424 1389 499 1389 c 0,13,14
 531 1389 531 1389 560.5 1384 c 128,-1,15
 590 1379 590 1379 617 1370 c 1,16,-1
 612 1282 l 2,17,18
 610 1259 610 1259 588 1256.5 c 128,-1,19
 566 1254 566 1254 528 1254 c 0,20,21
 486 1254 486 1254 451.5 1243 c 128,-1,22
 417 1232 417 1232 392.5 1206 c 128,-1,23
 368 1180 368 1180 355 1137.5 c 128,-1,24
 342 1095 342 1095 342 1033 c 2,25,-1
 342 960 l 1,26,-1
 758 960 l 1,27,-1
 758 1038 l 2,28,29
 758 1126 758 1126 782.5 1200 c 128,-1,30
 807 1274 807 1274 860.5 1328 c 128,-1,31
 914 1382 914 1382 999 1412 c 128,-1,32
 1084 1442 1084 1442 1204 1442 c 0,33,34
 1245 1442 1245 1442 1282.5 1439 c 128,-1,35
 1320 1436 1320 1436 1358 1432 c 128,-1,36
 1396 1428 1396 1428 1438 1425 c 128,-1,37
 1480 1422 1480 1422 1530 1422 c 1,38,-1
 1522 1415 l 1,39,-1
 1522 849 l 1,40,41
 1583 915 1583 915 1657.5 954 c 128,-1,42
 1732 993 1732 993 1830 993 c 0,43,44
 1910 993 1910 993 1970.5 966.5 c 128,-1,45
 2031 940 2031 940 2072 891.5 c 128,-1,46
 2113 843 2113 843 2133.5 774.5 c 128,-1,47
 2154 706 2154 706 2154 623 c 2,48,-1
 2154 0 l 1,49,-1
 1978 0 l 1,50,-1
 1978 623 l 2,51,52
 1978 732 1978 732 1929 793 c 128,-1,53
 1880 854 1880 854 1779 854 c 0,54,55
 1704 854 1704 854 1640 818 c 128,-1,56
 1576 782 1576 782 1522 719 c 1,57,-1
 1522 0 l 1,58,-1
 1346 0 l 1,59,-1
 1346 1303 l 1,60,61
 1309 1313 1309 1313 1269 1319.5 c 128,-1,62
 1229 1326 1229 1326 1194 1326 c 0,63,64
 1125 1326 1125 1326 1075 1304.5 c 128,-1,65
 1025 1283 1025 1283 992.5 1244.5 c 128,-1,66
 960 1206 960 1206 944 1153.5 c 128,-1,67
 928 1101 928 1101 928 1038 c 2,68,-1
 928 960 l 1,69,-1
 1194 960 l 1,70,-1
 1194 832 l 1,71,-1
 934 832 l 1,72,-1
 934 0 l 1,73,-1
 758 0 l 1,74,-1
 758 832 l 1,75,-1
 348 832 l 1,76,-1
 348 0 l 1,77,-1
 172 0 l 1,0,-1
EndSplineSet
Validated: 1
Ligature2: "sous-table 'liga' Ligatures standard dans Latin lookup 37" f f h
EndChar

StartChar: f_igrave.liga
Encoding: 1114122 -1 68
Width: 1084
GlyphClass: 3
Flags: MW
LayerCount: 2
Fore
SplineSet
526 1306 m 2,0,1
 526 1291 526 1291 512 1287 c 128,-1,2
 498 1283 498 1283 474 1283 c 0,3,4
 408 1283 408 1283 376.5 1237.5 c 128,-1,5
 345 1192 345 1192 345 1088 c 2,6,-1
 345 960 l 1,7,-1
 926 960 l 1,8,-1
 926 0 l 1,9,-1
 750 0 l 1,10,-1
 750 832 l 1,11,-1
 351 832 l 1,12,-1
 351 0 l 1,13,-1
 175 0 l 1,14,-1
 175 831 l 1,15,-1
 71 844 l 2,16,17
 49 847 49 847 37 857 c 0,18,19
 24 868 24 868 24 888 c 2,20,-1
 24 960 l 1,21,-1
 175 960 l 1,22,-1
 175 1087 l 2,23,24
 175 1247 175 1247 247 1329.5 c 128,-1,25
 319 1412 319 1412 449 1412 c 0,26,27
 472 1412 472 1412 490.5 1410 c 128,-1,28
 509 1408 509 1408 526 1402 c 1,29,-1
 526 1400 l 1,30,-1
 692 1399 l 2,31,32
 724 1399 724 1399 740 1388 c 0,33,34
 755 1379 755 1379 769 1356 c 2,35,-1
 912 1123 l 1,36,-1
 812 1123 l 2,37,38
 792 1123 792 1123 779 1129 c 128,-1,39
 766 1135 766 1135 752 1150 c 2,40,-1
 526 1399 l 1,41,-1
 526 1306 l 2,0,1
EndSplineSet
Validated: 1
LCarets2: 1 0
Ligature2: "sous-table 'liga' Ligatures standard dans Latin lookup 37" f igrave
EndChar

StartChar: f_icircumflex.liga
Encoding: 1114123 -1 69
Width: 1084
GlyphClass: 3
Flags: MW
LayerCount: 2
Fore
SplineSet
175 0 m 1,0,-1
 175 831 l 1,1,-1
 71 844 l 2,2,3
 50 846 50 846 37 857 c 128,-1,4
 24 868 24 868 24 888 c 2,5,-1
 24 960 l 1,6,-1
 175 960 l 1,7,-1
 175 1087 l 2,8,9
 175 1247 175 1247 247 1329.5 c 128,-1,10
 319 1412 319 1412 449 1412 c 0,11,12
 472 1412 472 1412 490.5 1410 c 128,-1,13
 509 1408 509 1408 526 1402 c 1,14,-1
 526 1306 l 2,15,16
 526 1291 526 1291 512 1287 c 128,-1,17
 498 1283 498 1283 474 1283 c 0,18,19
 408 1283 408 1283 376.5 1237.5 c 128,-1,20
 345 1192 345 1192 345 1088 c 2,21,-1
 345 960 l 1,22,-1
 926 960 l 1,23,-1
 926 0 l 1,24,-1
 750 0 l 1,25,-1
 750 832 l 1,26,-1
 351 832 l 1,27,-1
 351 0 l 1,28,-1
 175 0 l 1,0,-1
1142 1128 m 1,29,-1
 1024 1128 l 2,30,31
 1013 1128 1013 1128 1002 1132 c 128,-1,32
 991 1136 991 1136 980 1147 c 2,33,-1
 862 1272 l 2,34,35
 857 1276 857 1276 853.5 1281 c 128,-1,36
 850 1286 850 1286 845 1291 c 1,37,38
 837 1280 837 1280 830 1273 c 2,39,-1
 711 1147 l 2,40,41
 693 1128 693 1128 667 1128 c 2,42,-1
 545 1128 l 1,43,-1
 762 1383 l 1,44,-1
 924 1383 l 1,45,-1
 1142 1128 l 1,29,-1
EndSplineSet
Validated: 1
Ligature2: "sous-table 'liga' Ligatures standard dans Latin lookup 37" f icircumflex
EndChar

StartChar: f_imacron.liga
Encoding: 1114126 -1 72
Width: 1103
GlyphClass: 3
Flags: MW
LayerCount: 2
Fore
SplineSet
155 0 m 1,0,-1
 155 831 l 1,1,-1
 51 844 l 2,2,3
 30 846 30 846 17 857 c 128,-1,4
 4 868 4 868 4 888 c 2,5,-1
 4 960 l 1,6,-1
 155 960 l 1,7,-1
 155 1087 l 2,8,9
 155 1247 155 1247 227 1329.5 c 128,-1,10
 299 1412 299 1412 429 1412 c 0,11,12
 452 1412 452 1412 470.5 1410 c 128,-1,13
 489 1408 489 1408 506 1402 c 1,14,-1
 506 1306 l 2,15,16
 506 1291 506 1291 492 1287 c 128,-1,17
 478 1283 478 1283 454 1283 c 0,18,19
 388 1283 388 1283 356.5 1237.5 c 128,-1,20
 325 1192 325 1192 325 1088 c 2,21,-1
 325 960 l 1,22,-1
 906 960 l 1,23,-1
 906 0 l 1,24,-1
 730 0 l 1,25,-1
 730 832 l 1,26,-1
 331 832 l 1,27,-1
 331 0 l 1,28,-1
 155 0 l 1,0,-1
536 1301 m 1,29,-1
 1091 1301 l 1,30,-1
 1091 1187 l 1,31,-1
 536 1187 l 1,32,-1
 536 1301 l 1,29,-1
EndSplineSet
Validated: 1
Ligature2: "sous-table 'liga' Ligatures standard dans Latin lookup 37" f imacron
EndChar

StartChar: f_dotlessi.liga
Encoding: 1114129 -1 75
Width: 1084
GlyphClass: 3
Flags: MW
LayerCount: 2
Fore
SplineSet
175 0 m 1,0,-1
 175 831 l 1,1,-1
 71 844 l 2,2,3
 50 846 50 846 37 857 c 128,-1,4
 24 868 24 868 24 888 c 2,5,-1
 24 960 l 1,6,-1
 175 960 l 1,7,-1
 175 1087 l 2,8,9
 175 1247 175 1247 247 1329.5 c 128,-1,10
 319 1412 319 1412 449 1412 c 0,11,12
 472 1412 472 1412 490.5 1410 c 128,-1,13
 509 1408 509 1408 526 1402 c 1,14,-1
 526 1306 l 2,15,16
 526 1291 526 1291 512 1287 c 128,-1,17
 498 1283 498 1283 474 1283 c 0,18,19
 408 1283 408 1283 376.5 1237.5 c 128,-1,20
 345 1192 345 1192 345 1088 c 2,21,-1
 345 960 l 1,22,-1
 926 960 l 1,23,-1
 926 0 l 1,24,-1
 750 0 l 1,25,-1
 750 832 l 1,26,-1
 351 832 l 1,27,-1
 351 0 l 1,28,-1
 175 0 l 1,0,-1
EndSplineSet
Validated: 1
Ligature2: "sous-table 'liga' Ligatures standard dans Latin lookup 37" f dotlessi
EndChar

StartChar: f_f_igrave.liga
Encoding: 1114130 -1 77
Width: 1654
GlyphClass: 3
Flags: MW
LayerCount: 2
Fore
SplineSet
171 0 m 1,0,-1
 171 831 l 1,1,-1
 71 844 l 2,2,3
 50 846 50 846 37 857 c 128,-1,4
 24 868 24 868 24 888 c 2,5,-1
 24 960 l 1,6,-1
 171 960 l 1,7,-1
 171 1038 l 2,8,9
 171 1122 171 1122 194 1187.5 c 128,-1,10
 217 1253 217 1253 259.5 1297.5 c 128,-1,11
 302 1342 302 1342 363 1365.5 c 128,-1,12
 424 1389 424 1389 499 1389 c 0,13,14
 530 1389 530 1389 560 1384 c 128,-1,15
 590 1379 590 1379 617 1370 c 1,16,-1
 612 1282 l 2,17,18
 610 1259 610 1259 588 1256.5 c 128,-1,19
 566 1254 566 1254 528 1254 c 0,20,21
 486 1254 486 1254 451.5 1243 c 128,-1,22
 417 1232 417 1232 392.5 1206 c 128,-1,23
 368 1180 368 1180 354.5 1137.5 c 128,-1,24
 341 1095 341 1095 341 1033 c 2,25,-1
 341 960 l 1,26,-1
 758 960 l 1,27,-1
 758 1087 l 2,28,29
 758 1247 758 1247 829.5 1329.5 c 128,-1,30
 901 1412 901 1412 1029 1412 c 0,31,32
 1052 1412 1052 1412 1070 1410 c 128,-1,33
 1088 1408 1088 1408 1104 1402 c 1,34,-1
 1104 1399 l 1,35,-1
 1232 1399 l 2,36,37
 1264 1399 1264 1399 1280 1388.5 c 128,-1,38
 1296 1378 1296 1378 1309 1356 c 2,39,-1
 1452 1123 l 1,40,-1
 1352 1123 l 2,41,42
 1332 1123 1332 1123 1319 1129 c 128,-1,43
 1306 1135 1306 1135 1292 1150 c 2,44,-1
 1104 1357 l 1,45,-1
 1104 1306 l 2,46,47
 1104 1291 1104 1291 1090.5 1287 c 128,-1,48
 1077 1283 1077 1283 1053 1283 c 0,49,50
 989 1283 989 1283 959 1237.5 c 128,-1,51
 929 1192 929 1192 929 1088 c 2,52,-1
 929 960 l 1,53,-1
 1500 960 l 1,54,-1
 1500 0 l 1,55,-1
 1324 0 l 1,56,-1
 1324 832 l 1,57,-1
 934 832 l 1,58,-1
 934 0 l 1,59,-1
 758 0 l 1,60,-1
 758 832 l 1,61,-1
 347 832 l 1,62,-1
 347 0 l 1,63,-1
 171 0 l 1,0,-1
EndSplineSet
Validated: 1
Ligature2: "sous-table 'liga' Ligatures standard dans Latin lookup 37" f f igrave
EndChar

StartChar: f_f_icircumflex.liga
Encoding: 1114131 -1 78
Width: 1654
GlyphClass: 3
Flags: MW
LayerCount: 2
Fore
SplineSet
1324 0 m 1,0,-1
 1324 832 l 1,1,-1
 934 832 l 1,2,-1
 934 0 l 1,3,-1
 758 0 l 1,4,-1
 758 832 l 1,5,-1
 347 832 l 1,6,-1
 347 0 l 1,7,-1
 171 0 l 1,8,-1
 171 831 l 1,9,-1
 71 844 l 2,10,11
 50 846 50 846 37 857 c 128,-1,12
 24 868 24 868 24 888 c 2,13,-1
 24 960 l 1,14,-1
 171 960 l 1,15,-1
 171 1038 l 2,16,17
 171 1122 171 1122 194 1187.5 c 128,-1,18
 217 1253 217 1253 259.5 1297.5 c 128,-1,19
 302 1342 302 1342 363 1365.5 c 128,-1,20
 424 1389 424 1389 499 1389 c 0,21,22
 530 1389 530 1389 560 1384 c 128,-1,23
 590 1379 590 1379 617 1370 c 1,24,-1
 612 1282 l 2,25,26
 610 1259 610 1259 588 1256.5 c 128,-1,27
 566 1254 566 1254 528 1254 c 0,28,29
 486 1254 486 1254 451.5 1243 c 128,-1,30
 417 1232 417 1232 392.5 1206 c 128,-1,31
 368 1180 368 1180 354.5 1137.5 c 128,-1,32
 341 1095 341 1095 341 1033 c 2,33,-1
 341 960 l 1,34,-1
 758 960 l 1,35,-1
 758 1087 l 2,36,37
 758 1247 758 1247 829.5 1329.5 c 128,-1,38
 901 1412 901 1412 1029 1412 c 0,39,40
 1052 1412 1052 1412 1070 1410 c 128,-1,41
 1088 1408 1088 1408 1104 1402 c 1,42,-1
 1104 1306 l 2,43,44
 1104 1291 1104 1291 1090.5 1287 c 128,-1,45
 1077 1283 1077 1283 1053 1283 c 0,46,47
 989 1283 989 1283 959 1237.5 c 128,-1,48
 929 1192 929 1192 929 1088 c 2,49,-1
 929 960 l 1,50,-1
 1500 960 l 1,51,-1
 1500 0 l 1,52,-1
 1324 0 l 1,0,-1
1682 1128 m 1,53,-1
 1564 1128 l 2,54,55
 1553 1128 1553 1128 1542 1132 c 128,-1,56
 1531 1136 1531 1136 1520 1147 c 2,57,-1
 1402 1272 l 2,58,59
 1397 1276 1397 1276 1393.5 1281 c 128,-1,60
 1390 1286 1390 1286 1385 1291 c 1,61,62
 1377 1280 1377 1280 1370 1273 c 2,63,-1
 1251 1147 l 2,64,65
 1233 1128 1233 1128 1207 1128 c 2,66,-1
 1085 1128 l 1,67,-1
 1302 1383 l 1,68,-1
 1464 1383 l 1,69,-1
 1682 1128 l 1,53,-1
EndSplineSet
Validated: 1
Ligature2: "sous-table 'liga' Ligatures standard dans Latin lookup 37" f f icircumflex
EndChar

StartChar: f_f_imacron.liga
Encoding: 1114134 -1 81
Width: 1673
GlyphClass: 3
Flags: MW
LayerCount: 2
Fore
SplineSet
1306 0 m 1,0,-1
 1306 832 l 1,1,-1
 916 832 l 1,2,-1
 916 0 l 1,3,-1
 740 0 l 1,4,-1
 740 832 l 1,5,-1
 329 832 l 1,6,-1
 329 0 l 1,7,-1
 153 0 l 1,8,-1
 153 831 l 1,9,-1
 53 844 l 2,10,11
 32 846 32 846 19 857 c 128,-1,12
 6 868 6 868 6 888 c 2,13,-1
 6 960 l 1,14,-1
 153 960 l 1,15,-1
 153 1038 l 2,16,17
 153 1122 153 1122 176 1187.5 c 128,-1,18
 199 1253 199 1253 241.5 1297.5 c 128,-1,19
 284 1342 284 1342 345 1365.5 c 128,-1,20
 406 1389 406 1389 481 1389 c 0,21,22
 512 1389 512 1389 542 1384 c 128,-1,23
 572 1379 572 1379 599 1370 c 1,24,-1
 594 1282 l 2,25,26
 592 1259 592 1259 570 1256.5 c 128,-1,27
 548 1254 548 1254 510 1254 c 0,28,29
 468 1254 468 1254 433.5 1243 c 128,-1,30
 399 1232 399 1232 374.5 1206 c 128,-1,31
 350 1180 350 1180 336.5 1137.5 c 128,-1,32
 323 1095 323 1095 323 1033 c 2,33,-1
 323 960 l 1,34,-1
 740 960 l 1,35,-1
 740 1087 l 2,36,37
 740 1247 740 1247 811.5 1329.5 c 128,-1,38
 883 1412 883 1412 1011 1412 c 0,39,40
 1034 1412 1034 1412 1052 1410 c 128,-1,41
 1070 1408 1070 1408 1086 1402 c 1,42,-1
 1086 1306 l 2,43,44
 1086 1291 1086 1291 1072.5 1287 c 128,-1,45
 1059 1283 1059 1283 1035 1283 c 0,46,47
 971 1283 971 1283 941 1237.5 c 128,-1,48
 911 1192 911 1192 911 1088 c 2,49,-1
 911 960 l 1,50,-1
 1482 960 l 1,51,-1
 1482 0 l 1,52,-1
 1306 0 l 1,0,-1
1123 1301 m 1,53,-1
 1678 1301 l 1,54,-1
 1678 1187 l 1,55,-1
 1123 1187 l 1,56,-1
 1123 1301 l 1,53,-1
EndSplineSet
Validated: 1
Ligature2: "sous-table 'liga' Ligatures standard dans Latin lookup 37" f f imacron
EndChar

StartChar: f_f_iogonek.liga
Encoding: 1114136 -1 83
Width: 1654
GlyphClass: 3
Flags: MW
LayerCount: 2
Fore
SplineSet
171 0 m 1,0,-1
 171 831 l 1,1,-1
 71 844 l 2,2,3
 50 846 50 846 37 857 c 128,-1,4
 24 868 24 868 24 888 c 2,5,-1
 24 960 l 1,6,-1
 171 960 l 1,7,-1
 171 1038 l 2,8,9
 171 1122 171 1122 194 1187.5 c 128,-1,10
 217 1253 217 1253 259.5 1297.5 c 128,-1,11
 302 1342 302 1342 363 1365.5 c 128,-1,12
 424 1389 424 1389 499 1389 c 0,13,14
 530 1389 530 1389 560 1384 c 128,-1,15
 590 1379 590 1379 617 1370 c 1,16,-1
 612 1282 l 2,17,18
 610 1259 610 1259 588 1256.5 c 128,-1,19
 566 1254 566 1254 528 1254 c 0,20,21
 486 1254 486 1254 451.5 1243 c 128,-1,22
 417 1232 417 1232 392.5 1206 c 128,-1,23
 368 1180 368 1180 354.5 1137.5 c 128,-1,24
 341 1095 341 1095 341 1033 c 2,25,-1
 341 960 l 1,26,-1
 758 960 l 1,27,-1
 758 1087 l 2,28,29
 758 1247 758 1247 829.5 1329.5 c 128,-1,30
 901 1412 901 1412 1029 1412 c 0,31,32
 1052 1412 1052 1412 1070 1410 c 128,-1,33
 1088 1408 1088 1408 1104 1402 c 1,34,-1
 1104 1306 l 2,35,36
 1104 1291 1104 1291 1090.5 1287 c 128,-1,37
 1077 1283 1077 1283 1053 1283 c 0,38,39
 989 1283 989 1283 959 1237.5 c 128,-1,40
 929 1192 929 1192 929 1088 c 2,41,-1
 929 960 l 1,42,-1
 1500 960 l 1,43,-1
 1500 0 l 1,44,-1
 1472 0 l 1,45,46
 1453 -11 1453 -11 1433.5 -25.5 c 128,-1,47
 1414 -40 1414 -40 1397.5 -59 c 128,-1,48
 1381 -78 1381 -78 1370.5 -100 c 128,-1,49
 1360 -122 1360 -122 1360 -147 c 0,50,51
 1360 -183 1360 -183 1384 -204 c 128,-1,52
 1408 -225 1408 -225 1446 -225 c 0,53,54
 1468 -225 1468 -225 1482 -221.5 c 128,-1,55
 1496 -218 1496 -218 1506 -214 c 128,-1,56
 1516 -210 1516 -210 1522 -206.5 c 128,-1,57
 1528 -203 1528 -203 1533 -203 c 0,58,59
 1546 -203 1546 -203 1551 -215 c 2,60,-1
 1578 -280 l 1,61,62
 1549 -302 1549 -302 1504.5 -316 c 128,-1,63
 1460 -330 1460 -330 1410 -330 c 0,64,65
 1325 -330 1325 -330 1276.5 -292 c 128,-1,66
 1228 -254 1228 -254 1228 -190 c 0,67,68
 1228 -134 1228 -134 1265.5 -85 c 128,-1,69
 1303 -36 1303 -36 1361 0 c 1,70,-1
 1324 0 l 1,71,-1
 1324 832 l 1,72,-1
 934 832 l 1,73,-1
 934 0 l 1,74,-1
 758 0 l 1,75,-1
 758 832 l 1,76,-1
 347 832 l 1,77,-1
 347 0 l 1,78,-1
 171 0 l 1,0,-1
1538 1291 m 0,79,80
 1538 1266 1538 1266 1528 1243.5 c 128,-1,81
 1518 1221 1518 1221 1500.5 1204.5 c 128,-1,82
 1483 1188 1483 1188 1460.5 1178 c 128,-1,83
 1438 1168 1438 1168 1413 1168 c 256,84,85
 1388 1168 1388 1168 1366 1178 c 128,-1,86
 1344 1188 1344 1188 1327.5 1204.5 c 128,-1,87
 1311 1221 1311 1221 1301 1243.5 c 128,-1,88
 1291 1266 1291 1266 1291 1291 c 0,89,90
 1291 1317 1291 1317 1301 1339.5 c 128,-1,91
 1311 1362 1311 1362 1327.5 1379 c 128,-1,92
 1344 1396 1344 1396 1366 1406 c 128,-1,93
 1388 1416 1388 1416 1413 1416 c 256,94,95
 1438 1416 1438 1416 1460.5 1406 c 128,-1,96
 1483 1396 1483 1396 1500.5 1379 c 128,-1,97
 1518 1362 1518 1362 1528 1339.5 c 128,-1,98
 1538 1317 1538 1317 1538 1291 c 0,79,80
EndSplineSet
Validated: 1
Ligature2: "sous-table 'liga' Ligatures standard dans Latin lookup 37" f f iogonek
EndChar

StartChar: f_f_dotlessi.liga
Encoding: 1114137 -1 84
Width: 1654
GlyphClass: 3
Flags: MW
LayerCount: 2
Fore
SplineSet
171 0 m 1,0,-1
 171 831 l 1,1,-1
 71 844 l 2,2,3
 50 846 50 846 37 857 c 128,-1,4
 24 868 24 868 24 888 c 2,5,-1
 24 960 l 1,6,-1
 171 960 l 1,7,-1
 171 1038 l 2,8,9
 171 1122 171 1122 194 1187.5 c 128,-1,10
 217 1253 217 1253 259.5 1297.5 c 128,-1,11
 302 1342 302 1342 363 1365.5 c 128,-1,12
 424 1389 424 1389 499 1389 c 0,13,14
 530 1389 530 1389 560 1384 c 128,-1,15
 590 1379 590 1379 617 1370 c 1,16,-1
 612 1282 l 2,17,18
 610 1259 610 1259 588 1256.5 c 128,-1,19
 566 1254 566 1254 528 1254 c 0,20,21
 486 1254 486 1254 451.5 1243 c 128,-1,22
 417 1232 417 1232 392.5 1206 c 128,-1,23
 368 1180 368 1180 354.5 1137.5 c 128,-1,24
 341 1095 341 1095 341 1033 c 2,25,-1
 341 960 l 1,26,-1
 758 960 l 1,27,-1
 758 1087 l 2,28,29
 758 1247 758 1247 829.5 1329.5 c 128,-1,30
 901 1412 901 1412 1029 1412 c 0,31,32
 1052 1412 1052 1412 1070 1410 c 128,-1,33
 1088 1408 1088 1408 1104 1402 c 1,34,-1
 1104 1306 l 2,35,36
 1104 1291 1104 1291 1090.5 1287 c 128,-1,37
 1077 1283 1077 1283 1053 1283 c 0,38,39
 989 1283 989 1283 959 1237.5 c 128,-1,40
 929 1192 929 1192 929 1088 c 2,41,-1
 929 960 l 1,42,-1
 1500 960 l 1,43,-1
 1500 0 l 1,44,-1
 1324 0 l 1,45,-1
 1324 832 l 1,46,-1
 934 832 l 1,47,-1
 934 0 l 1,48,-1
 758 0 l 1,49,-1
 758 832 l 1,50,-1
 347 832 l 1,51,-1
 347 0 l 1,52,-1
 171 0 l 1,0,-1
EndSplineSet
Validated: 1
Ligature2: "sous-table 'liga' Ligatures standard dans Latin lookup 37" f f dotlessi
EndChar

StartChar: f_k.liga
Encoding: 1114140 -1 87
Width: 1545
GlyphClass: 3
Flags: MW
LayerCount: 2
Fore
SplineSet
163 0 m 1,0,-1
 163 831 l 1,1,-1
 70 844 l 2,2,3
 49 846 49 846 36 857 c 128,-1,4
 23 868 23 868 23 888 c 2,5,-1
 23 960 l 1,6,-1
 163 960 l 1,7,-1
 163 1038 l 2,8,9
 163 1126 163 1126 186.5 1200 c 128,-1,10
 210 1274 210 1274 261.5 1328 c 128,-1,11
 313 1382 313 1382 394.5 1412 c 128,-1,12
 476 1442 476 1442 592 1442 c 0,13,14
 632 1442 632 1442 668 1439 c 128,-1,15
 704 1436 704 1436 741 1432 c 128,-1,16
 778 1428 778 1428 819 1425 c 128,-1,17
 860 1422 860 1422 910 1422 c 2,18,-1
 934 1422 l 1,19,-1
 934 586 l 1,20,-1
 974 586 l 2,21,22
 993 586 993 586 1004.5 591 c 128,-1,23
 1016 596 1016 596 1029 613 c 2,24,-1
 1289 944 l 2,25,26
 1303 960 1303 960 1318 969 c 128,-1,27
 1333 978 1333 978 1356 978 c 2,28,-1
 1516 978 l 1,29,-1
 1209 593 l 2,30,31
 1195 578 1195 578 1181 565.5 c 128,-1,32
 1167 553 1167 553 1151 543 c 1,33,34
 1168 532 1168 532 1181.5 516.5 c 128,-1,35
 1195 501 1195 501 1209 484 c 2,36,-1
 1536 0 l 1,37,-1
 1378 0 l 2,38,39
 1357 0 1357 0 1341 7.5 c 128,-1,40
 1325 15 1325 15 1312 33 c 2,41,-1
 1045 434 l 2,42,43
 1031 454 1031 454 1018.5 460.5 c 128,-1,44
 1006 467 1006 467 979 467 c 2,45,-1
 934 467 l 1,46,-1
 934 0 l 1,47,-1
 758 0 l 1,48,-1
 758 1296 l 1,49,50
 739 1302 739 1302 716.5 1307.5 c 128,-1,51
 694 1313 694 1313 670.5 1317 c 128,-1,52
 647 1321 647 1321 624.5 1323.5 c 128,-1,53
 602 1326 602 1326 582 1326 c 0,54,55
 518 1326 518 1326 471 1304.5 c 128,-1,56
 424 1283 424 1283 393.5 1244.5 c 128,-1,57
 363 1206 363 1206 348 1153.5 c 128,-1,58
 333 1101 333 1101 333 1038 c 2,59,-1
 333 960 l 1,60,-1
 584 960 l 1,61,-1
 584 832 l 1,62,-1
 339 832 l 1,63,-1
 339 0 l 1,64,-1
 163 0 l 1,0,-1
EndSplineSet
Validated: 1
Ligature2: "sous-table 'liga' Ligatures standard dans Latin lookup 37" f k
EndChar

StartChar: f_f_k.liga
Encoding: 1114141 -1 88
Width: 2115
GlyphClass: 3
Flags: MW
LayerCount: 2
Fore
SplineSet
163 0 m 1,0,-1
 163 831 l 1,1,-1
 69 844 l 2,2,3
 48 846 48 846 35 857 c 128,-1,4
 22 868 22 868 22 888 c 2,5,-1
 22 960 l 1,6,-1
 163 960 l 1,7,-1
 163 1038 l 2,8,9
 163 1122 163 1122 185 1187.5 c 128,-1,10
 207 1253 207 1253 248.5 1297.5 c 128,-1,11
 290 1342 290 1342 348.5 1365.5 c 128,-1,12
 407 1389 407 1389 480 1389 c 0,13,14
 539 1389 539 1389 594 1370 c 1,15,-1
 589 1282 l 2,16,17
 587 1259 587 1259 566 1256.5 c 128,-1,18
 545 1254 545 1254 510 1254 c 0,19,20
 469 1254 469 1254 436.5 1243 c 128,-1,21
 404 1232 404 1232 381 1206 c 128,-1,22
 358 1180 358 1180 345.5 1137.5 c 128,-1,23
 333 1095 333 1095 333 1033 c 2,24,-1
 333 960 l 1,25,-1
 727 960 l 1,26,-1
 727 1038 l 2,27,28
 727 1126 727 1126 750.5 1200 c 128,-1,29
 774 1274 774 1274 826 1328 c 128,-1,30
 878 1382 878 1382 960 1412 c 128,-1,31
 1042 1442 1042 1442 1158 1442 c 0,32,33
 1196 1442 1196 1442 1230.5 1439 c 128,-1,34
 1265 1436 1265 1436 1300 1432.5 c 128,-1,35
 1335 1429 1335 1429 1373.5 1426 c 128,-1,36
 1412 1423 1412 1423 1457 1422 c 2,37,-1
 1507 1422 l 1,38,-1
 1507 586 l 1,39,-1
 1547 586 l 2,40,41
 1566 586 1566 586 1577.5 591 c 128,-1,42
 1589 596 1589 596 1602 613 c 2,43,-1
 1862 944 l 2,44,45
 1876 960 1876 960 1891 969 c 128,-1,46
 1906 978 1906 978 1929 978 c 2,47,-1
 2089 978 l 1,48,-1
 1782 593 l 2,49,50
 1768 578 1768 578 1754 565.5 c 128,-1,51
 1740 553 1740 553 1724 543 c 1,52,53
 1741 532 1741 532 1754.5 516.5 c 128,-1,54
 1768 501 1768 501 1782 484 c 2,55,-1
 2109 0 l 1,56,-1
 1951 0 l 2,57,58
 1930 0 1930 0 1914 7.5 c 128,-1,59
 1898 15 1898 15 1885 33 c 2,60,-1
 1618 434 l 2,61,62
 1604 454 1604 454 1591.5 460.5 c 128,-1,63
 1579 467 1579 467 1552 467 c 2,64,-1
 1507 467 l 1,65,-1
 1507 0 l 1,66,-1
 1331 0 l 1,67,-1
 1331 1296 l 1,68,69
 1312 1302 1312 1302 1288.5 1307.5 c 128,-1,70
 1265 1313 1265 1313 1240.5 1317 c 128,-1,71
 1216 1321 1216 1321 1192 1323.5 c 128,-1,72
 1168 1326 1168 1326 1148 1326 c 0,73,74
 1083 1326 1083 1326 1036 1304.5 c 128,-1,75
 989 1283 989 1283 958 1244.5 c 128,-1,76
 927 1206 927 1206 912 1153.5 c 128,-1,77
 897 1101 897 1101 897 1038 c 2,78,-1
 897 960 l 1,79,-1
 1150 960 l 1,80,-1
 1150 832 l 1,81,-1
 903 832 l 1,82,-1
 903 0 l 1,83,-1
 727 0 l 1,84,-1
 727 832 l 1,85,-1
 339 832 l 1,86,-1
 339 0 l 1,87,-1
 163 0 l 1,0,-1
EndSplineSet
Validated: 1
Ligature2: "sous-table 'liga' Ligatures standard dans Latin lookup 37" f f k
EndChar

StartChar: uniFB02
Encoding: 64258 64258 89
Width: 1084
GlyphClass: 3
Flags: MW
LayerCount: 2
Fore
SplineSet
166 0 m 1,0,-1
 166 831 l 1,1,-1
 70 844 l 2,2,3
 49 846 49 846 36 857 c 128,-1,4
 23 868 23 868 23 888 c 2,5,-1
 23 960 l 1,6,-1
 166 960 l 1,7,-1
 166 1011 l 2,8,9
 166 1092 166 1092 189.5 1164.5 c 128,-1,10
 213 1237 213 1237 260.5 1291.5 c 128,-1,11
 308 1346 308 1346 379 1378 c 128,-1,12
 450 1410 450 1410 546 1410 c 0,13,14
 617 1410 617 1410 682 1404 c 128,-1,15
 747 1398 747 1398 810 1397 c 2,16,-1
 928 1397 l 1,17,-1
 928 0 l 1,18,-1
 753 0 l 1,19,-1
 753 1274 l 1,20,21
 705 1276 705 1276 656 1279 c 128,-1,22
 607 1282 607 1282 572 1282 c 0,23,24
 459 1282 459 1282 397.5 1210.5 c 128,-1,25
 336 1139 336 1139 336 1011 c 2,26,-1
 336 960 l 1,27,-1
 571 960 l 1,28,-1
 571 832 l 1,29,-1
 342 832 l 1,30,-1
 342 0 l 1,31,-1
 166 0 l 1,0,-1
EndSplineSet
Validated: 1
Ligature2: "sous-table 'liga' Ligatures standard dans Latin lookup 37" f l
EndChar

StartChar: uniFB04
Encoding: 64260 64260 90
Width: 1654
GlyphClass: 3
Flags: MW
LayerCount: 2
Fore
SplineSet
167 0 m 1,0,-1
 167 831 l 1,1,-1
 70 844 l 2,2,3
 50 846 50 846 37 857 c 128,-1,4
 24 868 24 868 24 888 c 2,5,-1
 24 960 l 1,6,-1
 167 960 l 1,7,-1
 167 1038 l 2,8,9
 167 1122 167 1122 189.5 1187.5 c 128,-1,10
 212 1253 212 1253 253.5 1297.5 c 128,-1,11
 295 1342 295 1342 354.5 1365.5 c 128,-1,12
 414 1389 414 1389 488 1389 c 0,13,14
 547 1389 547 1389 602 1370 c 1,15,-1
 598 1282 l 2,16,17
 597 1270 597 1270 591 1264.5 c 128,-1,18
 585 1259 585 1259 574.5 1256.5 c 128,-1,19
 564 1254 564 1254 549.5 1254 c 128,-1,20
 535 1254 535 1254 517 1254 c 0,21,22
 476 1254 476 1254 443 1243 c 128,-1,23
 410 1232 410 1232 386.5 1206 c 128,-1,24
 363 1180 363 1180 350 1137.5 c 128,-1,25
 337 1095 337 1095 337 1033 c 2,26,-1
 337 960 l 1,27,-1
 739 960 l 1,28,-1
 739 1011 l 2,29,30
 739 1092 739 1092 762 1164.5 c 128,-1,31
 785 1237 785 1237 832 1291.5 c 128,-1,32
 879 1346 879 1346 950 1378 c 128,-1,33
 1021 1410 1021 1410 1116 1410 c 0,34,35
 1188 1410 1188 1410 1252.5 1404 c 128,-1,36
 1317 1398 1317 1398 1380 1397 c 2,37,-1
 1499 1397 l 1,38,-1
 1499 0 l 1,39,-1
 1324 0 l 1,40,-1
 1324 1274 l 1,41,42
 1276 1276 1276 1276 1227 1279 c 128,-1,43
 1178 1282 1178 1282 1143 1282 c 0,44,45
 1031 1282 1031 1282 970 1210.5 c 128,-1,46
 909 1139 909 1139 909 1011 c 2,47,-1
 909 960 l 1,48,-1
 1166 960 l 1,49,-1
 1166 832 l 1,50,-1
 915 832 l 1,51,-1
 915 0 l 1,52,-1
 739 0 l 1,53,-1
 739 832 l 1,54,-1
 343 832 l 1,55,-1
 343 0 l 1,56,-1
 167 0 l 1,0,-1
EndSplineSet
Validated: 1
Ligature2: "sous-table 'liga' Ligatures standard dans Latin lookup 37" f f l
EndChar

StartChar: f_t.liga
Encoding: 1114142 -1 91
Width: 1261
GlyphClass: 3
Flags: MW
LayerCount: 2
Fore
SplineSet
939 832 m 1,0,-1
 939 248 l 2,1,2
 939 188 939 188 966 158 c 128,-1,3
 993 128 993 128 1037 128 c 0,4,5
 1062 128 1062 128 1079.5 135 c 128,-1,6
 1097 142 1097 142 1110 151 c 128,-1,7
 1123 160 1123 160 1132 167 c 128,-1,8
 1141 174 1141 174 1149 174 c 0,9,10
 1164 174 1164 174 1174 157 c 2,11,-1
 1226 73 l 1,12,13
 1182 31 1182 31 1121.5 8 c 128,-1,14
 1061 -15 1061 -15 996 -15 c 0,15,16
 884 -15 884 -15 823.5 50 c 128,-1,17
 763 115 763 115 763 236 c 2,18,-1
 763 832 l 1,19,-1
 345 832 l 1,20,-1
 345 0 l 1,21,-1
 169 0 l 1,22,-1
 169 831 l 1,23,-1
 71 844 l 2,24,25
 50 846 50 846 37 857 c 128,-1,26
 24 868 24 868 24 888 c 2,27,-1
 24 960 l 1,28,-1
 169 960 l 1,29,-1
 169 1053 l 2,30,31
 169 1137 169 1137 192 1202.5 c 128,-1,32
 215 1268 215 1268 257 1312.5 c 128,-1,33
 299 1357 299 1357 359 1380.5 c 128,-1,34
 419 1404 419 1404 493 1404 c 0,35,36
 554 1404 554 1404 609 1385 c 1,37,-1
 605 1297 l 2,38,39
 603 1274 603 1274 581 1271.5 c 128,-1,40
 559 1269 559 1269 522 1269 c 0,41,42
 480 1269 480 1269 446.5 1258 c 128,-1,43
 413 1247 413 1247 389 1221 c 128,-1,44
 365 1195 365 1195 352 1152.5 c 128,-1,45
 339 1110 339 1110 339 1048 c 2,46,-1
 339 960 l 1,47,-1
 769 960 l 1,48,-1
 810 1262 l 2,49,50
 812 1277 812 1277 822.5 1286 c 128,-1,51
 833 1295 833 1295 850 1295 c 2,52,-1
 939 1295 l 1,53,-1
 939 960 l 1,54,-1
 1203 960 l 1,55,-1
 1203 832 l 1,56,-1
 939 832 l 1,0,-1
EndSplineSet
Validated: 1
Ligature2: "sous-table 'liga' Ligatures standard dans Latin lookup 37" f t
EndChar

StartChar: f_f_t.liga
Encoding: 1114143 -1 92
Width: 1832
GlyphClass: 3
Flags: MW
LayerCount: 2
Fore
SplineSet
167 0 m 1,0,-1
 167 831 l 1,1,-1
 70 844 l 2,2,3
 49 846 49 846 36 857 c 128,-1,4
 23 868 23 868 23 888 c 2,5,-1
 23 960 l 1,6,-1
 167 960 l 1,7,-1
 167 1038 l 2,8,9
 167 1122 167 1122 190 1187.5 c 128,-1,10
 213 1253 213 1253 255 1297.5 c 128,-1,11
 297 1342 297 1342 357 1365.5 c 128,-1,12
 417 1389 417 1389 491 1389 c 0,13,14
 551 1389 551 1389 606 1370 c 1,15,-1
 602 1282 l 2,16,17
 600 1259 600 1259 578 1256.5 c 128,-1,18
 556 1254 556 1254 520 1254 c 0,19,20
 478 1254 478 1254 444.5 1243 c 128,-1,21
 411 1232 411 1232 387.5 1206 c 128,-1,22
 364 1180 364 1180 351 1137.5 c 128,-1,23
 338 1095 338 1095 338 1033 c 2,24,-1
 338 960 l 1,25,-1
 745 960 l 1,26,-1
 745 1053 l 2,27,28
 745 1137 745 1137 767.5 1202.5 c 128,-1,29
 790 1268 790 1268 832 1312.5 c 128,-1,30
 874 1357 874 1357 934 1380.5 c 128,-1,31
 994 1404 994 1404 1068 1404 c 0,32,33
 1099 1404 1099 1404 1128 1399 c 128,-1,34
 1157 1394 1157 1394 1184 1385 c 1,35,-1
 1179 1297 l 2,36,37
 1178 1285 1178 1285 1172 1279.5 c 128,-1,38
 1166 1274 1166 1274 1155 1271.5 c 128,-1,39
 1144 1269 1144 1269 1129.5 1269 c 128,-1,40
 1115 1269 1115 1269 1097 1269 c 0,41,42
 1056 1269 1056 1269 1022.5 1258 c 128,-1,43
 989 1247 989 1247 965 1221 c 128,-1,44
 941 1195 941 1195 928 1152.5 c 128,-1,45
 915 1110 915 1110 915 1048 c 2,46,-1
 915 960 l 1,47,-1
 1343 960 l 1,48,-1
 1383 1262 l 2,49,50
 1386 1277 1386 1277 1396 1286 c 128,-1,51
 1406 1295 1406 1295 1423 1295 c 2,52,-1
 1513 1295 l 1,53,-1
 1513 960 l 1,54,-1
 1775 960 l 1,55,-1
 1775 832 l 1,56,-1
 1513 832 l 1,57,-1
 1513 248 l 2,58,59
 1513 188 1513 188 1539.5 158 c 128,-1,60
 1566 128 1566 128 1608 128 c 0,61,62
 1633 128 1633 128 1651 135 c 128,-1,63
 1669 142 1669 142 1682 151 c 128,-1,64
 1695 160 1695 160 1704 167 c 128,-1,65
 1713 174 1713 174 1721 174 c 0,66,67
 1735 174 1735 174 1745 157 c 2,68,-1
 1797 73 l 1,69,70
 1753 31 1753 31 1693 8 c 128,-1,71
 1633 -15 1633 -15 1569 -15 c 0,72,73
 1457 -15 1457 -15 1397 50 c 128,-1,74
 1337 115 1337 115 1337 236 c 2,75,-1
 1337 832 l 1,76,-1
 921 832 l 1,77,-1
 921 0 l 1,78,-1
 745 0 l 1,79,-1
 745 832 l 1,80,-1
 343 832 l 1,81,-1
 343 0 l 1,82,-1
 167 0 l 1,0,-1
EndSplineSet
Validated: 1
Ligature2: "sous-table 'liga' Ligatures standard dans Latin lookup 37" f f t
EndChar

StartChar: g
Encoding: 103 103 93
Width: 1176
GlyphClass: 2
Flags: W
AnchorPoint: "Ancre-5" 1076 1122 basechar 0
AnchorPoint: "Ancre-3" 1076 -510 basechar 0
AnchorPoint: "Ancre-2" 1076 1515 basechar 0
AnchorPoint: "Ancre-1" 481 -369 basechar 0
AnchorPoint: "Ancre-0" 541 1122 basechar 0
LayerCount: 2
Fore
SplineSet
1035 978 m 1,0,-1
 1035 953 l 1,1,-1
 1035 72 l 2,2,3
 1035 -17 1035 -17 1003 -92 c 0,4,5
 970 -171 970 -171 908 -228 c 0,6,7
 846 -286 846 -286 753 -318 c 0,8,9
 654 -349 654 -349 528 -349 c 0,10,11
 388 -349 388 -349 291 -312 c 0,12,13
 201 -275 201 -275 139 -221 c 2,14,-1
 124 -207 l 1,15,-1
 135 -189 l 1,16,-1
 176 -122 l 2,17,18
 198 -84 198 -84 244 -84 c 0,19,20
 270 -84 270 -84 296 -102 c 0,21,22
 315 -115 315 -115 345 -131 c 0,23,24
 374 -146 374 -146 418 -159 c 0,25,26
 460 -171 460 -171 524 -171 c 0,27,28
 597 -171 597 -171 651 -152 c 0,29,30
 705 -133 705 -133 740 -101 c 128,-1,31
 775 -69 775 -69 793 -25 c 0,32,33
 809 20 809 20 809 72 c 2,34,-1
 809 120 l 1,35,36
 797 109 797 109 785 99 c 0,37,38
 746 70 746 70 703 50 c 0,39,40
 659 30 659 30 608 21 c 0,41,42
 558 11 558 11 499 11 c 0,43,44
 393 11 393 11 310 44 c 0,45,46
 234 77 234 77 181 141 c 0,47,48
 129 204 129 204 101 295 c 0,49,50
 74 385 74 385 74 500 c 0,51,52
 74 602 74 602 104 692 c 0,53,54
 134 782 134 782 192 849 c 0,55,56
 249 916 249 916 334 954 c 0,57,58
 427 995 427 995 543 995 c 0,59,60
 656 995 656 995 735 959 c 0,61,62
 789 934 789 934 830 896 c 1,63,-1
 834 922 l 2,64,65
 839 948 839 948 858.5 963 c 128,-1,66
 878 978 878 978 905 978 c 2,67,-1
 1010 978 l 1,68,-1
 1035 978 l 1,0,-1
446 219 m 0,69,70
 492 202 492 202 551 202 c 0,71,72
 634 202 634 202 696 234 c 0,73,74
 758 265 758 265 809 322 c 1,75,-1
 809 720 l 1,76,77
 767 767 767 767 714 788 c 0,78,79
 656 810 656 810 588 810 c 0,80,81
 452 810 452 810 379 733 c 0,82,83
 305 653 305 653 305 501 c 0,84,85
 305 420 305 420 321 362 c 0,86,87
 338 305 338 305 370 270 c 0,88,89
 401 235 401 235 446 219 c 0,69,70
EndSplineSet
Validated: 1
Substitution2: "sous-table 'smcp' Bas-de-casse vers petites capitales dans Latin lookup 0" g.smcp
Substitution2: "sous-table 'sups' Exposant lookups25" g.superior
Substitution2: "sous-table 'salt' Alternatives stylistiques lookups28" g.salt
Substitution2: "sous-table 'ss04' Style 4 lookups34" g.salt
Substitution2: "sous-table 'ordn' Ordinaux dans Latin lookup 39" g.superior
EndChar

StartChar: g.salt
Encoding: 1114144 -1 94
Width: 964
GlyphClass: 2
Flags: MW
LayerCount: 2
Fore
SplineSet
462 994 m 0,0,1
 523 994 523 994 576 980 c 128,-1,2
 629 966 629 966 672 940 c 1,3,-1
 928 940 l 1,4,-1
 928 875 l 2,5,6
 928 840 928 840 888 834 c 2,7,-1
 784 819 l 1,8,9
 815 755 815 755 815 679 c 0,10,11
 815 607 815 607 788.5 549 c 128,-1,12
 762 491 762 491 715 450 c 128,-1,13
 668 409 668 409 603.5 386.5 c 128,-1,14
 539 364 539 364 462 364 c 0,15,16
 398 364 398 364 344 379 c 1,17,18
 315 360 315 360 301 338.5 c 128,-1,19
 287 317 287 317 287 296 c 0,20,21
 287 261 287 261 314 244 c 128,-1,22
 341 227 341 227 385 219 c 128,-1,23
 429 211 429 211 485 209 c 128,-1,24
 541 207 541 207 599.5 202.5 c 128,-1,25
 658 198 658 198 714 188 c 128,-1,26
 770 178 770 178 814 153.5 c 128,-1,27
 858 129 858 129 885 86.5 c 128,-1,28
 912 44 912 44 912 -24 c 0,29,30
 912 -87 912 -87 882 -146 c 128,-1,31
 852 -205 852 -205 795.5 -251 c 128,-1,32
 739 -297 739 -297 657.5 -324.5 c 128,-1,33
 576 -352 576 -352 473 -352 c 256,34,35
 370 -352 370 -352 293 -331 c 128,-1,36
 216 -310 216 -310 165 -274 c 128,-1,37
 114 -238 114 -238 89 -191 c 128,-1,38
 64 -144 64 -144 64 -93 c 0,39,40
 64 -21 64 -21 106.5 29 c 128,-1,41
 149 79 149 79 224 108 c 1,42,43
 183 127 183 127 159 160 c 128,-1,44
 135 193 135 193 135 248 c 0,45,46
 135 290 135 290 165 337 c 128,-1,47
 195 384 195 384 255 415 c 1,48,49
 186 456 186 456 146.5 523 c 128,-1,50
 107 590 107 590 107 679 c 0,51,52
 107 751 107 751 133.5 809 c 128,-1,53
 160 867 160 867 207 908.5 c 128,-1,54
 254 950 254 950 319 972 c 128,-1,55
 384 994 384 994 462 994 c 0,0,1
750 -53 m 0,56,57
 750 -18 750 -18 731.5 4 c 128,-1,58
 713 26 713 26 681 38.5 c 128,-1,59
 649 51 649 51 607 56.5 c 128,-1,60
 565 62 565 62 518 65 c 128,-1,61
 471 68 471 68 422.5 70 c 128,-1,62
 374 72 374 72 329 79 c 1,63,64
 280 53 280 53 249 16.5 c 128,-1,65
 218 -20 218 -20 218 -71 c 0,66,67
 218 -104 218 -104 233 -132 c 128,-1,68
 248 -160 248 -160 279.5 -180.5 c 128,-1,69
 311 -201 311 -201 360 -213 c 128,-1,70
 409 -225 409 -225 476 -225 c 0,71,72
 542 -225 542 -225 593 -212 c 128,-1,73
 644 -199 644 -199 679 -176.5 c 128,-1,74
 714 -154 714 -154 732 -122.5 c 128,-1,75
 750 -91 750 -91 750 -53 c 0,56,57
462 480 m 0,76,77
 559 480 559 480 608.5 534 c 128,-1,78
 658 588 658 588 658 675 c 0,79,80
 658 764 658 764 608.5 816.5 c 128,-1,81
 559 869 559 869 462 869 c 0,82,83
 367 869 367 869 317.5 816.5 c 128,-1,84
 268 764 268 764 268 675 c 0,85,86
 268 632 268 632 280.5 596.5 c 128,-1,87
 293 561 293 561 317.5 535 c 128,-1,88
 342 509 342 509 378.5 494.5 c 128,-1,89
 415 480 415 480 462 480 c 0,76,77
EndSplineSet
Validated: 1
Substitution2: "sous-table 'sups' Exposant lookups25" g.superior.salt
Substitution2: "sous-table 'ordn' Ordinaux dans Latin lookup 39" g.superior.salt
EndChar

StartChar: h
Encoding: 104 104 95
Width: 1176
GlyphClass: 2
Flags: W
AnchorPoint: "Ancre-5" 1076 1492 basechar 0
AnchorPoint: "Ancre-3" 1076 -510 basechar 0
AnchorPoint: "Ancre-2" 1076 1515 basechar 0
AnchorPoint: "Ancre-1" 577 10 basechar 0
AnchorPoint: "Ancre-0" 562 1492 basechar 0
LayerCount: 2
Fore
SplineSet
143 0 m 1,0,-1
 143 25 l 1,1,-1
 143 1397 l 1,2,-1
 143 1422 l 1,3,-1
 168 1422 l 1,4,-1
 344 1422 l 1,5,-1
 369 1422 l 1,6,-1
 369 1397 l 1,7,-1
 369 883 l 1,8,9
 419 923 419 923 479 951 c 0,10,11
 570 993 570 993 688 993 c 0,12,13
 785 993 785 993 853 964 c 0,14,15
 919 937 919 937 963 887 c 0,16,17
 1007 837 1007 837 1029 767 c 0,18,19
 1051 699 1051 699 1051 617 c 2,20,-1
 1051 25 l 1,21,-1
 1051 0 l 1,22,-1
 1026 0 l 1,23,-1
 850 0 l 1,24,-1
 825 0 l 1,25,-1
 825 25 l 1,26,-1
 825 610 l 2,27,28
 825 704 825 704 778 755 c 0,29,30
 731 804 731 804 630 804 c 0,31,32
 552 804 552 804 486 773 c 0,33,34
 422 743 422 743 369 692 c 1,35,-1
 369 25 l 1,36,-1
 369 0 l 1,37,-1
 344 0 l 1,38,-1
 168 0 l 1,39,-1
 143 0 l 1,0,-1
EndSplineSet
Validated: 1
Substitution2: "sous-table 'smcp' Bas-de-casse vers petites capitales dans Latin lookup 0" h.smcp
Substitution2: "sous-table 'ordn' Ordinaux dans Latin lookup 39" h.superior
Substitution2: "sous-table 'sups' Exposant lookups25" h.superior
EndChar

StartChar: hbar
Encoding: 295 295 97
Width: 1191
GlyphClass: 2
Flags: W
AnchorPoint: "Ancre-0" 579 1492 basechar 0
AnchorPoint: "Ancre-1" 594 10 basechar 0
AnchorPoint: "Ancre-2" 1093 1515 basechar 0
AnchorPoint: "Ancre-3" 1093 -510 basechar 0
AnchorPoint: "Ancre-5" 1093 1492 basechar 0
LayerCount: 2
Fore
SplineSet
4 1226 m 1,0,-1
 29 1226 l 1,1,-1
 150 1226 l 1,2,-1
 150 1397 l 1,3,-1
 150 1422 l 1,4,-1
 175 1422 l 1,5,-1
 361 1422 l 1,6,-1
 388 1422 l 1,7,-1
 388 1397 l 1,8,-1
 388 1226 l 1,9,-1
 669 1226 l 1,10,-1
 696 1226 l 1,11,-1
 696 1201 l 1,12,-1
 696 1090 l 1,13,-1
 696 1065 l 1,14,-1
 669 1065 l 1,15,-1
 388 1065 l 1,16,-1
 388 860 l 1,17,18
 439 900 439 900 499 929 c 0,19,20
 589 972 589 972 703 972 c 0,21,22
 796 972 796 972 864 945 c 0,23,24
 930 918 930 918 976 867 c 0,25,26
 1021 817 1021 817 1043 747 c 0,27,28
 1065 679 1065 679 1065 597 c 2,29,-1
 1065 25 l 1,30,-1
 1065 0 l 1,31,-1
 1040 0 l 1,32,-1
 864 0 l 1,33,-1
 839 0 l 1,34,-1
 839 25 l 1,35,-1
 839 590 l 2,36,37
 839 684 839 684 792 734 c 0,38,39
 745 783 745 783 647 783 c 0,40,41
 572 783 572 783 506 752 c 0,42,43
 443 722 443 722 388 671 c 1,44,-1
 388 25 l 1,45,-1
 388 0 l 1,46,-1
 361 0 l 1,47,-1
 175 0 l 1,48,-1
 150 0 l 1,49,-1
 150 25 l 1,50,-1
 150 1065 l 1,51,-1
 29 1065 l 1,52,-1
 4 1065 l 1,53,-1
 4 1090 l 1,54,-1
 4 1201 l 1,55,-1
 4 1226 l 1,0,-1
EndSplineSet
Validated: 1
Substitution2: "sous-table 'smcp' Bas-de-casse vers petites capitales dans Latin lookup 0" hbar.smcp
EndChar

StartChar: dotlessi
Encoding: 305 305 100
Width: 520
GlyphClass: 2
Flags: W
AnchorPoint: "Ancre-5" 470 1122 basechar 0
AnchorPoint: "Ancre-4" 235 550 basechar 0
AnchorPoint: "Ancre-3" 470 -510 basechar 0
AnchorPoint: "Ancre-2" 470 1515 basechar 0
AnchorPoint: "Ancre-1" 238 10 basechar 0
AnchorPoint: "Ancre-0" 235 1122 basechar 0
LayerCount: 2
Fore
SplineSet
373 978 m 1,0,-1
 373 953 l 1,1,-1
 373 25 l 1,2,-1
 373 0 l 1,3,-1
 348 0 l 1,4,-1
 172 0 l 1,5,-1
 147 0 l 1,6,-1
 147 25 l 1,7,-1
 147 953 l 1,8,-1
 147 978 l 1,9,-1
 172 978 l 1,10,-1
 348 978 l 1,11,-1
 373 978 l 1,0,-1
EndSplineSet
Validated: 1
EndChar

StartChar: ij.salt
Encoding: 1114145 -1 101
Width: 1054
GlyphClass: 2
Flags: MW
LayerCount: 2
Fore
SplineSet
308 978 m 1,0,-1
 308 355 l 2,1,2
 308 245 308 245 358 184.5 c 128,-1,3
 408 124 408 124 515 124 c 0,4,5
 552 124 552 124 581 130 c 128,-1,6
 610 136 610 136 634 149.5 c 128,-1,7
 658 163 658 163 679.5 184.5 c 128,-1,8
 701 206 701 206 724 238 c 1,9,-1
 724 978 l 1,10,-1
 900 978 l 1,11,-1
 900 4 l 2,12,13
 900 -75 900 -75 878 -140.5 c 128,-1,14
 856 -206 856 -206 810 -252.5 c 128,-1,15
 764 -299 764 -299 694 -324.5 c 128,-1,16
 624 -350 624 -350 528 -350 c 0,17,18
 496 -350 496 -350 462 -345 c 128,-1,19
 428 -340 428 -340 402 -331 c 1,20,-1
 416 -237 l 2,21,22
 417 -228 417 -228 421.5 -223.5 c 128,-1,23
 426 -219 426 -219 434.5 -217.5 c 128,-1,24
 443 -216 443 -216 457 -216.5 c 128,-1,25
 471 -217 471 -217 493 -217 c 0,26,27
 609 -217 609 -217 666.5 -165 c 128,-1,28
 724 -113 724 -113 724 4 c 2,29,-1
 724 103 l 1,30,31
 698 74 698 74 670 52 c 128,-1,32
 642 30 642 30 610.5 15.5 c 128,-1,33
 579 1 579 1 542.5 -6.5 c 128,-1,34
 506 -14 506 -14 462 -14 c 0,35,36
 378 -14 378 -14 316 12.5 c 128,-1,37
 254 39 254 39 213 87.5 c 128,-1,38
 172 136 172 136 152 204 c 128,-1,39
 132 272 132 272 132 355 c 2,40,-1
 132 978 l 1,41,-1
 308 978 l 1,0,-1
940 1284 m 0,42,43
 940 1259 940 1259 929.5 1237 c 128,-1,44
 919 1215 919 1215 902 1198 c 128,-1,45
 885 1181 885 1181 862 1171 c 128,-1,46
 839 1161 839 1161 814 1161 c 0,47,48
 788 1161 788 1161 765.5 1171 c 128,-1,49
 743 1181 743 1181 726 1198 c 128,-1,50
 709 1215 709 1215 699 1237 c 128,-1,51
 689 1259 689 1259 689 1284 c 0,52,53
 689 1310 689 1310 699 1332.5 c 128,-1,54
 709 1355 709 1355 726 1372 c 128,-1,55
 743 1389 743 1389 765.5 1399 c 128,-1,56
 788 1409 788 1409 814 1409 c 0,57,58
 839 1409 839 1409 862 1399 c 128,-1,59
 885 1389 885 1389 902 1372 c 128,-1,60
 919 1355 919 1355 929.5 1332.5 c 128,-1,61
 940 1310 940 1310 940 1284 c 0,42,43
350 1284 m 0,62,63
 350 1259 350 1259 339.5 1237 c 128,-1,64
 329 1215 329 1215 312 1198 c 128,-1,65
 295 1181 295 1181 271.5 1171 c 128,-1,66
 248 1161 248 1161 223 1161 c 256,67,68
 198 1161 198 1161 175.5 1171 c 128,-1,69
 153 1181 153 1181 136.5 1198 c 128,-1,70
 120 1215 120 1215 110 1237 c 128,-1,71
 100 1259 100 1259 100 1284 c 0,72,73
 100 1310 100 1310 110 1332.5 c 128,-1,74
 120 1355 120 1355 136.5 1372 c 128,-1,75
 153 1389 153 1389 175.5 1399 c 128,-1,76
 198 1409 198 1409 223 1409 c 256,77,78
 248 1409 248 1409 271.5 1399 c 128,-1,79
 295 1389 295 1389 312 1372 c 128,-1,80
 329 1355 329 1355 339.5 1332.5 c 128,-1,81
 350 1310 350 1310 350 1284 c 0,62,63
EndSplineSet
Validated: 1
Ligature2: "sous-table 'dlig' Ligatures facultatives  dans Latin lookup 36" i j
EndChar

StartChar: uni0237
Encoding: 567 567 103
Width: 540
GlyphClass: 2
Flags: W
AnchorPoint: "Ancre-0" 252 1122 basechar 0
AnchorPoint: "Ancre-1" 182 -356 basechar 0
AnchorPoint: "Ancre-2" 490 1515 basechar 0
AnchorPoint: "Ancre-3" 490 -510 basechar 0
AnchorPoint: "Ancre-5" 490 1534 basechar 0
LayerCount: 2
Fore
SplineSet
392 978 m 1,0,-1
 392 953 l 1,1,-1
 392 -46 l 2,2,3
 392 -109 392 -109 375 -163 c 0,4,5
 357 -219 357 -219 319 -261 c 128,-1,6
 281 -303 281 -303 222 -327 c 0,7,8
 164 -351 164 -351 84 -351 c 0,9,10
 50 -351 50 -351 21 -346 c 0,11,12
 -8 -341 -8 -341 -37 -330 c 2,13,-1
 -55 -324 l 1,14,-1
 -53 -304 l 1,15,-1
 -43 -210 l 2,16,17
 -41 -194 -41 -194 -33 -184 c 0,18,19
 -23 -171 -23 -171 -6 -169 c 0,20,21
 4 -168 4 -168 18 -169 c 0,22,23
 30 -169 30 -169 49 -169 c 0,24,25
 114 -169 114 -169 140 -142 c 0,26,27
 166 -114 166 -114 166 -46 c 2,28,-1
 166 953 l 1,29,-1
 166 978 l 1,30,-1
 191 978 l 1,31,-1
 367 978 l 1,32,-1
 392 978 l 1,0,-1
EndSplineSet
Validated: 1
EndChar

StartChar: k
Encoding: 107 107 104
Width: 1031
GlyphClass: 2
Flags: W
AnchorPoint: "Ancre-5" 931 1492 basechar 0
AnchorPoint: "Ancre-3" 931 -510 basechar 0
AnchorPoint: "Ancre-2" 931 1515 basechar 0
AnchorPoint: "Ancre-1" 520 70 basechar 0
AnchorPoint: "Ancre-0" 520 1492 basechar 0
LayerCount: 2
Fore
SplineSet
354 1422 m 1,0,-1
 354 1397 l 1,1,-1
 354 611 l 1,2,-1
 369 611 l 2,3,4
 384 611 384 611 392 614 c 0,5,6
 398 616 398 616 408 627 c 2,7,-1
 705 936 l 1,8,-1
 705 937 l 2,9,10
 724 955 724 955 746 965 c 0,11,12
 770 978 770 978 801 978 c 2,13,-1
 961 978 l 1,14,-1
 1013 978 l 1,15,-1
 981 939 l 1,16,-1
 658 573 l 1,17,-1
 658 572 l 1,18,-1
 657 572 l 2,19,20
 640 557 640 557 623 544 c 0,21,22
 620 542 620 542 617 539 c 1,23,24
 622 535 622 535 626 531 c 0,25,26
 642 516 642 516 658 499 c 2,27,-1
 659 498 l 1,28,-1
 660 498 l 1,29,-1
 1002 37 l 1,30,-1
 1028 0 l 1,31,-1
 981 0 l 1,32,-1
 823 0 l 2,33,34
 796 0 796 0 774 10 c 0,35,36
 749 20 749 20 730 42 c 2,37,-1
 426 421 l 2,38,39
 414 435 414 435 406 439 c 0,40,41
 398 442 398 442 374 442 c 2,42,-1
 354 442 l 1,43,-1
 354 25 l 1,44,-1
 354 0 l 1,45,-1
 329 0 l 1,46,-1
 153 0 l 1,47,-1
 128 0 l 1,48,-1
 128 25 l 1,49,-1
 128 1397 l 1,50,-1
 128 1422 l 1,51,-1
 153 1422 l 1,52,-1
 329 1422 l 1,53,-1
 354 1422 l 1,0,-1
EndSplineSet
Validated: 1
Substitution2: "sous-table 'smcp' Bas-de-casse vers petites capitales dans Latin lookup 0" k.smcp
Substitution2: "sous-table 'ordn' Ordinaux dans Latin lookup 39" k.superior
Substitution2: "sous-table 'sups' Exposant lookups25" k.superior
EndChar

StartChar: kgreenlandic
Encoding: 312 312 105
Width: 1031
GlyphClass: 2
Flags: W
LayerCount: 2
Fore
SplineSet
351 978 m 1,0,-1
 351 953 l 1,1,-1
 351 611 l 1,2,-1
 366 611 l 2,3,4
 381 611 381 611 390 614 c 0,5,6
 397 616 397 616 407 627 c 2,7,-1
 705 937 l 1,8,-1
 706 937 l 2,9,10
 725 955 725 955 745 965 c 0,11,12
 768 978 768 978 801 978 c 2,13,-1
 960 978 l 1,14,-1
 1012 978 l 1,15,-1
 980 939 l 1,16,-1
 656 573 l 1,17,-1
 656 572 l 1,18,-1
 655 572 l 2,19,20
 638 557 638 557 621 544 c 0,21,22
 618 542 618 542 615 539 c 1,23,24
 620 535 620 535 624 531 c 0,25,26
 640 516 640 516 656 499 c 2,27,-1
 657 499 l 1,28,-1
 658 498 l 1,29,-1
 1001 37 l 1,30,-1
 1027 -0 l 1,31,-1
 980 0 l 1,32,-1
 823 0 l 2,33,34
 796 0 796 0 775 10 c 0,35,36
 750 20 750 20 730 42 c 2,37,-1
 424 421 l 2,38,39
 412 435 412 435 404 438 c 0,40,41
 395 442 395 442 372 442 c 2,42,-1
 351 442 l 1,43,-1
 351 25 l 1,44,-1
 351 0 l 1,45,-1
 326 0 l 1,46,-1
 150 0 l 1,47,-1
 125 0 l 1,48,-1
 125 25 l 1,49,-1
 125 953 l 1,50,-1
 125 978 l 1,51,-1
 150 978 l 1,52,-1
 326 978 l 1,53,-1
 351 978 l 1,0,-1
EndSplineSet
Validated: 1
EndChar

StartChar: lslash
Encoding: 322 322 106
Width: 557
GlyphClass: 2
Flags: W
AnchorPoint: "Ancre-5" 513 1553 basechar 0
AnchorPoint: "Ancre-3" 513 -510 basechar 0
AnchorPoint: "Ancre-2" 513 1515 basechar 0
AnchorPoint: "Ancre-1" 278 10 basechar 0
AnchorPoint: "Ancre-0" 278 1553 basechar 0
LayerCount: 2
Fore
SplineSet
409 1422 m 1,0,-1
 409 1397 l 1,1,-1
 409 925 l 1,2,-1
 501 971 l 1,3,-1
 537 990 l 1,4,-1
 537 951 l 1,5,-1
 537 856 l 2,6,7
 537 811 537 811 499 794 c 2,8,-1
 409 748 l 1,9,-1
 409 25 l 1,10,-1
 409 0 l 1,11,-1
 384 0 l 1,12,-1
 208 0 l 1,13,-1
 183 0 l 1,14,-1
 183 25 l 1,15,-1
 183 656 l 1,16,-1
 83 606 l 1,17,-1
 46 587 l 1,18,-1
 46 627 l 1,19,-1
 46 726 l 2,20,21
 46 766 46 766 81 785 c 2,22,-1
 183 838 l 1,23,-1
 183 1397 l 1,24,-1
 183 1422 l 1,25,-1
 208 1422 l 1,26,-1
 384 1422 l 1,27,-1
 409 1422 l 1,0,-1
EndSplineSet
Validated: 1
Substitution2: "sous-table 'smcp' Bas-de-casse vers petites capitales dans Latin lookup 0" lslash.smcp
EndChar

StartChar: m
Encoding: 109 109 108
Width: 1736
GlyphClass: 2
Flags: W
AnchorPoint: "Ancre-5" 1636 1122 basechar 0
AnchorPoint: "Ancre-3" 1636 -510 basechar 0
AnchorPoint: "Ancre-2" 1636 1515 basechar 0
AnchorPoint: "Ancre-1" 828 10 basechar 0
AnchorPoint: "Ancre-0" 822 1122 basechar 0
LayerCount: 2
Fore
SplineSet
147 0 m 1,0,-1
 147 25 l 1,1,-1
 147 953 l 1,2,-1
 147 978 l 1,3,-1
 172 978 l 1,4,-1
 276 978 l 2,5,6
 304 978 304 978 322 965 c 0,7,8
 342 950 342 950 346 920 c 2,9,-1
 353 872 l 1,10,11
 365 884 365 884 378 896 c 0,12,13
 411 925 411 925 450 947 c 0,14,15
 490 969 490 969 535.5 981 c 128,-1,16
 581 993 581 993 632 993 c 0,17,18
 748 993 748 993 823 932 c 0,19,20
 874 890 874 890 905 828 c 1,21,22
 921 853 921 853 940 874 c 0,23,24
 979 915 979 915 1027 941.5 c 128,-1,25
 1075 968 1075 968 1129 981 c 0,26,27
 1183 993 1183 993 1239 993 c 0,28,29
 1416 993 1416 993 1511 894 c 0,30,31
 1605 796 1605 796 1605 617 c 2,32,-1
 1605 25 l 1,33,-1
 1605 0 l 1,34,-1
 1580 0 l 1,35,-1
 1404 0 l 1,36,-1
 1379 0 l 1,37,-1
 1379 25 l 1,38,-1
 1379 610 l 2,39,40
 1379 708 1379 708 1332 757 c 0,41,42
 1285 804 1285 804 1194 804 c 0,43,44
 1152 804 1152 804 1116 792 c 0,45,46
 1080 780 1080 780 1053 756 c 0,47,48
 1026 732 1026 732 1009.5 695.5 c 128,-1,49
 993 659 993 659 993 610 c 2,50,-1
 993 25 l 1,51,-1
 993 0 l 1,52,-1
 967 0 l 1,53,-1
 781 0 l 1,54,-1
 755 0 l 1,55,-1
 755 25 l 1,56,-1
 755 610 l 2,57,58
 755 711 755 711 710 759 c 0,59,60
 667 804 667 804 580 804 c 0,61,62
 520 804 520 804 467 776 c 0,63,64
 416 749 416 749 373 701 c 1,65,-1
 373 25 l 1,66,-1
 373 0 l 1,67,-1
 348 0 l 1,68,-1
 172 0 l 1,69,-1
 147 0 l 1,0,-1
EndSplineSet
Validated: 1
Substitution2: "sous-table 'smcp' Bas-de-casse vers petites capitales dans Latin lookup 0" m.smcp
Substitution2: "sous-table 'ordn' Ordinaux dans Latin lookup 39" m.superior
Substitution2: "sous-table 'sups' Exposant lookups25" m.superior
EndChar

StartChar: n
Encoding: 110 110 109
Width: 1176
GlyphClass: 2
Flags: W
AnchorPoint: "Ancre-5" 1076 1122 basechar 0
AnchorPoint: "Ancre-3" 1076 -510 basechar 0
AnchorPoint: "Ancre-2" 1076 1515 basechar 0
AnchorPoint: "Ancre-1" 578 10 basechar 0
AnchorPoint: "Ancre-0" 538 1122 basechar 0
LayerCount: 2
Fore
SplineSet
140 0 m 1,0,-1
 140 25 l 1,1,-1
 140 953 l 1,2,-1
 140 978 l 1,3,-1
 165 978 l 1,4,-1
 270 978 l 2,5,6
 297 978 297 978 315 965 c 0,7,8
 336 950 336 950 340 920 c 2,9,-1
 348 867 l 1,10,11
 402 915 402 915 469 947 c 0,12,13
 564 993 564 993 687 993 c 0,14,15
 784 993 784 993 852 964 c 0,16,17
 918 937 918 937 962 887 c 0,18,19
 1006 837 1006 837 1029 767 c 0,20,21
 1051 699 1051 699 1051 617 c 2,22,-1
 1051 25 l 1,23,-1
 1051 0 l 1,24,-1
 1026 0 l 1,25,-1
 850 0 l 1,26,-1
 825 0 l 1,27,-1
 825 25 l 1,28,-1
 825 610 l 2,29,30
 825 704 825 704 778 755 c 0,31,32
 730 804 730 804 629 804 c 0,33,34
 551 804 551 804 484 774 c 0,35,36
 419 745 419 745 366 693 c 1,37,-1
 366 25 l 1,38,-1
 366 0 l 1,39,-1
 341 0 l 1,40,-1
 165 0 l 1,41,-1
 140 0 l 1,0,-1
EndSplineSet
Validated: 1
Substitution2: "sous-table 'smcp' Bas-de-casse vers petites capitales dans Latin lookup 0" n.smcp
Substitution2: "sous-table 'ordn' Ordinaux dans Latin lookup 39" uni207F
Substitution2: "sous-table 'sups' Exposant lookups25" uni207F
EndChar

StartChar: eng
Encoding: 331 331 110
Width: 1176
GlyphClass: 2
Flags: W
AnchorPoint: "Ancre-5" 1076 1122 basechar 0
AnchorPoint: "Ancre-3" 1076 -510 basechar 0
AnchorPoint: "Ancre-2" 1076 1515 basechar 0
AnchorPoint: "Ancre-1" 578 10 basechar 0
AnchorPoint: "Ancre-0" 538 1122 basechar 0
LayerCount: 2
Fore
SplineSet
140 0 m 1,0,-1
 140 25 l 1,1,-1
 140 953 l 1,2,-1
 140 978 l 1,3,-1
 165 978 l 1,4,-1
 270 978 l 2,5,6
 297 978 297 978 315 965 c 0,7,8
 336 950 336 950 340 920 c 2,9,-1
 348 867 l 1,10,11
 402 915 402 915 469 947 c 0,12,13
 564 993 564 993 687 993 c 0,14,15
 784 993 784 993 852 964 c 0,16,17
 918 936 918 936 962 886 c 0,18,19
 1006 836 1006 836 1029 766 c 0,20,21
 1051 697 1051 697 1051 614 c 2,22,-1
 1051 19 l 2,23,24
 1051 -60 1051 -60 1030 -125 c 0,25,26
 1009 -195 1009 -195 967 -246 c 0,27,28
 924 -297 924 -297 857 -325 c 0,29,30
 789 -352 789 -352 689 -352 c 0,31,32
 634 -352 634 -352 588 -343 c 0,33,34
 543 -334 543 -334 493 -315 c 2,35,-1
 471 -307 l 1,36,-1
 477 -286 l 1,37,-1
 498 -210 l 2,38,39
 506 -178 506 -178 529 -166 c 0,40,41
 548 -156 548 -156 571 -156 c 0,42,43
 589 -156 589 -156 617 -164 c 0,44,45
 635 -170 635 -170 671 -170 c 0,46,47
 748 -170 748 -170 787 -129 c 0,48,49
 825 -86 825 -86 825 7 c 2,50,-1
 825 610 l 2,51,52
 825 704 825 704 778 755 c 0,53,54
 730 804 730 804 629 804 c 0,55,56
 551 804 551 804 484 774 c 0,57,58
 419 745 419 745 366 693 c 1,59,-1
 366 25 l 1,60,-1
 366 0 l 1,61,-1
 341 0 l 1,62,-1
 165 0 l 1,63,-1
 140 0 l 1,0,-1
EndSplineSet
Validated: 1
Substitution2: "sous-table 'smcp' Bas-de-casse vers petites capitales dans Latin lookup 0" eng.smcp
EndChar

StartChar: o
Encoding: 111 111 111
Width: 1180
GlyphClass: 2
Flags: W
AnchorPoint: "Ancre-5" 1080 1122 basechar 0
AnchorPoint: "Ancre-4" 918 550 basechar 0
AnchorPoint: "Ancre-3" 1080 -510 basechar 0
AnchorPoint: "Ancre-2" 1080 1515 basechar 0
AnchorPoint: "Ancre-1" 540 0 basechar 0
AnchorPoint: "Ancre-0" 540 1122 basechar 0
LayerCount: 2
Fore
SplineSet
367 956 m 0,0,1
 467 993 467 993 591 993 c 128,-1,2
 715 993 715 993 814 956 c 0,3,4
 909 920 909 920 973 854 c 0,5,6
 1036 788 1036 788 1071 695 c 0,7,8
 1105 603 1105 603 1105 490 c 0,9,10
 1105 376 1105 376 1071 284 c 0,11,12
 1037 191 1037 191 973 125 c 0,13,14
 941 92 941 92 902.5 66.5 c 128,-1,15
 864 41 864 41 814 23 c 0,16,17
 714 -14 714 -14 591 -14 c 128,-1,18
 468 -14 468 -14 367 23 c 0,19,20
 271 59 271 59 207 125 c 0,21,22
 143 191 143 191 109 284 c 0,23,24
 75 376 75 376 75 490 c 0,25,26
 75 603 75 603 109 695 c 0,27,28
 143 788 143 788 207 854 c 0,29,30
 271 920 271 920 367 956 c 0,0,1
464 194 m 0,31,32
 518 173 518 173 591 173 c 0,33,34
 663 173 663 173 716 194 c 0,35,36
 768 214 768 214 803 253 c 0,37,38
 839 293 839 293 857 351 c 0,39,40
 874 411 874 411 874 489 c 128,-1,41
 874 567 874 567 857 627 c 0,42,43
 839 686 839 686 803 725 c 0,44,45
 768 764 768 764 716 785 c 0,46,47
 663 806 663 806 591 806 c 0,48,49
 518 806 518 806 464 785 c 0,50,51
 411 764 411 764 377 725 c 0,52,53
 341 685 341 685 323 627 c 0,54,55
 306 567 306 567 306 489 c 128,-1,56
 306 411 306 411 323 351 c 0,57,58
 341 292 341 292 377 253 c 0,59,60
 411 214 411 214 464 194 c 0,31,32
EndSplineSet
Validated: 1
Substitution2: "sous-table 'smcp' Bas-de-casse vers petites capitales dans Latin lookup 0" o.smcp
Substitution2: "sous-table 'ordn' Ordinaux dans Latin lookup 39" o.superior
Substitution2: "sous-table 'sups' Exposant lookups25" o.superior
EndChar

StartChar: oslash
Encoding: 248 248 112
Width: 1184
GlyphClass: 2
Flags: W
AnchorPoint: "Ancre-5" 1080 1122 basechar 0
AnchorPoint: "Ancre-4" 918 550 basechar 0
AnchorPoint: "Ancre-3" 1080 -510 basechar 0
AnchorPoint: "Ancre-2" 1080 1515 basechar 0
AnchorPoint: "Ancre-1" 540 0 basechar 0
AnchorPoint: "Ancre-0" 540 1122 basechar 0
LayerCount: 2
Fore
SplineSet
1156 1020 m 1,0,-1
 1016 839 l 1,1,2
 1070 777 1070 777 1100 696 c 0,3,4
 1133 605 1133 605 1133 492 c 0,5,6
 1133 378 1133 378 1099 285 c 0,7,8
 1065 192 1065 192 1001 125 c 0,9,10
 936 59 936 59 837 23 c 0,11,12
 738 -14 738 -14 617 -14 c 0,13,14
 534 -14 534 -14 463 3 c 0,15,16
 404 17 404 17 352 41 c 1,17,-1
 311 -11 l 2,18,19
 286 -46 286 -46 249 -60 c 0,20,21
 215 -74 215 -74 181 -74 c 2,22,-1
 115 -74 l 1,23,-1
 66 -74 l 1,24,-1
 95 -34 l 1,25,-1
 223 132 l 1,26,27
 167 194 167 194 135 278 c 0,28,29
 100 372 100 372 99 489 c 0,30,31
 99 603 99 603 134 695 c 0,32,33
 169 788 169 788 232 854 c 0,34,35
 296 920 296 920 395 956 c 0,36,37
 494 993 494 993 617 993 c 0,38,39
 702 993 702 993 775 975 c 0,40,41
 836 960 836 960 890 932 c 1,42,-1
 945 1002 l 2,43,44
 967 1032 967 1032 987 1045 c 0,45,46
 1010 1060 1010 1060 1049 1060 c 2,47,-1
 1136 1060 l 1,48,-1
 1186 1060 l 1,49,-1
 1156 1020 l 1,0,-1
340 613 m 0,50,51
 320 547 320 547 320 464 c 0,52,53
 320 346 320 346 357 266 c 1,54,-1
 767 779 l 1,55,56
 704 812 704 812 617 812 c 0,57,58
 545 812 545 812 489 788 c 0,59,60
 434 765 434 765 397 722 c 0,61,62
 360 677 360 677 340 613 c 0,50,51
475 196 m 1,63,64
 534 168 534 168 617 168 c 0,65,66
 689 168 689 168 743 191 c 0,67,68
 797 214 797 214 834 257 c 0,69,70
 871 301 871 301 890 365 c 0,71,72
 910 430 910 430 910 514 c 0,73,74
 910 622 910 622 878 699 c 1,75,-1
 475 196 l 1,63,64
EndSplineSet
Validated: 1
Substitution2: "sous-table 'smcp' Bas-de-casse vers petites capitales dans Latin lookup 0" oslash.smcp
EndChar

StartChar: oe
Encoding: 339 339 113
Width: 1840
GlyphClass: 2
Flags: W
LayerCount: 2
Fore
SplineSet
1208 976 m 132,-1,1
 1271 993 1271 993 1345 993 c 4,2,3
 1436 993 1436 993 1514 960 c 4,4,5
 1590 928 1590 928 1645 868 c 4,6,7
 1700 809 1700 809 1731 724 c 4,8,9
 1762 640 1762 640 1762 533 c 4,10,11
 1762 488 1762 488 1751 468 c 4,12,13
 1736 443 1736 443 1696 443 c 6,14,-1
 1075 443 l 5,15,16
 1081 382 1081 382 1101 335 c 4,17,18
 1124 280 1124 280 1160 244 c 4,19,20
 1196 209 1196 209 1246 192 c 4,21,22
 1297 174 1297 174 1359 174 c 4,23,24
 1419 174 1419 174 1461 187 c 4,25,26
 1505 201 1505 201 1536 218 c 4,27,28
 1568 236 1568 236 1590 250 c 4,29,30
 1619 268 1619 268 1643 268 c 4,31,32
 1673 268 1673 268 1696 243 c 6,33,-1
 1696 242 l 5,34,-1
 1697 241 l 5,35,-1
 1746 177 l 5,36,-1
 1758 161 l 5,37,-1
 1745 146 l 6,38,39
 1711 104 1711 104 1664 74 c 4,40,41
 1618 44 1618 44 1566 24 c 4,42,43
 1514 5 1514 5 1457 -5 c 4,44,45
 1400 -14 1400 -14 1343 -14 c 4,46,47
 1211 -14 1211 -14 1104 46 c 4,48,49
 1016 96 1016 96 959 187 c 5,50,51
 904 101 904 101 817 50 c 4,52,53
 763 18 763 18 699 2 c 132,-1,54
 635 -14 635 -14 560 -14 c 4,55,56
 449 -14 449 -14 358 24 c 4,57,58
 270 60 270 60 208 125 c 4,59,60
 146 191 146 191 112 284 c 4,61,62
 79 376 79 376 79 490 c 4,63,64
 79 603 79 603 112 695 c 4,65,66
 146 788 146 788 208 854 c 4,67,68
 271 920 271 920 361 956 c 4,69,70
 453 993 453 993 565 993 c 4,71,72
 711 993 711 993 817 930 c 4,73,74
 903 879 903 879 957 795 c 5,75,76
 977 826 977 826 1002 852 c 4,77,78
 1042 896 1042 896 1093.5 927.5 c 132,-1,0
 1145 959 1145 959 1208 976 c 132,-1,1
377 253 m 4,79,80
 442 173 442 173 576 173 c 4,81,82
 643 173 643 173 692 194 c 4,83,84
 741 214 741 214 773 253 c 4,85,86
 806 293 806 293 823 351 c 4,87,88
 841 413 841 413 841 493 c 4,89,90
 841 568 841 568 823 627 c 4,91,92
 806 686 806 686 773 726 c 4,93,94
 741 765 741 765 692 785 c 4,95,96
 643 806 643 806 576 806 c 4,97,98
 508 806 508 806 458 785 c 4,99,100
 409 764 409 764 377 726 c 4,101,102
 344 686 344 686 327 627 c 4,103,104
 310 567 310 567 310 489 c 4,105,106
 310 336 310 336 377 253 c 4,79,80
1431 821 m 132,-1,108
 1391 840 1391 840 1339 840 c 4,109,110
 1280 840 1280 840 1234 822 c 4,111,112
 1189 804 1189 804 1156 770 c 132,-1,113
 1123 736 1123 736 1103 688 c 4,114,115
 1087 650 1087 650 1079 602 c 5,116,-1
 1555 602 l 5,117,118
 1552 646 1552 646 1541 685 c 4,119,120
 1526 734 1526 734 1499 768 c 4,121,107
 1471 802 1471 802 1431 821 c 132,-1,108
EndSplineSet
Validated: 1
Substitution2: "sous-table 'smcp' Bas-de-casse vers petites capitales dans Latin lookup 0" oe.smcp
EndChar

StartChar: p
Encoding: 112 112 114
Width: 1176
GlyphClass: 2
Flags: W
AnchorPoint: "Ancre-5" 1076 1122 basechar 0
AnchorPoint: "Ancre-3" 1076 -510 basechar 0
AnchorPoint: "Ancre-2" 1076 1515 basechar 0
AnchorPoint: "Ancre-1" 230 -320 basechar 0
AnchorPoint: "Ancre-0" 630 1122 basechar 0
LayerCount: 2
Fore
SplineSet
141 -330 m 1,0,-1
 141 -305 l 1,1,-1
 141 953 l 1,2,-1
 141 978 l 1,3,-1
 166 978 l 1,4,-1
 271 978 l 2,5,6
 298 978 298 978 316 965 c 0,7,8
 337 950 337 950 341 920 c 2,9,-1
 350 859 l 1,10,11
 403 911 403 911 472 946 c 0,12,13
 568 995 568 995 691 995 c 0,14,15
 791 995 791 995 872 960 c 0,16,17
 945 927 945 927 997 862 c 0,18,19
 1048 798 1048 798 1075 706 c 0,20,21
 1102 614 1102 614 1102 495 c 0,22,23
 1102 389 1102 389 1072 296 c 0,24,25
 1042 203 1042 203 984 134 c 0,26,27
 955 99 955 99 920 72 c 128,-1,28
 885 45 885 45 842 26 c 0,29,30
 749 -14 749 -14 632 -14 c 0,31,32
 526 -14 526 -14 450 18 c 0,33,34
 404 37 404 37 367 67 c 1,35,-1
 367 -305 l 1,36,-1
 367 -330 l 1,37,-1
 342 -330 l 1,38,-1
 166 -330 l 1,39,-1
 141 -330 l 1,0,-1
731 787 m 0,40,41
 685 804 685 804 627 804 c 0,42,43
 543 804 543 804 479 772 c 0,44,45
 417 741 417 741 367 684 c 1,46,-1
 367 262 l 1,47,48
 410 213 410 213 462 194 c 0,49,50
 519 172 519 172 588 172 c 0,51,52
 724 172 724 172 797 253 c 0,53,54
 871 337 871 337 871 495 c 0,55,56
 871 580 871 580 855 641 c 0,57,58
 838 700 838 700 806 736 c 0,59,60
 775 771 775 771 731 787 c 0,40,41
EndSplineSet
Validated: 1
Substitution2: "sous-table 'smcp' Bas-de-casse vers petites capitales dans Latin lookup 0" p.smcp
Substitution2: "sous-table 'ordn' Ordinaux dans Latin lookup 39" p.superior
Substitution2: "sous-table 'sups' Exposant lookups25" p.superior
EndChar

StartChar: thorn
Encoding: 254 254 115
Width: 1176
GlyphClass: 2
Flags: W
LayerCount: 2
Fore
SplineSet
144 -330 m 1,0,-1
 144 -305 l 1,1,-1
 144 1397 l 1,2,-1
 144 1422 l 1,3,-1
 169 1422 l 1,4,-1
 345 1422 l 1,5,-1
 370 1422 l 1,6,-1
 370 1397 l 1,7,-1
 370 876 l 1,8,9
 420 919 420 919 481 949 c 0,10,11
 575 993 575 993 694 993 c 0,12,13
 793 993 793 993 872 959 c 0,14,15
 945 926 945 926 997 862 c 0,16,17
 1048 799 1048 799 1075 706 c 0,18,19
 1102 614 1102 614 1102 495 c 0,20,21
 1102 389 1102 389 1072 296 c 0,22,23
 1042 203 1042 203 985 134 c 0,24,25
 928 65 928 65 843 26 c 0,26,27
 750 -14 750 -14 634 -14 c 0,28,29
 526 -14 526 -14 451 23 c 0,30,31
 407 24 407 24 370 25 c 1,32,-1
 370 -305 l 1,33,-1
 370 -330 l 1,34,-1
 345 -330 l 1,35,-1
 169 -330 l 1,36,-1
 144 -330 l 1,0,-1
732 787 m 0,37,38
 686 804 686 804 629 804 c 0,39,40
 545 804 545 804 482 772 c 0,41,42
 420 741 420 741 370 684 c 1,43,-1
 370 262 l 1,44,45
 413 213 413 213 465 193 c 0,46,47
 521 172 521 172 591 172 c 0,48,49
 726 172 726 172 798 253 c 0,50,51
 871 337 871 337 871 495 c 0,52,53
 871 580 871 580 855 641 c 0,54,55
 838 700 838 700 806 736 c 0,56,57
 776 771 776 771 732 787 c 0,37,38
EndSplineSet
Validated: 1
Substitution2: "sous-table 'smcp' Bas-de-casse vers petites capitales dans Latin lookup 0" thorn.smcp
EndChar

StartChar: q
Encoding: 113 113 116
Width: 1176
GlyphClass: 2
Flags: W
AnchorPoint: "Ancre-5" 1076 1122 basechar 0
AnchorPoint: "Ancre-3" 1076 -510 basechar 0
AnchorPoint: "Ancre-2" 1076 1515 basechar 0
AnchorPoint: "Ancre-1" 847 -320 basechar 0
AnchorPoint: "Ancre-0" 490 1122 basechar 0
LayerCount: 2
Fore
SplineSet
1035 978 m 1,0,-1
 1035 953 l 1,1,-1
 1035 -305 l 1,2,-1
 1035 -330 l 1,3,-1
 1010 -330 l 1,4,-1
 834 -330 l 1,5,-1
 809 -330 l 1,6,-1
 809 -305 l 1,7,-1
 809 105 l 1,8,9
 758 61 758 61 697 32 c 0,10,11
 603 -14 603 -14 485 -14 c 0,12,13
 385 -14 385 -14 304 21 c 0,14,15
 231 54 231 54 179 119 c 0,16,17
 128 182 128 182 101 275 c 0,18,19
 74 367 74 367 74 486 c 0,20,21
 74 592 74 592 104 684 c 0,22,23
 134 777 134 777 191 845 c 0,24,25
 248 914 248 914 333 953 c 0,26,27
 426 995 426 995 543 995 c 0,28,29
 656 995 656 995 735 959 c 0,30,31
 789 934 789 934 830 896 c 1,32,-1
 834 922 l 2,33,34
 839 948 839 948 858.5 963 c 128,-1,35
 878 978 878 978 905 978 c 2,36,-1
 1010 978 l 1,37,-1
 1035 978 l 1,0,-1
445 194 m 0,38,39
 490 177 490 177 548 177 c 0,40,41
 633 177 633 177 696 209 c 0,42,43
 757 241 757 241 809 297 c 1,44,-1
 809 720 l 1,45,46
 767 767 767 767 714 788 c 0,47,48
 656 810 656 810 588 810 c 0,49,50
 452 810 452 810 379 729 c 0,51,52
 305 645 305 645 305 487 c 0,53,54
 305 402 305 402 321 341 c 0,55,56
 338 282 338 282 370 246 c 0,57,58
 401 210 401 210 445 194 c 0,38,39
EndSplineSet
Validated: 1
Substitution2: "sous-table 'smcp' Bas-de-casse vers petites capitales dans Latin lookup 0" q.smcp
Substitution2: "sous-table 'ordn' Ordinaux dans Latin lookup 39" q.superior
Substitution2: "sous-table 'sups' Exposant lookups25" q.superior
EndChar

StartChar: r
Encoding: 114 114 117
Width: 764
GlyphClass: 2
Flags: W
AnchorPoint: "Ancre-5" 714 1122 basechar 0
AnchorPoint: "Ancre-3" 714 -510 basechar 0
AnchorPoint: "Ancre-2" 714 1515 basechar 0
AnchorPoint: "Ancre-1" 219 10 basechar 0
AnchorPoint: "Ancre-0" 418 1122 basechar 0
LayerCount: 2
Fore
SplineSet
131 0 m 1,0,-1
 131 25 l 1,1,-1
 131 953 l 1,2,-1
 131 978 l 1,3,-1
 156 978 l 1,4,-1
 257 978 l 2,5,6
 295 978 295 978 314 960 c 0,7,8
 332 942 332 942 335 907 c 2,9,-1
 340 845 l 1,10,11
 375 897 375 897 417 933 c 0,12,13
 490 995 490 995 592 995 c 0,14,15
 626 995 626 995 656 988 c 0,16,17
 687 980 687 980 713 963 c 2,18,-1
 725 954 l 1,19,-1
 724 939 l 1,20,-1
 710 809 l 2,21,22
 707 787 707 787 693 774.5 c 128,-1,23
 679 762 679 762 657 762 c 0,24,25
 640 762 640 762 612 768 c 0,26,27
 589 773 589 773 561 773 c 0,28,29
 521 773 521 773 491 762 c 0,30,31
 461 751 461 751 437 729 c 0,32,33
 412 707 412 707 393 674 c 0,34,35
 374 642 374 642 357 600 c 1,36,-1
 357 25 l 1,37,-1
 357 0 l 1,38,-1
 332 0 l 1,39,-1
 156 0 l 1,40,-1
 131 0 l 1,0,-1
EndSplineSet
Validated: 1
Substitution2: "sous-table 'smcp' Bas-de-casse vers petites capitales dans Latin lookup 0" r.smcp
Substitution2: "sous-table 'ordn' Ordinaux dans Latin lookup 39" r.superior
Substitution2: "sous-table 'sups' Exposant lookups25" r.superior
EndChar

StartChar: s
Encoding: 115 115 118
Width: 901
GlyphClass: 2
Flags: W
AnchorPoint: "Ancre-5" 801 1122 basechar 0
AnchorPoint: "Ancre-3" 801 -510 basechar 0
AnchorPoint: "Ancre-2" 801 1515 basechar 0
AnchorPoint: "Ancre-1" 382 -10 basechar 0
AnchorPoint: "Ancre-0" 418 1122 basechar 0
LayerCount: 2
Fore
SplineSet
821 841 m 1,0,-1
 783 778 l 1,1,2
 763 744 763 744 725 744 c 0,3,4
 703 744 703 744 679 759 c 0,5,6
 662 769 662 769 639 781 c 0,7,8
 616 793 616 793 583 803 c 0,9,10
 547 813 547 813 495 813 c 0,11,12
 453 813 453 813 420 804 c 0,13,14
 388 795 388 795 365 780 c 0,15,16
 343 765 343 765 331 746 c 0,17,18
 319 727 319 727 320 705 c 0,19,20
 320 677 320 677 337 660 c 0,21,22
 358 640 358 640 393 626 c 0,23,24
 431 610 431 610 480 597 c 0,25,26
 532 583 532 583 586 569 c 0,27,28
 633 554 633 554 676 535 c 0,29,30
 722 515 722 515 757 485 c 0,31,32
 794 455 794 455 816 411 c 0,33,34
 838 367 838 367 839 307 c 0,35,36
 839 238 839 238 814 180 c 0,37,38
 789 121 789 121 741 78 c 0,39,40
 693 35 693 35 622 11 c 0,41,42
 543 -15 543 -15 434 -15 c 0,43,44
 311 -15 311 -15 227 20 c 0,45,46
 143 55 143 55 85 111 c 2,47,-1
 70 125 l 1,48,-1
 81 142 l 1,49,-1
 122 208 l 2,50,51
 133 226 133 226 148 236 c 0,52,53
 165 247 165 247 190 247 c 0,54,55
 216 246 216 246 241 228 c 0,56,57
 258 215 258 215 283 199 c 0,58,59
 306 184 306 184 345 172 c 0,60,61
 384 160 384 160 444 160 c 0,62,63
 494 160 494 160 530 171 c 0,64,65
 565 181 565 181 587 198 c 0,66,67
 606 215 606 215 616 237 c 0,68,69
 625 260 625 260 625 286 c 0,70,71
 625 316 625 316 610 334 c 0,72,73
 592 355 592 355 557 371 c 0,74,75
 519 387 519 387 470 399 c 0,76,77
 418 412 418 412 364 427 c 0,78,79
 310 442 310 442 266 461 c 0,80,81
 220 481 220 481 184 512 c 0,82,83
 147 544 147 544 125 590 c 0,84,85
 102 636 102 636 102 701 c 0,86,87
 102 759 102 759 126 812 c 128,-1,88
 150 865 150 865 196 905 c 0,89,90
 242 945 242 945 308 968 c 0,91,92
 387 993 387 993 490 993 c 0,93,94
 604 993 604 993 683 961 c 0,95,96
 762 929 762 929 818 871 c 2,97,-1
 831 857 l 1,98,-1
 821 841 l 1,0,-1
EndSplineSet
Validated: 1
Substitution2: "sous-table 'sups' Exposant lookups25" s.superior
Substitution2: "sous-table 'ordn' Ordinaux dans Latin lookup 39" s.superior
Substitution2: "sous-table 'smcp' Bas-de-casse vers petites capitales dans Latin lookup 0" s.smcp
EndChar

StartChar: scedilla
Encoding: 351 351 119
Width: 901
GlyphClass: 2
Flags: W
AnchorPoint: "Ancre-5" 801 1122 basechar 0
AnchorPoint: "Ancre-3" 801 -510 basechar 0
AnchorPoint: "Ancre-2" 801 1515 basechar 0
AnchorPoint: "Ancre-1" 382 -310 basechar 0
AnchorPoint: "Ancre-0" 418 1492 basechar 0
LayerCount: 2
Fore
SplineSet
269 -202.5 m 128,-1,1
 281 -193 281 -193 297 -193 c 0,2,3
 309 -193 309 -193 322 -199 c 0,4,5
 330 -202 330 -202 342 -206 c 0,6,7
 354 -210 354 -210 370 -212 c 0,8,9
 384 -215 384 -215 406 -215 c 0,10,11
 444 -215 444 -215 461 -204 c 0,12,13
 474 -196 474 -196 475 -183 c 0,14,15
 475 -172 475 -172 469 -166 c 128,-1,16
 463 -160 463 -160 445 -155 c 0,17,18
 399 -141 399 -141 313 -132 c 2,19,-1
 283 -128 l 1,20,-1
 292 -99 l 1,21,-1
 324 -7 l 1,22,23
 257 4 257 4 203 29 c 0,24,25
 135 60 135 60 85 105 c 2,26,-1
 70 119 l 1,27,-1
 81 135 l 1,28,-1
 122 198 l 2,29,30
 133 215 133 215 149 224 c 0,31,32
 166 234 166 234 190 235 c 0,33,34
 216 235 216 235 241 217 c 0,35,36
 258 205 258 205 283 189 c 0,37,38
 306 175 306 175 345 163 c 0,39,40
 384 152 384 152 444 152 c 0,41,42
 494 152 494 152 530 163 c 0,43,44
 565 174 565 174 587 190 c 0,45,46
 606 207 606 207 616 230 c 0,47,48
 625 254 625 254 625 279 c 0,49,50
 625 309 625 309 610 328 c 0,51,52
 592 349 592 349 557 365 c 0,53,54
 519 381 519 381 471 394 c 0,55,56
 419 407 419 407 364 422 c 0,57,58
 310 437 310 437 266 456 c 0,59,60
 220 476 220 476 184 508 c 0,61,62
 147 540 147 540 125 586 c 0,63,64
 102 633 102 633 102 698 c 0,65,66
 102 757 102 757 126 810.5 c 128,-1,67
 150 864 150 864 196 905 c 0,68,69
 242 945 242 945 308 968 c 0,70,71
 387 993 387 993 490 993 c 0,72,73
 604 993 604 993 683 961 c 0,74,75
 762 929 762 929 818 871 c 2,76,-1
 831 857 l 1,77,-1
 821 841 l 1,78,-1
 783 778 l 2,79,80
 763 744 763 744 725 744 c 0,81,82
 703 744 703 744 679 759 c 0,83,84
 662 769 662 769 639 781 c 0,85,86
 616 793 616 793 583 803 c 0,87,88
 547 813 547 813 495 813 c 0,89,90
 453 813 453 813 420 804 c 0,91,92
 388 795 388 795 365 780 c 0,93,94
 343 765 343 765 331 746 c 0,95,96
 319 727 319 727 320 705 c 0,97,98
 320 678 320 678 337 660 c 0,99,100
 358 640 358 640 393 626 c 0,101,102
 431 610 431 610 480 597 c 0,103,104
 532 583 532 583 586 569 c 0,105,106
 633 554 633 554 676 535 c 0,107,108
 722 515 722 515 757 485 c 0,109,110
 794 455 794 455 816 412 c 0,111,112
 838 368 838 368 839 307 c 0,113,114
 839 244 839 244 817 188 c 0,115,116
 795 132 795 132 753 90 c 128,-1,117
 711 48 711 48 649 21 c 0,118,119
 595 -4 595 -4 512 -11 c 1,120,-1
 506 -28 l 1,121,122
 598 -47 598 -47 636 -80 c 0,123,124
 684 -121 684 -121 684 -185 c 0,125,126
 684 -223 684 -223 665 -254 c 0,127,128
 646 -284 646 -284 614 -304 c 0,129,130
 581 -323 581 -323 528 -334 c 0,131,132
 477 -344 477 -344 417 -344 c 0,133,134
 366 -344 366 -344 319 -335 c 0,135,136
 280 -326 280 -326 247 -312 c 2,137,-1
 228 -302 l 1,138,-1
 234 -281 l 1,139,-1
 251 -227 l 2,140,0
 257 -212 257 -212 269 -202.5 c 128,-1,1
EndSplineSet
Validated: 1
Substitution2: "sous-table 'smcp' Bas-de-casse vers petites capitales dans Latin lookup 0" scedilla.smcp
LCarets2: 1 0
Ligature2: "sous-table 'ccmp' Composition et d+AOkA-composition de glyphe (CJK) lookups10" s uni0327
Substitution2: "sous-table 'salt' Alternatives stylistiques dans Latin lookup 8" uni0219
EndChar

StartChar: s_t.dlig
Encoding: 1114146 -1 120
Width: 1454
GlyphClass: 3
Flags: MW
LayerCount: 2
Fore
SplineSet
998 832 m 1,0,-1
 895 832 l 2,1,2
 880 832 880 832 869 842 c 128,-1,3
 858 852 858 852 858 871 c 2,4,-1
 858 941 l 1,5,-1
 1011 962 l 1,6,7
 1018 990 1018 990 1025.5 1021.5 c 128,-1,8
 1033 1053 1033 1053 1039 1085.5 c 128,-1,9
 1045 1118 1045 1118 1049 1150.5 c 128,-1,10
 1053 1183 1053 1183 1053 1213 c 0,11,12
 1053 1260 1053 1260 1041.5 1300.5 c 128,-1,13
 1030 1341 1030 1341 1005 1370.5 c 128,-1,14
 980 1400 980 1400 941 1416.5 c 128,-1,15
 902 1433 902 1433 847 1433 c 0,16,17
 783 1433 783 1433 735 1411.5 c 128,-1,18
 687 1390 687 1390 655.5 1353.5 c 128,-1,19
 624 1317 624 1317 608.5 1268.5 c 128,-1,20
 593 1220 593 1220 593 1166 c 0,21,22
 593 1087 593 1087 629.5 1013 c 128,-1,23
 666 939 666 939 735 879 c 1,24,-1
 719 866 l 1,25,-1
 688 816 l 2,26,27
 676 794 676 794 652 794 c 0,28,29
 637 794 637 794 619.5 805 c 128,-1,30
 602 816 602 816 577.5 828.5 c 128,-1,31
 553 841 553 841 519.5 852 c 128,-1,32
 486 863 486 863 440 863 c 0,33,34
 401 863 401 863 370 852 c 128,-1,35
 339 841 339 841 317 822 c 128,-1,36
 295 803 295 803 283 777.5 c 128,-1,37
 271 752 271 752 271 723 c 0,38,39
 271 685 271 685 291 660 c 128,-1,40
 311 635 311 635 344 617 c 128,-1,41
 377 599 377 599 419.5 584.5 c 128,-1,42
 462 570 462 570 506 555 c 128,-1,43
 550 540 550 540 592.5 520 c 128,-1,44
 635 500 635 500 668 471 c 128,-1,45
 701 442 701 442 721 400.5 c 128,-1,46
 741 359 741 359 741 300 c 0,47,48
 741 232 741 232 718 174.5 c 128,-1,49
 695 117 695 117 650.5 75 c 128,-1,50
 606 33 606 33 540.5 9 c 128,-1,51
 475 -15 475 -15 390 -15 c 0,52,53
 293 -15 293 -15 213.5 18 c 128,-1,54
 134 51 134 51 79 104 c 1,55,-1
 120 170 l 2,56,57
 128 183 128 183 139 190 c 128,-1,58
 150 197 150 197 167 197 c 0,59,60
 185 197 185 197 203 183.5 c 128,-1,61
 221 170 221 170 246.5 153.5 c 128,-1,62
 272 137 272 137 308 123.5 c 128,-1,63
 344 110 344 110 398 110 c 0,64,65
 444 110 444 110 477.5 123 c 128,-1,66
 511 136 511 136 533 157.5 c 128,-1,67
 555 179 555 179 566 208 c 128,-1,68
 577 237 577 237 577 269 c 0,69,70
 577 309 577 309 556.5 335.5 c 128,-1,71
 536 362 536 362 503 380.5 c 128,-1,72
 470 399 470 399 427.5 413 c 128,-1,73
 385 427 385 427 340.5 442.5 c 128,-1,74
 296 458 296 458 253.5 477.5 c 128,-1,75
 211 497 211 497 178 527.5 c 128,-1,76
 145 558 145 558 124.5 602 c 128,-1,77
 104 646 104 646 104 709 c 0,78,79
 104 766 104 766 126 817.5 c 128,-1,80
 148 869 148 869 190 908 c 128,-1,81
 232 947 232 947 294 970 c 128,-1,82
 356 993 356 993 436 993 c 0,83,84
 496 993 496 993 550 979 c 1,85,86
 529 1022 529 1022 518.5 1069 c 128,-1,87
 508 1116 508 1116 508 1165 c 0,88,89
 508 1235 508 1235 528.5 1297 c 128,-1,90
 549 1359 549 1359 591 1406 c 128,-1,91
 633 1453 633 1453 696.5 1480.5 c 128,-1,92
 760 1508 760 1508 847 1508 c 0,93,94
 932 1508 932 1508 993.5 1481 c 128,-1,95
 1055 1454 1055 1454 1095 1409 c 128,-1,96
 1135 1364 1135 1364 1154.5 1307 c 128,-1,97
 1174 1250 1174 1250 1174 1190 c 2,98,-1
 1174 960 l 1,99,-1
 1428 960 l 1,100,-1
 1428 832 l 1,101,-1
 1174 832 l 1,102,-1
 1174 248 l 2,103,104
 1174 188 1174 188 1199.5 158 c 128,-1,105
 1225 128 1225 128 1267 128 c 0,106,107
 1291 128 1291 128 1307.5 135 c 128,-1,108
 1324 142 1324 142 1336.5 151 c 128,-1,109
 1349 160 1349 160 1357.5 167 c 128,-1,110
 1366 174 1366 174 1374 174 c 0,111,112
 1388 174 1388 174 1398 157 c 2,113,-1
 1451 73 l 1,114,115
 1408 31 1408 31 1348.5 8 c 128,-1,116
 1289 -15 1289 -15 1226 -15 c 0,117,118
 1117 -15 1117 -15 1057.5 50 c 128,-1,119
 998 115 998 115 998 236 c 2,120,-1
 998 832 l 1,0,-1
EndSplineSet
Validated: 1
Ligature2: "sous-table 'dlig' Ligatures facultatives  dans Latin lookup 36" s t
EndChar

StartChar: glyph121
Encoding: 1114147 -1 121
Width: 1454
GlyphClass: 3
Flags: MW
LayerCount: 2
Fore
SplineSet
272 -243 m 0,0,1
 278 -243 278 -243 285.5 -246.5 c 128,-1,2
 293 -250 293 -250 304 -254 c 128,-1,3
 315 -258 315 -258 329.5 -261.5 c 128,-1,4
 344 -265 344 -265 365 -265 c 0,5,6
 405 -265 405 -265 425.5 -249 c 128,-1,7
 446 -233 446 -233 446 -208 c 0,8,9
 446 -171 446 -171 405.5 -156.5 c 128,-1,10
 365 -142 365 -142 291 -132 c 1,11,-1
 331 -11 l 1,12,13
 253 -2 253 -2 189 28.5 c 128,-1,14
 125 59 125 59 79 104 c 1,15,-1
 120 170 l 2,16,17
 128 183 128 183 139 190 c 128,-1,18
 150 197 150 197 167 197 c 0,19,20
 185 197 185 197 203 183.5 c 128,-1,21
 221 170 221 170 246.5 153.5 c 128,-1,22
 272 137 272 137 308 123.5 c 128,-1,23
 344 110 344 110 398 110 c 0,24,25
 444 110 444 110 477.5 123 c 128,-1,26
 511 136 511 136 533 157.5 c 128,-1,27
 555 179 555 179 566 208 c 128,-1,28
 577 237 577 237 577 269 c 0,29,30
 577 309 577 309 556.5 335.5 c 128,-1,31
 536 362 536 362 503 380.5 c 128,-1,32
 470 399 470 399 427.5 413 c 128,-1,33
 385 427 385 427 340.5 442.5 c 128,-1,34
 296 458 296 458 253.5 477.5 c 128,-1,35
 211 497 211 497 178 527.5 c 128,-1,36
 145 558 145 558 124.5 602 c 128,-1,37
 104 646 104 646 104 709 c 0,38,39
 104 766 104 766 126 817.5 c 128,-1,40
 148 869 148 869 190 908 c 128,-1,41
 232 947 232 947 294 970 c 128,-1,42
 356 993 356 993 436 993 c 0,43,44
 496 993 496 993 550 979 c 1,45,46
 529 1022 529 1022 518.5 1069 c 128,-1,47
 508 1116 508 1116 508 1165 c 0,48,49
 508 1235 508 1235 528.5 1297 c 128,-1,50
 549 1359 549 1359 591 1406 c 128,-1,51
 633 1453 633 1453 696.5 1480.5 c 128,-1,52
 760 1508 760 1508 847 1508 c 0,53,54
 932 1508 932 1508 993.5 1481 c 128,-1,55
 1055 1454 1055 1454 1095 1409 c 128,-1,56
 1135 1364 1135 1364 1154.5 1307 c 128,-1,57
 1174 1250 1174 1250 1174 1190 c 2,58,-1
 1174 960 l 1,59,-1
 1428 960 l 1,60,-1
 1428 832 l 1,61,-1
 1174 832 l 1,62,-1
 1174 248 l 2,63,64
 1174 188 1174 188 1199.5 158 c 128,-1,65
 1225 128 1225 128 1267 128 c 0,66,67
 1291 128 1291 128 1307.5 135 c 128,-1,68
 1324 142 1324 142 1336.5 151 c 128,-1,69
 1349 160 1349 160 1357.5 167 c 128,-1,70
 1366 174 1366 174 1374 174 c 0,71,72
 1388 174 1388 174 1398 157 c 2,73,-1
 1451 73 l 1,74,75
 1408 31 1408 31 1348.5 8 c 128,-1,76
 1289 -15 1289 -15 1226 -15 c 0,77,78
 1117 -15 1117 -15 1057.5 50 c 128,-1,79
 998 115 998 115 998 236 c 2,80,-1
 998 832 l 1,81,-1
 895 832 l 2,82,83
 880 832 880 832 869 842 c 128,-1,84
 858 852 858 852 858 871 c 2,85,-1
 858 941 l 1,86,-1
 1011 962 l 1,87,88
 1018 990 1018 990 1025.5 1021.5 c 128,-1,89
 1033 1053 1033 1053 1039 1085.5 c 128,-1,90
 1045 1118 1045 1118 1049 1150.5 c 128,-1,91
 1053 1183 1053 1183 1053 1213 c 0,92,93
 1053 1260 1053 1260 1041.5 1300.5 c 128,-1,94
 1030 1341 1030 1341 1005 1370.5 c 128,-1,95
 980 1400 980 1400 941 1416.5 c 128,-1,96
 902 1433 902 1433 847 1433 c 0,97,98
 783 1433 783 1433 735 1411.5 c 128,-1,99
 687 1390 687 1390 655.5 1353.5 c 128,-1,100
 624 1317 624 1317 608.5 1268.5 c 128,-1,101
 593 1220 593 1220 593 1166 c 0,102,103
 593 1087 593 1087 629.5 1013 c 128,-1,104
 666 939 666 939 735 879 c 1,105,-1
 719 866 l 1,106,-1
 688 816 l 2,107,108
 676 794 676 794 652 794 c 0,109,110
 637 794 637 794 619.5 805 c 128,-1,111
 602 816 602 816 577.5 828.5 c 128,-1,112
 553 841 553 841 519.5 852 c 128,-1,113
 486 863 486 863 440 863 c 0,114,115
 401 863 401 863 370 852 c 128,-1,116
 339 841 339 841 317 822 c 128,-1,117
 295 803 295 803 283 777.5 c 128,-1,118
 271 752 271 752 271 723 c 0,119,120
 271 685 271 685 291 660 c 128,-1,121
 311 635 311 635 344 617 c 128,-1,122
 377 599 377 599 419.5 584.5 c 128,-1,123
 462 570 462 570 506 555 c 128,-1,124
 550 540 550 540 592.5 520 c 128,-1,125
 635 500 635 500 668 471 c 128,-1,126
 701 442 701 442 721 400.5 c 128,-1,127
 741 359 741 359 741 300 c 0,128,129
 741 237 741 237 720.5 182 c 128,-1,130
 700 127 700 127 661 85.5 c 128,-1,131
 622 44 622 44 564.5 18.5 c 128,-1,132
 507 -7 507 -7 432 -13 c 1,133,-1
 415 -72 l 1,134,135
 505 -90 505 -90 544.5 -124 c 128,-1,136
 584 -158 584 -158 584 -210 c 0,137,138
 584 -241 584 -241 568.5 -266 c 128,-1,139
 553 -291 553 -291 525.5 -308 c 128,-1,140
 498 -325 498 -325 459 -334.5 c 128,-1,141
 420 -344 420 -344 374 -344 c 0,142,143
 335 -344 335 -344 299 -336 c 128,-1,144
 263 -328 263 -328 233 -314 c 1,145,-1
 250 -260 l 2,146,147
 256 -243 256 -243 272 -243 c 0,0,1
EndSplineSet
Validated: 1
EndChar

StartChar: germandbls
Encoding: 223 223 122
Width: 1180
GlyphClass: 2
Flags: W
LayerCount: 2
Fore
SplineSet
415 1370 m 0,0,1
 512 1404 512 1404 631 1404 c 0,2,3
 743 1404 743 1404 826 1373 c 0,4,5
 905 1342 905 1342 953.5 1293.5 c 128,-1,6
 1002 1245 1002 1245 1026 1187 c 0,7,8
 1049 1129 1049 1129 1049 1075 c 0,9,10
 1049 1013 1049 1013 1028 966 c 0,11,12
 1007 923 1007 923 976 890 c 0,13,14
 946 858 946 858 910 833 c 0,15,16
 877 810 877 810 847 789 c 0,17,18
 818 769 818 769 799 749 c 0,19,20
 784 732 784 732 783 710 c 0,21,22
 783 683 783 683 802 667 c 0,23,24
 826 645 826 645 863 627 c 0,25,26
 899 607 899 607 940 585 c 0,27,28
 984 562 984 562 1022 528 c 0,29,30
 1061 493 1061 493 1086 442 c 0,31,32
 1113 390 1113 390 1113 313 c 0,33,34
 1113 237 1113 237 1084.5 176 c 128,-1,35
 1056 115 1056 115 1006 72.5 c 128,-1,36
 956 30 956 30 889 8 c 0,37,38
 818 -15 818 -15 733 -15 c 0,39,40
 630 -15 630 -15 544 20 c 0,41,42
 458 55 458 55 394 110 c 2,43,-1
 378 124 l 1,44,-1
 390 141 l 1,45,-1
 436 208 l 2,46,47
 448 226 448 226 465 236 c 0,48,49
 484 247 484 247 511 247 c 0,50,51
 540 246 540 246 567 228 c 0,52,53
 586 215 586 215 614 199 c 0,54,55
 639 184 639 184 672 172 c 0,56,57
 703 160 703 160 750 160 c 0,58,59
 786 160 786 160 814 170 c 0,60,61
 842 180 842 180 861 197 c 0,62,63
 879 215 879 215 888 239 c 0,64,65
 898 264 898 264 898 293 c 0,66,67
 898 336 898 336 878 362 c 0,68,69
 854 390 854 390 816 411 c 0,70,71
 775 433 775 433 728 452 c 0,72,73
 677 473 677 473 632 500 c 0,74,75
 585 529 585 529 555 571 c 0,76,77
 523 615 523 615 523 682 c 0,78,79
 523 737 523 737 548 778 c 0,80,81
 572 816 572 816 609 847 c 0,82,83
 644 877 644 877 685 903 c 0,84,85
 723 927 723 927 755 953 c 0,86,87
 786 978 786 978 806 1007 c 0,88,89
 824 1035 824 1035 825 1075 c 0,90,91
 825 1102 825 1102 814 1129 c 0,92,93
 804 1155 804 1155 780 1175 c 0,94,95
 756 1196 756 1196 718 1210.5 c 128,-1,96
 680 1225 680 1225 623 1225 c 0,97,98
 561 1225 561 1225 511 1206 c 0,99,100
 463 1188 463 1188 429 1152 c 0,101,102
 394 1115 394 1115 375 1060 c 0,103,104
 357 1006 357 1006 357 932 c 2,105,-1
 357 25 l 1,106,-1
 357 0 l 1,107,-1
 332 0 l 1,108,-1
 156 0 l 1,109,-1
 131 0 l 1,110,-1
 131 25 l 1,111,-1
 131 939 l 2,112,113
 131 1039 131 1039 165 1123 c 0,114,115
 199 1211 199 1211 261 1273.5 c 128,-1,116
 323 1336 323 1336 415 1370 c 0,0,1
EndSplineSet
Validated: 1
Substitution2: "sous-table 'smcp' Bas-de-casse vers petites capitales dans Latin lookup 0" germandbls.smcp
EndChar

StartChar: longs
Encoding: 383 383 123
Width: 547
GlyphClass: 2
Flags: W
LayerCount: 2
Fore
SplineSet
165 0 m 1,0,-1
 165 25 l 1,1,-1
 165 793 l 1,2,-1
 91 803 l 2,3,4
 63 806 63 806 45 820 c 0,5,6
 38 826 38 826 33 834 c 128,-1,7
 28 842 28 842 25.5 850.5 c 128,-1,8
 23 859 23 859 23 868 c 2,9,-1
 23 936 l 1,10,-1
 23 960 l 1,11,-1
 48 960 l 1,12,-1
 165 960 l 1,13,-1
 165 1028 l 2,14,15
 165 1116 165 1116 189 1186 c 0,16,17
 213 1257 213 1257 259 1305 c 128,-1,18
 305 1353 305 1353 369 1379 c 0,19,20
 433 1404 433 1404 512 1404 c 0,21,22
 576 1404 576 1404 635 1384 c 2,23,-1
 653 1377 l 1,24,-1
 652 1358 l 1,25,-1
 645 1267 l 2,26,27
 643 1245 643 1245 627 1234 c 0,28,29
 616 1227 616 1227 599 1225 c 0,30,31
 587 1224 587 1224 571 1225 c 0,32,33
 557 1225 557 1225 540 1225 c 0,34,35
 504 1225 504 1225 476 1215 c 0,36,37
 450 1205 450 1205 432 1183 c 0,38,39
 413 1160 413 1160 402 1122 c 0,40,41
 391 1082 391 1082 391 1023 c 2,42,-1
 391 25 l 1,43,-1
 391 0 l 1,44,-1
 366 0 l 1,45,-1
 190 0 l 1,46,-1
 165 0 l 1,0,-1
EndSplineSet
Validated: 1
EndChar

StartChar: t
Encoding: 116 116 124
Width: 786
GlyphClass: 2
Flags: W
AnchorPoint: "Ancre-5" 686 1434 basechar 0
AnchorPoint: "Ancre-3" 686 -510 basechar 0
AnchorPoint: "Ancre-2" 686 1515 basechar 0
AnchorPoint: "Ancre-1" 418 0 basechar 0
AnchorPoint: "Ancre-0" 291 1434 basechar 0
LayerCount: 2
Fore
SplineSet
628 10 m 0,0,1
 563 -15 563 -15 487 -15 c 0,2,3
 329 -15 329 -15 250 54 c 0,4,5
 182 122 182 122 182 245 c 2,6,-1
 182 782 l 1,7,-1
 95 782 l 2,8,9
 70 782 70 782 52 799 c 0,10,11
 34 816 34 816 34 846 c 2,12,-1
 34 916 l 1,13,-1
 34 938 l 1,14,-1
 56 941 l 1,15,-1
 191 958 l 1,16,-1
 229 1240 l 2,17,18
 232 1264 232 1264 250 1280 c 0,19,20
 268 1295 268 1295 297 1295 c 2,21,-1
 411 1295 l 1,22,-1
 443 1295 l 1,23,-1
 443 1270 l 1,24,-1
 443 960 l 1,25,-1
 702 960 l 1,26,-1
 727 960 l 1,27,-1
 727 935 l 1,28,-1
 727 807 l 1,29,-1
 727 782 l 1,30,-1
 702 782 l 1,31,-1
 443 782 l 1,32,-1
 443 266 l 2,33,34
 443 220 443 220 470 198 c 0,35,36
 496 178 496 178 532 178 c 0,37,38
 553 178 553 178 568 183 c 0,39,40
 584 189 584 189 594 197 c 0,41,42
 607 206 607 206 616 212 c 0,43,44
 632 224 632 224 648 224 c 0,45,46
 665 224 665 224 677 215 c 0,47,48
 686 208 686 208 695 195 c 2,49,-1
 746 111 l 1,50,-1
 757 94 l 1,51,-1
 742 80 l 2,52,53
 694 35 694 35 628 10 c 0,0,1
EndSplineSet
Validated: 1
Substitution2: "sous-table 'smcp' Bas-de-casse vers petites capitales dans Latin lookup 0" t.smcp
Substitution2: "sous-table 'ordn' Ordinaux dans Latin lookup 39" t.superior
Substitution2: "sous-table 'sups' Exposant lookups25" t.superior
EndChar

StartChar: tbar
Encoding: 359 359 126
Width: 800
GlyphClass: 2
Flags: W
AnchorPoint: "Ancre-0" 305 1434 basechar 0
AnchorPoint: "Ancre-1" 432 0 basechar 0
AnchorPoint: "Ancre-2" 700 1515 basechar 0
AnchorPoint: "Ancre-3" 700 -510 basechar 0
AnchorPoint: "Ancre-5" 700 1434 basechar 0
LayerCount: 2
Fore
SplineSet
42 693 m 1,0,-1
 67 693 l 1,1,-1
 182 693 l 1,2,-1
 182 782 l 1,3,-1
 95 782 l 2,4,5
 70 782 70 782 52 799 c 0,6,7
 34 816 34 816 34 846 c 2,8,-1
 34 916 l 1,9,-1
 34 938 l 1,10,-1
 56 941 l 1,11,-1
 191 958 l 1,12,-1
 229 1240 l 2,13,14
 232 1264 232 1264 250 1280 c 0,15,16
 268 1295 268 1295 297 1295 c 2,17,-1
 411 1295 l 1,18,-1
 443 1295 l 1,19,-1
 443 1270 l 1,20,-1
 443 960 l 1,21,-1
 702 960 l 1,22,-1
 727 960 l 1,23,-1
 727 935 l 1,24,-1
 727 807 l 1,25,-1
 727 782 l 1,26,-1
 702 782 l 1,27,-1
 443 782 l 1,28,-1
 443 693 l 1,29,-1
 707 693 l 1,30,-1
 732 693 l 1,31,-1
 732 668 l 1,32,-1
 732 557 l 1,33,-1
 732 532 l 1,34,-1
 707 532 l 1,35,-1
 443 532 l 1,36,-1
 443 267 l 2,37,38
 443 220 443 220 470 198 c 0,39,40
 496 178 496 178 532 178 c 0,41,42
 553 178 553 178 568 183 c 0,43,44
 584 189 584 189 594 197 c 0,45,46
 607 206 607 206 616 212 c 0,47,48
 632 224 632 224 648 224 c 0,49,50
 665 224 665 224 677 215 c 0,51,52
 686 208 686 208 695 195 c 2,53,-1
 746 111 l 1,54,-1
 757 94 l 1,55,-1
 742 80 l 2,56,57
 693 35 693 35 628 10 c 0,58,59
 563 -15 563 -15 487 -15 c 0,60,61
 329 -15 329 -15 250 55 c 0,62,63
 182 124 182 124 182 249 c 2,64,-1
 182 532 l 1,65,-1
 67 532 l 1,66,-1
 42 532 l 1,67,-1
 42 557 l 1,68,-1
 42 668 l 1,69,-1
 42 693 l 1,0,-1
EndSplineSet
Validated: 1
Substitution2: "sous-table 'smcp' Bas-de-casse vers petites capitales dans Latin lookup 0" tbar.smcp
EndChar

StartChar: t_f.liga
Encoding: 1114148 -1 127
Width: 1254
GlyphClass: 3
Flags: MW
LayerCount: 2
Fore
SplineSet
799 0 m 1,0,-1
 799 832 l 1,1,-1
 353 832 l 1,2,-1
 353 248 l 2,3,4
 353 188 353 188 380 158 c 128,-1,5
 407 128 407 128 450 128 c 0,6,7
 475 128 475 128 493 135 c 128,-1,8
 511 142 511 142 523.5 151 c 128,-1,9
 536 160 536 160 545 167 c 128,-1,10
 554 174 554 174 562 174 c 0,11,12
 571 174 571 174 576.5 170 c 128,-1,13
 582 166 582 166 587 157 c 2,14,-1
 639 73 l 1,15,16
 595 31 595 31 535 8 c 128,-1,17
 475 -15 475 -15 410 -15 c 0,18,19
 298 -15 298 -15 237.5 50 c 128,-1,20
 177 115 177 115 177 236 c 2,21,-1
 177 832 l 1,22,-1
 69 832 l 2,23,24
 53 832 53 832 42.5 842 c 128,-1,25
 32 852 32 852 32 871 c 2,26,-1
 32 941 l 1,27,-1
 183 961 l 1,28,-1
 224 1262 l 2,29,30
 226 1277 226 1277 236.5 1286 c 128,-1,31
 247 1295 247 1295 264 1295 c 2,32,-1
 353 1295 l 1,33,-1
 353 960 l 1,34,-1
 799 960 l 1,35,-1
 799 1053 l 2,36,37
 799 1137 799 1137 822 1202.5 c 128,-1,38
 845 1268 845 1268 887.5 1312.5 c 128,-1,39
 930 1357 930 1357 990 1380.5 c 128,-1,40
 1050 1404 1050 1404 1124 1404 c 0,41,42
 1155 1404 1155 1404 1184 1399 c 128,-1,43
 1213 1394 1213 1394 1241 1385 c 1,44,-1
 1236 1297 l 2,45,46
 1234 1274 1234 1274 1211.5 1271.5 c 128,-1,47
 1189 1269 1189 1269 1153 1269 c 0,48,49
 1111 1269 1111 1269 1077.5 1258 c 128,-1,50
 1044 1247 1044 1247 1020 1221 c 128,-1,51
 996 1195 996 1195 983 1152.5 c 128,-1,52
 970 1110 970 1110 970 1048 c 2,53,-1
 970 960 l 1,54,-1
 1232 960 l 1,55,-1
 1232 832 l 1,56,-1
 975 832 l 1,57,-1
 975 0 l 1,58,-1
 799 0 l 1,0,-1
EndSplineSet
Validated: 1
Ligature2: "sous-table 'liga' Ligatures standard dans Latin lookup 37" t f
EndChar

StartChar: t_iogonek.liga
Encoding: 1114149 -1 128
Width: 1141
GlyphClass: 3
Flags: MW
LayerCount: 2
Fore
SplineSet
1033 -203 m 0,0,1
 1046 -203 1046 -203 1051 -215 c 2,2,-1
 1078 -280 l 1,3,4
 1050 -302 1050 -302 1007.5 -316 c 128,-1,5
 965 -330 965 -330 917 -330 c 0,6,7
 835 -330 835 -330 788.5 -292 c 128,-1,8
 742 -254 742 -254 742 -190 c 0,9,10
 742 -134 742 -134 777 -85 c 128,-1,11
 812 -36 812 -36 869 0 c 1,12,-1
 818 0 l 1,13,-1
 818 832 l 1,14,-1
 353 832 l 1,15,-1
 353 248 l 2,16,17
 353 188 353 188 379.5 158 c 128,-1,18
 406 128 406 128 449 128 c 0,19,20
 474 128 474 128 491.5 135 c 128,-1,21
 509 142 509 142 521.5 151 c 128,-1,22
 534 160 534 160 543 167 c 128,-1,23
 552 174 552 174 560 174 c 0,24,25
 569 174 569 174 574.5 170 c 128,-1,26
 580 166 580 166 585 157 c 2,27,-1
 637 73 l 1,28,29
 593 31 593 31 533 8 c 128,-1,30
 473 -15 473 -15 408 -15 c 0,31,32
 297 -15 297 -15 237 50 c 128,-1,33
 177 115 177 115 177 236 c 2,34,-1
 177 832 l 1,35,-1
 69 832 l 2,36,37
 53 832 53 832 42.5 842 c 128,-1,38
 32 852 32 852 32 871 c 2,39,-1
 32 941 l 1,40,-1
 183 961 l 1,41,-1
 223 1262 l 2,42,43
 226 1277 226 1277 236 1286 c 128,-1,44
 246 1295 246 1295 263 1295 c 2,45,-1
 353 1295 l 1,46,-1
 353 960 l 1,47,-1
 994 960 l 1,48,-1
 994 0 l 1,49,-1
 979 0 l 1,50,51
 961 -11 961 -11 942.5 -25.5 c 128,-1,52
 924 -40 924 -40 908.5 -59 c 128,-1,53
 893 -78 893 -78 883.5 -100 c 128,-1,54
 874 -122 874 -122 874 -147 c 0,55,56
 874 -183 874 -183 896 -204 c 128,-1,57
 918 -225 918 -225 954 -225 c 0,58,59
 974 -225 974 -225 987 -221.5 c 128,-1,60
 1000 -218 1000 -218 1008.5 -214 c 128,-1,61
 1017 -210 1017 -210 1022.5 -206.5 c 128,-1,62
 1028 -203 1028 -203 1033 -203 c 0,0,1
1028 1284 m 0,63,64
 1028 1259 1028 1259 1018 1237 c 128,-1,65
 1008 1215 1008 1215 991 1198 c 128,-1,66
 974 1181 974 1181 952 1171 c 128,-1,67
 930 1161 930 1161 905 1161 c 0,68,69
 881 1161 881 1161 859 1171 c 128,-1,70
 837 1181 837 1181 820.5 1198 c 128,-1,71
 804 1215 804 1215 794.5 1237 c 128,-1,72
 785 1259 785 1259 785 1284 c 0,73,74
 785 1310 785 1310 794.5 1332.5 c 128,-1,75
 804 1355 804 1355 820.5 1372 c 128,-1,76
 837 1389 837 1389 859 1399 c 128,-1,77
 881 1409 881 1409 905 1409 c 0,78,79
 930 1409 930 1409 952 1399 c 128,-1,80
 974 1389 974 1389 991 1372 c 128,-1,81
 1008 1355 1008 1355 1018 1332.5 c 128,-1,82
 1028 1310 1028 1310 1028 1284 c 0,63,64
EndSplineSet
Validated: 1
Ligature2: "sous-table 'liga' Ligatures standard dans Latin lookup 37" t iogonek
EndChar

StartChar: t_dotlessi.liga
Encoding: 1114150 -1 129
Width: 1141
GlyphClass: 3
Flags: MW
LayerCount: 2
Fore
SplineSet
994 960 m 1,0,-1
 994 0 l 1,1,-1
 818 0 l 1,2,-1
 818 832 l 1,3,-1
 353 832 l 1,4,-1
 353 248 l 2,5,6
 353 188 353 188 379.5 158 c 128,-1,7
 406 128 406 128 449 128 c 0,8,9
 474 128 474 128 491.5 135 c 128,-1,10
 509 142 509 142 521.5 151 c 128,-1,11
 534 160 534 160 543 167 c 128,-1,12
 552 174 552 174 560 174 c 0,13,14
 569 174 569 174 574.5 170 c 128,-1,15
 580 166 580 166 585 157 c 2,16,-1
 637 73 l 1,17,18
 593 31 593 31 533 8 c 128,-1,19
 473 -15 473 -15 408 -15 c 0,20,21
 297 -15 297 -15 237 50 c 128,-1,22
 177 115 177 115 177 236 c 2,23,-1
 177 832 l 1,24,-1
 69 832 l 2,25,26
 53 832 53 832 42.5 842 c 128,-1,27
 32 852 32 852 32 871 c 2,28,-1
 32 941 l 1,29,-1
 183 961 l 1,30,-1
 223 1262 l 2,31,32
 226 1277 226 1277 236 1286 c 128,-1,33
 246 1295 246 1295 263 1295 c 2,34,-1
 353 1295 l 1,35,-1
 353 960 l 1,36,-1
 994 960 l 1,0,-1
EndSplineSet
Validated: 1
Ligature2: "sous-table 'liga' Ligatures standard dans Latin lookup 37" t dotlessi
EndChar

